<?xml version="1.0" encoding="utf-8"?>
<!-- Generator: Adobe Illustrator 27.5.0, SVG Export Plug-In . SVG Version: 6.00 Build 0)  -->
<svg version="1.1" id="Calque_1" xmlns="http://www.w3.org/2000/svg" xmlns:xlink="http://www.w3.org/1999/xlink" x="0px" y="0px"
	 viewBox="0 0 136 30" style="enable-background:new 0 0 136 30;" xml:space="preserve">
<style type="text/css">
	.st0{display:none;}
	.st1{display:inline;}
	.st2{fill:#FFFFFF;}
</style>
<g id="Calque_2_00000049915220142078035430000013500062623857515181_" class="st0">
	<rect x="-22" class="st1" width="180" height="30"/>
</g>
<g id="XMLID_69_">
	<path id="XMLID_70_" class="st2" d="M35.88,20.47c-0.8,0.8-1.74,1.41-2.81,1.78c-0.34,0.11-0.65,0.19-0.99,0.3
		c-0.5,0.11-1.03,0.19-1.55,0.19c-0.08,0-0.08,0-0.15,0c-1.83,0-3.53-0.61-4.91-1.74c-0.19-0.15-0.38-0.34-0.57-0.5l-0.38-0.38
		l-0.87-0.87l-2.39-2.39c-0.34-0.34-0.34-0.87,0-1.25c0.19-0.19,0.38-0.27,0.61-0.27s0.45,0.08,0.61,0.27l3.61,3.61
		c0.34,0.34,0.72,0.61,1.11,0.87c0.91,0.57,1.97,0.87,3.12,0.87c0.5,0,1.03-0.08,1.48-0.19c0.3-0.08,0.61-0.19,0.87-0.3
		c0.69-0.3,1.33-0.72,1.9-1.3c2.32-2.32,2.32-6.11,0-8.44c-1.17-1.17-2.7-1.74-4.22-1.74c-1.17,0-2.32,0.34-3.34,1.03
		c-0.5-0.38-1.03-0.72-1.64-0.99c1.44-1.17,3.23-1.78,4.98-1.78c1.97,0,3.95,0.75,5.47,2.24C38.87,12.53,38.87,17.43,35.88,20.47z
		 M22.16,22.75c-1.72,0-3.27-0.72-4.44-1.94c-2.47-2.47-2.47-6.46,0-8.88c1.17-1.17,2.77-1.86,4.44-1.86h0.04
		c0.34,0,0.61,0.04,0.91,0.08c0.34,0.08,0.65,0.11,0.99,0.23c0.61,0.19,1.17,0.5,1.67,0.84c0.23,0.19,0.5,0.34,0.69,0.57
		c0.08,0.08,0.11,0.11,0.19,0.19l0.45,0.45l2.13,2.13c0.34,0.34,0.34,0.87,0,1.25c-0.19,0.19-0.38,0.27-0.61,0.27
		c-0.23,0-0.45-0.08-0.61-0.27l-2.13-2.13l-0.45-0.45c-0.08-0.08-0.15-0.11-0.19-0.19c-0.61-0.53-1.33-0.87-2.13-1.03
		c-0.27-0.08-0.57-0.08-0.84-0.08c-0.04,0-0.08,0-0.11,0c-1.17,0.04-2.24,0.5-3.08,1.33c-1.78,1.78-1.78,4.63,0,6.42
		c0.87,0.87,1.97,1.33,3.23,1.33h0.8l0.75,0.72c0.38,0.38,0.75,0.75,1.22,1.03H22.16z M37.09,8.28c-1.78-1.78-4.18-2.77-6.72-2.77
		s-4.94,0.99-6.72,2.77l-0.19,0.19C23,8.39,22.58,8.36,22.13,8.36c-2.13,0-4.18,0.84-5.7,2.39c-3.15,3.15-3.15,8.25,0,11.4
		c1.52,1.52,3.53,2.35,5.7,2.35h8.28h0.08c0.04,0,0.08,0,0.08,0c2.51-0.04,4.82-1.03,6.58-2.77C40.82,18,40.82,11.96,37.09,8.28z"/>
</g>
<path class="st2" d="M84.51,17.47h-4.08l-1.02,3.08c-0.02,0.09-0.08,0.14-0.19,0.14h-1.84c-0.12,0-0.16-0.06-0.12-0.17l3.66-10.45
	C81,9.9,81.06,9.56,81.08,9.08c0-0.08,0.05-0.11,0.12-0.11h2.53c0.06,0,0.11,0.03,0.14,0.09l4.08,11.47c0.03,0.11,0,0.16-0.11,0.16
	h-2.08c-0.08,0-0.14-0.05-0.17-0.12L84.51,17.47z M80.89,15.76h3.16c-0.05-0.17-0.29-0.91-0.74-2.23c-0.43-1.33-0.73-2.25-0.87-2.74
	h-0.02C82.3,11.39,81.78,13.05,80.89,15.76z"/>
<path class="st2" d="M92.9,20.86c-1.36,0-2.45-0.37-3.29-1.1c-0.82-0.74-1.22-1.84-1.22-3.29c0-1.3,0.43-2.37,1.32-3.22
	c0.88-0.85,2.08-1.29,3.57-1.29c0.4,0,0.74,0.03,0.99,0.11V8.14c0-0.08,0.05-0.12,0.12-0.12h2c0.08,0,0.11,0.03,0.11,0.11v10.6
	c0,0.2,0.02,0.6,0.05,1.19c0.02,0.08-0.03,0.14-0.11,0.16C95.33,20.6,94.15,20.86,92.9,20.86z M94.25,19.03V13.7
	c-0.26-0.12-0.6-0.19-1.02-0.19c-0.78,0-1.4,0.25-1.86,0.76c-0.47,0.5-0.7,1.19-0.7,2.11c0,0.96,0.23,1.67,0.7,2.14
	c0.47,0.47,1.05,0.7,1.78,0.7C93.63,19.24,93.98,19.17,94.25,19.03z"/>
<path class="st2" d="M102.15,11.97c1.33,0,2.39,0.42,3.15,1.26s1.15,1.89,1.15,3.16c0,1.38-0.4,2.48-1.19,3.29
	c-0.79,0.79-1.84,1.19-3.13,1.19c-1.43,0-2.5-0.43-3.24-1.29c-0.74-0.87-1.1-1.92-1.1-3.16c0-1.3,0.4-2.37,1.19-3.21
	C99.78,12.38,100.84,11.97,102.15,11.97z M102.06,13.5c-0.6,0-1.1,0.26-1.47,0.78c-0.37,0.51-0.56,1.21-0.56,2.11
	s0.19,1.61,0.56,2.14c0.37,0.53,0.9,0.79,1.57,0.79c0.57,0,1.05-0.25,1.44-0.73c0.39-0.5,0.57-1.22,0.57-2.19
	c0-0.88-0.17-1.58-0.53-2.11C103.3,13.76,102.77,13.5,102.06,13.5z"/>
<path class="st2" d="M107.84,8.01h1.97c0.09,0,0.14,0.05,0.14,0.14v4.14c0.57-0.22,1.18-0.31,1.83-0.31c1.22,0,2.2,0.39,2.93,1.18
	c0.74,0.78,1.1,1.78,1.1,3.01c0,1.47-0.45,2.62-1.36,3.47c-0.91,0.84-2,1.26-3.27,1.26c-1.32,0-2.43-0.22-3.36-0.67
	c-0.08-0.03-0.11-0.09-0.11-0.17V8.14C107.72,8.04,107.75,8.01,107.84,8.01z M113.53,16.37c0-0.9-0.2-1.58-0.62-2.05
	c-0.4-0.47-0.95-0.7-1.64-0.7c-0.51,0-0.96,0.09-1.33,0.28v5.13c0.34,0.19,0.79,0.28,1.35,0.28c0.62,0,1.15-0.25,1.58-0.76
	C113.31,18.04,113.53,17.31,113.53,16.37z"/>
<path class="st2" d="M122.54,16.82H119c0.02,0.71,0.23,1.29,0.67,1.72c0.45,0.42,1.09,0.64,1.94,0.64c0.84,0,1.57-0.14,2.19-0.43
	c0.08-0.03,0.11,0,0.11,0.09v1.32c0,0.11-0.03,0.17-0.11,0.22c-0.74,0.34-1.63,0.51-2.65,0.51c-0.79,0-1.47-0.12-2.06-0.37
	s-1.04-0.57-1.36-1.01c-0.33-0.42-0.57-0.88-0.74-1.38c-0.16-0.51-0.23-1.04-0.23-1.61c0-1.27,0.37-2.36,1.1-3.22
	c0.74-0.88,1.77-1.32,3.05-1.32c1.22,0,2.14,0.36,2.74,1.09s0.91,1.58,0.91,2.56c0,0.36-0.03,0.7-0.08,1.01
	c-0.02,0.08-0.06,0.12-0.14,0.14C124.01,16.8,123.41,16.82,122.54,16.82z M118.99,15.45h2.5c0.56,0,0.87-0.02,0.93-0.03
	c0.02-0.05,0.02-0.12,0.02-0.25c0-0.45-0.12-0.84-0.39-1.19c-0.25-0.36-0.65-0.53-1.22-0.53c-0.56,0-0.99,0.19-1.3,0.57
	C119.22,14.4,119.05,14.88,118.99,15.45z"/>
<polygon class="st2" points="60.72,5.5 68.51,5.5 68.51,24.16 "/>
<polygon class="st2" points="55.23,5.5 47.43,5.5 47.43,24.16 "/>
<polygon class="st2" points="57.98,12.37 62.93,24.16 59.68,24.16 58.21,20.4 54.57,20.4 "/>
</svg>
