<?xml version="1.0" encoding="utf-8"?>
<!-- Generator: Adobe Illustrator 27.5.0, SVG Export Plug-In . SVG Version: 6.00 Build 0)  -->
<svg version="1.1" id="Calque_1" xmlns="http://www.w3.org/2000/svg" xmlns:xlink="http://www.w3.org/1999/xlink" x="0px" y="0px"
	 viewBox="0 0 180 30" style="enable-background:new 0 0 180 30;" xml:space="preserve">
<style type="text/css">
	.st0{display:none;}
	.st1{display:inline;}
	.st2{opacity:0.66;}
	.st3{fill:#FFFFFF;}
</style>
<g id="Calque_2_00000044158496510843811700000004073501549466080421_" class="st0">
	<rect class="st1" width="180" height="30"/>
</g>
<g id="Calque_1_00000182514562140448309800000013400347634511291793_">
	<g class="st2">
		<path class="st3" d="M33.79,21.98l0.17-0.58c0.2-0.69,0.12-1.32-0.21-1.79c-0.31-0.43-0.82-0.68-1.44-0.71l-11.75-0.15
			c-0.08,0-0.14-0.04-0.18-0.1s-0.05-0.14-0.03-0.21c0.04-0.12,0.15-0.2,0.27-0.21l11.86-0.15c1.41-0.06,2.93-1.21,3.46-2.6
			l0.68-1.77c0.02-0.05,0.03-0.1,0.03-0.15c0-0.03,0-0.06-0.01-0.08c-0.77-3.45-3.85-6.04-7.54-6.04c-3.4,0-6.28,2.19-7.31,5.24
			c-0.67-0.5-1.52-0.77-2.44-0.68c-1.63,0.16-2.94,1.47-3.1,3.1c-0.04,0.42-0.01,0.83,0.09,1.21c-2.66,0.08-4.8,2.26-4.8,4.94
			c0,0.24,0.02,0.48,0.05,0.71c0.02,0.11,0.11,0.2,0.23,0.2h21.69c0,0,0,0,0.01,0C33.65,22.18,33.76,22.1,33.79,21.98z"/>
		<path class="st3" d="M37.71,13.85c-0.11,0-0.22,0-0.33,0.01c-0.02,0-0.03,0.01-0.05,0.01c-0.06,0.02-0.1,0.07-0.12,0.12l-0.46,1.6
			c-0.2,0.69-0.12,1.32,0.21,1.79c0.31,0.43,0.82,0.68,1.44,0.71l2.5,0.15c0.07,0,0.14,0.04,0.18,0.1s0.05,0.14,0.03,0.21
			c-0.04,0.12-0.15,0.2-0.27,0.21l-2.6,0.15c-1.41,0.06-2.94,1.21-3.47,2.6L34.57,22c-0.03,0.09,0.03,0.18,0.12,0.19c0,0,0,0,0.01,0
			h8.96c0.11,0,0.2-0.07,0.23-0.17c0.16-0.55,0.24-1.14,0.24-1.74C44.13,16.73,41.25,13.85,37.71,13.85z"/>
	</g>
	<g class="st2">
		<path class="st3" d="M167.72,15.29c-0.55,0-0.99-0.44-0.99-0.99c0-0.54,0.44-0.99,0.99-0.99s0.99,0.44,0.99,0.99
			S168.27,15.29,167.72,15.29 M167.72,13.49c-0.44,0-0.79,0.36-0.79,0.8c0,0.45,0.36,0.81,0.79,0.81c0.44,0,0.79-0.36,0.79-0.81
			C168.52,13.85,168.16,13.49,167.72,13.49 M168.22,14.82h-0.23l-0.2-0.38h-0.27v0.38h-0.21v-1.09h0.52c0.23,0,0.37,0.14,0.37,0.36
			c0,0.16-0.09,0.28-0.23,0.33L168.22,14.82z M167.85,14.25c0.09,0,0.17-0.04,0.17-0.17c0-0.12-0.07-0.17-0.17-0.17h-0.32v0.33h0.32
			V14.25z"/>
		<polygon class="st3" points="64.02,13.21 66.55,13.21 66.55,20.14 70.99,20.14 70.99,22.36 64.02,22.36 		"/>
		<path class="st3" d="M73.61,17.81v-0.03c0-2.63,2.12-4.76,4.94-4.76s4.92,2.11,4.92,4.73v0.03c0,2.63-2.12,4.76-4.94,4.76
			C75.71,22.55,73.61,20.44,73.61,17.81 M80.88,17.81v-0.03c0-1.32-0.95-2.47-2.35-2.47c-1.39,0-2.31,1.12-2.31,2.45v0.03
			c0,1.32,0.95,2.47,2.34,2.47C79.96,20.26,80.88,19.13,80.88,17.81"/>
		<path class="st3" d="M86.58,18.35v-5.14h2.58v5.09c0,1.32,0.67,1.95,1.69,1.95s1.69-0.6,1.69-1.88v-5.15h2.58v5.07
			c0,2.96-1.69,4.25-4.29,4.25C88.21,22.53,86.58,21.21,86.58,18.35"/>
		<path class="st3" d="M98.99,13.21h3.53c3.27,0,5.17,1.88,5.17,4.52v0.03c0,2.64-1.92,4.6-5.22,4.6h-3.48
			C98.99,22.36,98.99,13.21,98.99,13.21z M102.56,20.11c1.52,0,2.52-0.84,2.52-2.31v-0.03c0-1.46-1.01-2.31-2.52-2.31h-1.03v4.66
			h1.03V20.11z"/>
		<polygon class="st3" points="111.37,13.21 118.7,13.21 118.7,15.43 113.91,15.43 113.91,16.99 118.24,16.99 118.24,19.09 
			113.91,19.09 113.91,22.36 111.37,22.36 		"/>
		<polygon class="st3" points="122.23,13.21 124.76,13.21 124.76,20.14 129.2,20.14 129.2,22.36 122.23,22.36 		"/>
		<path class="st3" d="M135.83,13.14h2.44l3.9,9.22h-2.72l-0.67-1.63h-3.53l-0.65,1.63h-2.67L135.83,13.14z M138.05,18.75l-1.02-2.6
			l-1.03,2.6H138.05z"/>
		<path class="st3" d="M145.44,13.21h4.33c1.4,0,2.37,0.37,2.98,0.99c0.54,0.52,0.81,1.23,0.81,2.13v0.03c0,1.4-0.75,2.33-1.88,2.81
			l2.18,3.19h-2.93l-1.84-2.77h-1.11v2.77h-2.54V13.21z M149.65,17.6c0.86,0,1.36-0.42,1.36-1.09v-0.03c0-0.72-0.52-1.09-1.37-1.09
			h-1.66v2.2h1.67V17.6z"/>
		<polygon class="st3" points="157.22,13.21 164.58,13.21 164.58,15.37 159.73,15.37 159.73,16.75 164.12,16.75 164.12,18.75 
			159.73,18.75 159.73,20.21 164.65,20.21 164.65,22.36 157.22,22.36 		"/>
		<path class="st3" d="M58.46,18.89c-0.35,0.8-1.1,1.37-2.1,1.37c-1.39,0-2.34-1.15-2.34-2.47v-0.03c0-1.32,0.93-2.45,2.31-2.45
			c1.04,0,1.84,0.64,2.18,1.52h2.67c-0.43-2.18-2.34-3.81-4.83-3.81c-2.82,0-4.94,2.13-4.94,4.76v0.03c0,2.63,2.09,4.73,4.92,4.73
			c2.42,0,4.3-1.56,4.8-3.66L58.46,18.89L58.46,18.89z"/>
	</g>
</g>
</svg>
