<?xml version="1.0" encoding="utf-8"?>
<!-- Generator: Adobe Illustrator 27.5.0, SVG Export Plug-In . SVG Version: 6.00 Build 0)  -->
<svg version="1.1" xmlns="http://www.w3.org/2000/svg" xmlns:xlink="http://www.w3.org/1999/xlink" x="0px" y="0px"
	 viewBox="0 0 130 30" style="enable-background:new 0 0 130 30;" xml:space="preserve">
<style type="text/css">
	.st0{display:none;}
	.st1{display:inline;}
	.st2{opacity:0.66;}
	.st3{fill:#FFFFFF;}
</style>
<g id="Calque_2" class="st0">
	<rect x="-25" class="st1" width="180" height="30"/>
</g>
<g id="Calque_1">
	<g class="st2">
		<path class="st3" d="M22.89,8.42l-6.2,3.95l6.2,3.95l-6.2,3.95l-6.2-3.95l6.2-3.95l-6.2-3.95l6.2-3.95L22.89,8.42z M16.67,21.58
			l6.2-3.95l6.2,3.95l-6.2,3.95L16.67,21.58z M22.89,16.32l6.2-3.95l-6.2-3.95l6.2-3.95l6.2,3.95l-6.2,3.95l6.2,3.95l-6.2,3.95
			L22.89,16.32z"/>
		<path class="st3" d="M40.16,8.42h5.02c3.21,0,5.83,1.86,5.83,6.09v0.9c0,4.25-2.47,6.17-5.76,6.17h-5.1V8.42z M42.96,10.8v8.36
			h2.16c1.81,0,3.05-1.2,3.05-3.84v-0.68c0-2.64-1.27-3.84-3.14-3.84H42.96z M52.51,10.93h2.23l0.35,2.47
			c0.42-1.7,1.51-2.57,3.49-2.57h0.68v2.82h-1.14c-2.29,0-2.84,0.79-2.84,3.05v4.87h-2.77V10.93z M59.86,16.49v-0.3
			c0-3.58,2.29-5.5,5.39-5.5c3.18,0,5.37,1.96,5.37,5.5v0.3c0,3.51-2.16,5.37-5.37,5.37C61.81,21.86,59.86,19.99,59.86,16.49z
			 M67.81,16.45v-0.26c0-1.99-1-3.16-2.57-3.16c-1.55,0-2.58,1.09-2.58,3.16v0.26c0,1.92,0.98,2.99,2.57,2.99
			C66.82,19.44,67.81,18.39,67.81,16.45z M72.08,10.93h2.33l0.28,2.03c0.57-1.37,1.75-2.27,3.51-2.27c2.71,0,4.49,1.96,4.49,5.54
			v0.3c0,3.51-1.98,5.34-4.49,5.34c-1.7,0-2.82-0.76-3.4-1.99v5.37h-2.71V10.93z M79.87,16.47v-0.24c0-2.12-1.09-3.18-2.55-3.18
			c-1.55,0-2.58,1.18-2.58,3.16v0.2c0,1.88,1,3.06,2.53,3.06C78.85,19.48,79.87,18.42,79.87,16.47z M86.75,19.64l-0.22,1.94h-2.4
			V7.37h2.71v5.46c0.59-1.38,1.77-2.14,3.45-2.14c2.53,0.02,4.41,1.77,4.41,5.32v0.31c0,3.54-1.77,5.54-4.49,5.54
			C88.47,21.86,87.33,21.01,86.75,19.64z M91.92,16.32v-0.26c0-1.96-1.07-3.03-2.55-3.03c-1.53,0-2.58,1.24-2.58,3.06v0.22
			c0,1.99,1.02,3.14,2.55,3.14C90.95,19.46,91.92,18.42,91.92,16.32z M95.95,16.49v-0.3c0-3.58,2.27-5.5,5.37-5.5
			c3.18,0,5.39,1.96,5.39,5.5v0.3c0,3.51-2.18,5.37-5.39,5.37C97.89,21.86,95.95,19.99,95.95,16.49z M103.91,16.45v-0.26
			c0-1.99-1-3.16-2.57-3.16c-1.55,0-2.58,1.09-2.58,3.16v0.26c0,1.92,0.98,2.99,2.57,2.99C102.93,19.44,103.91,18.39,103.91,16.45z
			 M110.33,16.06l-3.73-5.13h3.19l2.16,3.19l2.18-3.19h3.18l-3.78,5.11l3.99,5.54h-3.14l-2.46-3.53l-2.38,3.53h-3.25L110.33,16.06z"
			/>
	</g>
</g>
</svg>
