<?xml version="1.0" encoding="utf-8"?>
<!-- Generator: Adobe Illustrator 27.5.0, SVG Export Plug-In . SVG Version: 6.00 Build 0)  -->
<svg version="1.1" id="Calque_1" xmlns="http://www.w3.org/2000/svg" xmlns:xlink="http://www.w3.org/1999/xlink" x="0px" y="0px"
	 viewBox="0 0 160 30" style="enable-background:new 0 0 160 30;" xml:space="preserve">
<style type="text/css">
	.st0{display:none;}
	.st1{display:inline;}
	.st2{opacity:0.66;}
	.st3{fill:#FFFFFF;}
	.st4{enable-background:new    ;}
</style>
<g id="Calque_2_00000116955496845833267220000003914860160236117654_" class="st0">
	<rect x="-10" class="st1" width="180" height="30"/>
</g>
<g id="Calque_1_00000057840463714630969150000017759050818898592941_">
	<g class="st2">
		<path class="st3" d="M28.68,2.89l5.84,2.36v18.93l-5.9,2.36l-9.38-9.33l-5.95,4.61l-2.36-1.18V8.79l2.36-1.13l5.95,4.66
			L28.68,2.89z M13.29,11.2v7.19l3.53-3.64L13.29,11.2z M22.51,14.74l6.11,4.82V9.91L22.51,14.74z"/>
		<g class="st4">
			<path class="st3" d="M53.94,7.57l-5.28,14.26h-1.84L41.65,7.57h1.86l3.94,11.31c0.12,0.36,0.22,0.78,0.28,1.26h0.04
				c0.05-0.4,0.16-0.83,0.33-1.28l4.02-11.28L53.94,7.57L53.94,7.57z"/>
			<path class="st3" d="M56,9.06c-0.29,0-0.54-0.1-0.75-0.3c-0.2-0.2-0.31-0.45-0.31-0.75s0.11-0.56,0.31-0.76s0.45-0.3,0.75-0.3
				c0.3,0,0.55,0.1,0.76,0.3c0.2,0.2,0.31,0.45,0.31,0.76c0,0.29-0.11,0.54-0.31,0.75C56.55,8.96,56.29,9.06,56,9.06z M56.79,21.82
				h-1.63V11.65h1.63V21.82z"/>
			<path class="st3" d="M58.86,21.46v-1.75c0.89,0.66,1.87,0.99,2.93,0.99c1.43,0,2.15-0.48,2.15-1.43c0-0.28-0.06-0.51-0.19-0.69
				s-0.28-0.36-0.5-0.51c-0.2-0.14-0.45-0.28-0.74-0.39s-0.59-0.24-0.91-0.36c-0.45-0.18-0.84-0.36-1.19-0.54
				c-0.34-0.19-0.62-0.39-0.85-0.61c-0.23-0.23-0.4-0.49-0.52-0.78c-0.12-0.29-0.18-0.63-0.18-1.02c0-0.48,0.11-0.9,0.33-1.27
				c0.22-0.36,0.51-0.68,0.87-0.92c0.36-0.25,0.78-0.44,1.25-0.56c0.47-0.12,0.95-0.19,1.45-0.19c0.88,0,1.67,0.15,2.36,0.45v1.65
				c-0.75-0.49-1.61-0.74-2.58-0.74c-0.3,0-0.58,0.04-0.83,0.11c-0.25,0.07-0.45,0.17-0.63,0.29c-0.18,0.12-0.31,0.28-0.41,0.45
				c-0.1,0.18-0.14,0.37-0.14,0.59c0,0.27,0.04,0.49,0.14,0.67c0.1,0.18,0.24,0.34,0.43,0.48c0.19,0.14,0.41,0.27,0.68,0.37
				c0.27,0.12,0.57,0.23,0.91,0.36c0.45,0.17,0.85,0.35,1.22,0.53c0.36,0.19,0.67,0.39,0.91,0.61c0.25,0.23,0.44,0.49,0.59,0.79
				c0.13,0.3,0.2,0.66,0.2,1.07c0,0.51-0.11,0.94-0.33,1.31s-0.52,0.68-0.89,0.92c-0.37,0.25-0.8,0.43-1.28,0.55
				c-0.48,0.12-0.99,0.18-1.52,0.18C60.54,22.06,59.63,21.87,58.86,21.46z"/>
			<path class="st3" d="M75.74,21.82h-1.63v-1.61h-0.04c-0.68,1.23-1.72,1.85-3.14,1.85c-2.42,0-3.64-1.45-3.64-4.33v-6.08h1.62
				v5.83c0,2.15,0.82,3.22,2.47,3.22c0.8,0,1.45-0.29,1.96-0.88c0.52-0.59,0.77-1.35,0.77-2.3v-5.86h1.63V21.82z"/>
			<path class="st3" d="M85.7,21.82h-1.63v-1.59h-0.04c-0.71,1.22-1.75,1.83-3.14,1.83c-1.01,0-1.8-0.27-2.38-0.81
				c-0.58-0.53-0.86-1.25-0.86-2.14c0-1.9,1.12-3.01,3.36-3.32l3.06-0.43c0-1.73-0.7-2.59-2.1-2.59c-1.23,0-2.34,0.42-3.32,1.25
				v-1.67c1-0.64,2.15-0.95,3.46-0.95c2.39,0,3.59,1.27,3.59,3.8C85.7,15.21,85.7,21.82,85.7,21.82z M84.07,16.68l-2.45,0.34
				c-0.75,0.11-1.32,0.29-1.71,0.56s-0.58,0.75-0.58,1.43c0,0.5,0.18,0.91,0.53,1.22c0.36,0.31,0.83,0.47,1.41,0.47
				c0.81,0,1.47-0.28,2.01-0.85c0.52-0.57,0.79-1.29,0.79-2.15L84.07,16.68L84.07,16.68z"/>
			<path class="st3" d="M89.79,21.82h-1.63V6.76h1.63V21.82z"/>
		</g>
		<g class="st4">
			<path class="st3" d="M94.89,21.26v-1.97c0.22,0.2,0.5,0.38,0.81,0.53c0.31,0.16,0.65,0.29,0.99,0.4s0.69,0.2,1.05,0.26
				c0.36,0.06,0.68,0.09,0.98,0.09c1.03,0,1.79-0.19,2.3-0.57c0.51-0.38,0.76-0.93,0.76-1.64c0-0.38-0.09-0.72-0.25-1
				c-0.17-0.28-0.4-0.54-0.7-0.78c-0.3-0.24-0.65-0.46-1.06-0.68c-0.41-0.21-0.84-0.44-1.31-0.68c-0.5-0.25-0.96-0.51-1.39-0.76
				c-0.43-0.26-0.81-0.54-1.12-0.85c-0.32-0.31-0.57-0.67-0.75-1.06c-0.19-0.39-0.28-0.86-0.28-1.39c0-0.65,0.14-1.22,0.43-1.7
				S96,8.57,96.47,8.26c0.46-0.31,0.99-0.54,1.58-0.69c0.6-0.15,1.2-0.23,1.81-0.23c1.4,0,2.42,0.17,3.07,0.51v1.87
				c-0.84-0.59-1.92-0.87-3.24-0.87c-0.36,0-0.73,0.04-1.09,0.12c-0.36,0.08-0.69,0.2-0.98,0.37c-0.28,0.17-0.52,0.39-0.69,0.67
				c-0.18,0.28-0.27,0.6-0.27,0.99c0,0.36,0.07,0.68,0.2,0.94c0.13,0.27,0.34,0.51,0.6,0.73s0.59,0.44,0.97,0.64
				c0.38,0.2,0.82,0.44,1.31,0.68c0.51,0.25,0.99,0.52,1.45,0.8c0.46,0.28,0.86,0.59,1.2,0.92c0.35,0.34,0.62,0.71,0.82,1.13
				c0.2,0.41,0.3,0.88,0.3,1.41c0,0.7-0.14,1.3-0.41,1.79c-0.28,0.49-0.65,0.88-1.11,1.19c-0.47,0.3-1,0.52-1.62,0.66
				s-1.25,0.2-1.93,0.2c-0.22,0-0.51-0.02-0.83-0.05c-0.33-0.04-0.67-0.09-1.01-0.16s-0.68-0.16-0.98-0.26
				C95.32,21.5,95.08,21.38,94.89,21.26z"/>
			<path class="st3" d="M109.91,21.73c-0.38,0.21-0.89,0.32-1.52,0.32c-1.79,0-2.67-0.99-2.67-2.98v-6.02h-1.75v-1.39h1.75V9.16
				l1.63-0.52v3.01h2.57v1.39h-2.57v5.74c0,0.68,0.12,1.17,0.35,1.46c0.23,0.29,0.61,0.44,1.15,0.44c0.41,0,0.76-0.12,1.07-0.34
				L109.91,21.73L109.91,21.73z"/>
			<path class="st3" d="M120.02,21.82h-1.63v-1.61h-0.04c-0.68,1.23-1.72,1.85-3.14,1.85c-2.42,0-3.64-1.45-3.64-4.33v-6.08h1.62
				v5.83c0,2.15,0.83,3.22,2.47,3.22c0.8,0,1.45-0.29,1.96-0.88c0.52-0.59,0.77-1.35,0.77-2.3v-5.86h1.63L120.02,21.82L120.02,21.82
				z"/>
			<path class="st3" d="M131.69,21.82h-1.63v-1.73h-0.04c-0.75,1.31-1.93,1.97-3.5,1.97c-1.28,0-2.3-0.45-3.06-1.37
				c-0.76-0.91-1.15-2.15-1.15-3.72c0-1.69,0.43-3.03,1.27-4.05c0.84-1.01,1.98-1.52,3.39-1.52c1.39,0,2.42,0.55,3.06,1.65h0.04
				V6.75h1.63L131.69,21.82L131.69,21.82z M130.06,17.22v-1.5c0-0.83-0.28-1.52-0.82-2.09c-0.54-0.57-1.23-0.85-2.07-0.85
				c-0.99,0-1.78,0.36-2.34,1.09c-0.57,0.73-0.85,1.73-0.85,3.02c0,1.17,0.28,2.1,0.82,2.78c0.55,0.68,1.28,1.02,2.2,1.02
				c0.91,0,1.64-0.33,2.21-0.99C129.78,19.05,130.06,18.23,130.06,17.22z"/>
			<path class="st3" d="M135.52,9.06c-0.29,0-0.54-0.1-0.75-0.3c-0.2-0.2-0.31-0.45-0.31-0.75s0.11-0.56,0.31-0.76
				c0.2-0.2,0.45-0.3,0.75-0.3c0.3,0,0.55,0.1,0.76,0.3c0.2,0.2,0.31,0.45,0.31,0.76c0,0.29-0.11,0.54-0.31,0.75
				C136.07,8.96,135.82,9.06,135.52,9.06z M136.31,21.82h-1.63V11.65h1.63V21.82z"/>
			<path class="st3" d="M143.56,22.06c-1.5,0-2.71-0.48-3.61-1.43c-0.9-0.95-1.35-2.21-1.35-3.78c0-1.71,0.47-3.05,1.4-4.01
				s2.19-1.44,3.79-1.44c1.52,0,2.7,0.47,3.55,1.4c0.85,0.93,1.28,2.23,1.28,3.89c0,1.63-0.46,2.92-1.38,3.9
				C146.34,21.58,145.11,22.06,143.56,22.06z M143.69,12.78c-1.05,0-1.87,0.36-2.49,1.07c-0.61,0.71-0.91,1.7-0.91,2.95
				c0,1.21,0.31,2.16,0.92,2.85c0.61,0.69,1.44,1.05,2.48,1.05c1.06,0,1.87-0.34,2.43-1.02s0.85-1.65,0.85-2.91
				c0-1.27-0.28-2.26-0.85-2.94C145.55,13.13,144.73,12.78,143.69,12.78z"/>
		</g>
	</g>
</g>
</svg>
