<?xml version="1.0" encoding="utf-8"?>
<!-- Generator: Adobe Illustrator 27.5.0, SVG Export Plug-In . SVG Version: 6.00 Build 0)  -->
<svg version="1.1" xmlns="http://www.w3.org/2000/svg" xmlns:xlink="http://www.w3.org/1999/xlink" x="0px" y="0px"
	 viewBox="0 0 110 30" style="enable-background:new 0 0 110 30;" xml:space="preserve">
<style type="text/css">
	.st0{display:none;}
	.st1{display:inline;}
	.st2{fill:none;}
	.st3{opacity:0.88;fill:#FFFFFF;}
	.st4{opacity:0.66;fill:#FFFFFF;}
	.st5{opacity:0.44;fill:#FFFFFF;}
	.st6{opacity:0.22;fill:#FFFFFF;}
	.st7{opacity:0.66;}
	.st8{fill:#FFFFFF;}
</style>
<g id="Calque_2" class="st0">
	<rect x="-49.73" class="st1" width="180" height="30"/>
</g>
<g id="Calque_1">
	<g>
		<path class="st2" d="M23.38,10.48c-1.76-1.42-4.32-1.23-5.84,0.44c-0.02,0-0.04,0.01-0.06,0.03c1.32,0.26,2.52,0.98,3.36,2.07
			l-2.48,2.48c-0.22-0.47-0.59-0.85-1.07-1.07c-1.07-0.49-2.34-0.01-2.82,1.07c-0.49,1.07-0.01,2.34,1.07,2.82l0,0
			c0.28,0.13,0.58,0.19,0.88,0.19h4.27v0.02l0.01-0.01h4.27c1.18,0,2.13-0.95,2.13-2.13c0-1.18-0.95-2.13-2.13-2.13v-0.43
			c0.02-1.29-0.55-2.52-1.54-3.35h-0.06L23.38,10.48z"/>
		<path class="st3" d="M17.48,10.95c0.02-0.02,0.04-0.03,0.06-0.03c1.52-1.67,4.08-1.86,5.84-0.44l-0.01,0.01h0.06
			c-0.01-0.01-0.02-0.02-0.03-0.03l2.36-2.36l0.01-0.04c-3.18-2.81-8.04-2.51-10.85,0.67c-0.78,0.88-1.35,1.93-1.65,3.07
			c0.04-0.01,0.08-0.02,0.12-0.03c0.87-0.58,1.91-0.92,3.04-0.93C16.77,10.84,17.13,10.88,17.48,10.95z"/>
		<path class="st4" d="M28.12,11.8c-0.39-1.45-1.2-2.75-2.32-3.75l-0.04,0.04l-2.36,2.36c0.01,0.01,0.02,0.02,0.03,0.03
			c0.99,0.83,1.56,2.06,1.54,3.35v0.43c1.18,0,2.13,0.95,2.13,2.13c0,1.18-0.95,2.13-2.13,2.13h-4.27l-0.01,0.01v3.4h-0.02
			l0.03,0.03h4.27c3.07,0.02,5.57-2.44,5.6-5.51C30.57,14.58,29.66,12.84,28.12,11.8z"/>
		<path class="st5" d="M16.41,18.51c-0.3,0-0.6-0.06-0.88-0.19l-2.47,2.47l-0.01,0.02c0.97,0.73,2.15,1.12,3.36,1.12h4.25h0.02v-3.4
			v-0.02H16.41z"/>
		<path class="st6" d="M17.48,10.95c-0.35-0.07-0.71-0.11-1.07-0.11c-1.12,0.01-2.16,0.35-3.04,0.93c-1.51,1-2.5,2.72-2.49,4.66
			c0.01,1.71,0.81,3.33,2.17,4.37l0.01-0.01l2.47-2.47l0,0c-1.07-0.49-1.55-1.75-1.07-2.82c0.49-1.07,1.75-1.55,2.82-1.07
			c0.47,0.22,0.85,0.59,1.07,1.07l2.48-2.48C20,11.92,18.8,11.2,17.48,10.95z"/>
	</g>
	<g class="st7">
		<path class="st8" d="M96.13,18.7l1.76,1.17c-0.57,0.84-1.93,2.27-4.28,2.27c-2.91,0-5.09-2.26-5.09-5.12
			c0-3.06,2.2-5.12,4.84-5.12c2.67,0,3.97,2.11,4.4,3.27L98,15.74l-6.87,2.84c0.53,1.03,1.34,1.55,2.49,1.55
			C94.75,20.13,95.56,19.56,96.13,18.7z M90.75,16.86l4.58-1.9c-0.26-0.64-1.01-1.09-1.9-1.09C92.28,13.86,90.7,14.87,90.75,16.86z"
			/>
		<rect x="85.2" y="6.66" class="st8" width="2.21" height="15.02"/>
		<path class="st8" d="M81.71,12.29h2.14v9.13c0,3.78-2.24,5.35-4.88,5.35c-2.49,0-3.98-1.67-4.55-3.04l1.95-0.81
			c0.36,0.84,1.2,1.83,2.59,1.83c1.7,0,2.74-1.06,2.74-3.02v-0.74h-0.07c-0.5,0.61-1.47,1.17-2.7,1.17c-2.57,0-4.92-2.24-4.92-5.11
			c0-2.9,2.35-5.15,4.92-5.15c1.22,0,2.2,0.54,2.7,1.14h0.07V12.29z M81.87,17.03c0-1.82-1.2-3.13-2.74-3.13
			c-1.55,0-2.86,1.31-2.86,3.13c0,1.79,1.3,3.08,2.86,3.08C80.67,20.13,81.87,18.83,81.87,17.03z"/>
		<path class="st8" d="M61.88,16.99c0,2.96-2.3,5.12-5.14,5.12c-2.83,0-5.12-2.17-5.12-5.12c0-2.97,2.3-5.14,5.12-5.14
			S61.88,14.02,61.88,16.99z M59.63,16.99c0-1.84-1.34-3.11-2.89-3.11s-2.89,1.27-2.89,3.11c0,1.83,1.34,3.11,2.89,3.11
			S59.63,18.83,59.63,16.99z"/>
		<path class="st8" d="M73.09,17.02c0,2.96-2.3,5.12-5.14,5.12c-2.84,0-5.14-2.17-5.14-5.12c0-2.97,2.3-5.12,5.14-5.12
			C70.79,11.9,73.09,14.03,73.09,17.02z M70.84,17.02c0-1.84-1.34-3.11-2.89-3.11c-1.55,0-2.89,1.27-2.89,3.11
			c0,1.83,1.34,3.11,2.89,3.11C69.5,20.13,70.84,18.84,70.84,17.02z"/>
		<path class="st8" d="M43.19,19.89c-3.22,0-5.74-2.59-5.74-5.81s2.52-5.81,5.74-5.81c1.73,0,3,0.69,3.94,1.56l1.55-1.55
			c-1.3-1.25-3.05-2.2-5.48-2.2c-4.42,0-8.13,3.59-8.13,8s3.71,8,8.12,8c2.38,0,4.18-0.79,5.58-2.25c1.44-1.44,1.89-3.47,1.89-5.11
			c0-0.52-0.06-1.04-0.14-1.44h-7.34v2.14h5.23c-0.16,1.34-0.58,2.25-1.2,2.88C46.46,19.06,45.28,19.89,43.19,19.89z"/>
	</g>
</g>
</svg>
