<?xml version="1.0" encoding="utf-8"?>
<!-- Generator: Adobe Illustrator 27.5.0, SVG Export Plug-In . SVG Version: 6.00 Build 0)  -->
<svg version="1.1" xmlns="http://www.w3.org/2000/svg" xmlns:xlink="http://www.w3.org/1999/xlink" x="0px" y="0px"
	 viewBox="0 0 140 30" style="enable-background:new 0 0 140 30;" xml:space="preserve">
<style type="text/css">
	.st0{display:none;}
	.st1{display:inline;}
	.st2{opacity:0.66;}
	.st3{fill-rule:evenodd;clip-rule:evenodd;fill:#FFFFFF;}
</style>
<g id="Calque_2" class="st0">
	<rect x="-20" class="st1" width="180" height="30"/>
</g>
<g id="Calque_1">
	<g class="st2">
		<g>
			<path class="st3" d="M28.52,17.77c-0.89-0.02-1.59,0.07-2.18,0.32c-0.17,0.07-0.44,0.07-0.46,0.28c0.09,0.09,0.1,0.24,0.18,0.36
				c0.15,0.26,0.35,0.49,0.58,0.69l0.72,0.52c0.44,0.27,0.93,0.42,1.36,0.69c0.25,0.15,0.49,0.36,0.67,0.52
				c0.12,0.09,0.2,0.24,0.36,0.29V21.4c-0.08-0.1-0.1-0.25-0.18-0.36l-0.34-0.32c-0.33-0.43-0.72-0.81-1.16-1.13
				c-0.36-0.25-1.14-0.58-1.29-0.99l-0.02-0.02c0.25-0.02,0.54-0.11,0.77-0.18c0.38-0.1,0.73-0.08,1.12-0.18l0.54-0.15v-0.1
				c-0.2-0.2-0.35-0.47-0.56-0.66c-0.57-0.49-1.2-0.97-1.85-1.38c-0.35-0.22-0.79-0.37-1.16-0.56c-0.13-0.07-0.36-0.1-0.44-0.22
				c-0.2-0.25-0.32-0.57-0.46-0.86l-0.92-1.95c-0.2-0.44-0.32-0.87-0.57-1.28c-1.04-1.77-2.54-3.21-4.33-4.19
				C18.49,6.63,18,6.53,17.48,6.41l-0.84-0.05c-0.18-0.08-0.36-0.29-0.52-0.39c-0.64-0.4-2.28-1.28-2.69-0.12
				c-0.3,0.73,0.45,1.44,0.71,1.81c0.19,0.26,0.44,0.55,0.57,0.84c0.08,0.19,0.1,0.39,0.18,0.59l0.58,1.5
				c0.12,0.24,0.26,0.47,0.42,0.69c0.09,0.12,0.25,0.18,0.28,0.38c-0.15,0.22-0.17,0.56-0.26,0.84c-0.4,1.26-0.25,2.84,0.32,3.76
				c0.18,0.28,0.67,0.89,1.18,0.66c0.5-0.2,0.39-0.84,0.54-1.4c0.03-0.13,0.01-0.22,0.08-0.32v0.02l0.46,0.93
				c0.35,0.55,0.95,1.12,1.46,1.5c0.27,0.2,0.48,0.55,0.82,0.67v-0.03h-0.05c-0.07-0.1-0.17-0.15-0.26-0.22
				c-0.21-0.21-0.41-0.43-0.58-0.67c-0.47-0.64-0.89-1.32-1.26-2.04c-0.18-0.35-0.34-0.73-0.48-1.08c-0.07-0.13-0.07-0.34-0.18-0.4
				c-0.17,0.25-0.42,0.46-0.54,0.76c-0.22,0.48-0.24,1.08-0.32,1.69c-0.4-0.07-0.52-0.44-0.66-0.75c-0.34-0.79-0.39-2.08-0.1-2.99
				c0.08-0.24,0.42-0.97,0.28-1.2c-0.07-0.22-0.29-0.34-0.42-0.5c-0.15-0.22-0.3-0.48-0.4-0.72c-0.19-0.63-0.4-1.33-0.69-1.96
				c-0.13-0.29-0.37-0.58-0.56-0.85c-0.21-0.31-0.44-0.52-0.61-0.87c-0.06-0.13-0.13-0.34-0.05-0.47c0.02-0.09,0.07-0.12,0.15-0.15
				c0.15-0.12,0.56,0.03,0.71,0.1c0.42,0.17,0.76,0.32,1.11,0.56c0.15,0.11,0.32,0.32,0.52,0.38h0.24c0.36,0.08,0.76,0.02,1.1,0.12
				c0.59,0.19,1.13,0.47,1.61,0.77c1.48,0.95,2.69,2.27,3.49,3.83c0.13,0.26,0.19,0.49,0.32,0.76l0.76,1.65
				c0.24,0.52,0.46,1.06,0.79,1.5c0.17,0.24,0.84,0.36,1.14,0.48c0.22,0.1,0.57,0.19,0.77,0.32l1.12,0.76
				c0.18,0.13,0.67,0.42,0.77,0.64L28.52,17.77z"/>
			<path class="st3" d="M17.09,8.03c-0.19,0-0.32,0.02-0.46,0.05v0.02h0.02c0.09,0.18,0.25,0.3,0.36,0.46l0.26,0.54l0.02-0.02
				c0.15-0.11,0.24-0.29,0.24-0.56c-0.07-0.08-0.08-0.15-0.13-0.24C17.32,8.17,17.17,8.12,17.09,8.03L17.09,8.03z"/>
		</g>
		<path class="st3" d="M76.53,20.69h9.64c1.13,0,2.2-0.23,3.08-0.64c1.46-0.67,2.15-1.57,2.15-2.74v-2.46
			c0-0.94-0.79-1.85-2.38-2.46c-0.91-0.32-1.87-0.49-2.84-0.48h-4.05c-1.36,0-2-0.4-2.18-1.3c-0.03-0.1-0.03-0.2-0.03-0.31V8.78
			c0-0.08,0-0.18,0.03-0.28c0.18-0.69,0.54-0.87,1.72-1.01h9.87V5.26h-9.39c-1.36,0-2.08,0.08-2.72,0.28
			c-1.98,0.6-2.84,1.59-2.84,3.31v1.95c0,1.51,1.69,2.8,4.57,3.09c0.31,0.03,0.64,0.03,0.97,0.03h3.46c0.13,0,0.26,0,0.36,0.03
			c1.05,0.1,1.51,0.28,1.81,0.67c0.2,0.2,0.26,0.38,0.26,0.62v1.95c0,0.23-0.15,0.54-0.47,0.79c-0.32,0.26-0.79,0.44-1.44,0.47
			c-0.13,0-0.2,0.03-0.34,0.03h-9.25L76.53,20.69z M112.25,16.82c0,2.28,1.72,3.56,5.15,3.82l0.97,0.05h8.71v-2.22h-8.78
			c-2.02,0-2.69-0.48-2.69-1.67V5.26h-3.36L112.25,16.82L112.25,16.82z M93.52,16.92V8.98c0-2.02,1.43-3.25,4.23-3.63l0.89-0.05H105
			c0.34,0,0.62,0.03,0.94,0.05c2.8,0.38,4.2,1.61,4.2,3.63v7.94c0,1.64-0.59,2.51-1.98,3.09l3.28,2.97h-3.87l-2.67-2.41l-2.69,0.15
			h-3.59c-0.59,0-1.26-0.07-2.02-0.26c-2.12-0.59-3.18-1.72-3.18-3.56L93.52,16.92z M97.13,16.74c0,0.1,0.05,0.2,0.08,0.34
			c0.18,0.92,1.05,1.43,2.38,1.43h3.02L99.85,16h3.87l2.43,2.2c0.47-0.26,0.74-0.62,0.85-1.08c0.03-0.1,0.03-0.23,0.03-0.34V9.19
			c0-0.1,0-0.2-0.03-0.31c-0.18-0.87-1.05-1.36-2.35-1.36h-5.04c-1.48,0-2.46,0.64-2.46,1.67L97.13,16.74z"/>
		<path class="st3" d="M32.05,20.7h3.33V7.5l5.2,11.51c0.59,1.38,1.44,1.9,3.08,1.9c1.64,0,2.43-0.51,3.05-1.9L51.88,7.5v13.2h3.36
			V7.5c0-1.28-0.51-1.9-1.59-2.23c-2.53-0.77-4.23-0.1-5,1.61l-5.11,11.38L38.63,6.88c-0.74-1.71-2.46-2.38-5.02-1.61
			c-1.05,0.34-1.57,0.94-1.57,2.23C32.05,7.5,32.05,20.7,32.05,20.7z M58.01,9.96h3.36v7.26c-0.03,0.4,0.13,1.33,2.02,1.36h7.2V9.91
			h3.36v11.86c0,2.92-3.62,3.56-5.31,3.59H58.09v-2.23h10.58c2.15-0.23,1.9-1.3,1.9-1.67v-0.87h-7.1c-3.31-0.03-5.43-1.48-5.46-3.16
			C58.01,17.43,58.01,9.96,58.01,9.96z"/>
	</g>
</g>
</svg>
