<?xml version="1.0" encoding="utf-8"?>
<!-- Generator: Adobe Illustrator 25.3.1, SVG Export Plug-In . SVG Version: 6.00 Build 0)  -->
<svg version="1.1" id="Fill_Outline" xmlns="http://www.w3.org/2000/svg" xmlns:xlink="http://www.w3.org/1999/xlink" x="0px"
	 y="0px" viewBox="0 0 64 64" enable-background="new 0 0 64 64" xml:space="preserve">
<g id="Color">
	<g>
		<g>
			<circle fill="#84D2F4" cx="32" cy="32" r="25"/>
			<path fill="#57B7EB" d="M55.72,39.9C52.42,49.84,43.05,57,32,57C18.19,57,7,45.81,7,32c0-8.74,4.48-16.43,11.28-20.9
				C17.45,13.58,17,16.24,17,19c0,13.81,11.19,25,25,25C47.06,44,51.78,42.49,55.72,39.9z"/>
			<path fill="#A1D51C" d="M24,35l-4,3l5,3l-2,5l2,1l-2.24,8.23c-6.97-2.77-12.4-8.59-14.64-15.81L14,37l-2-3v-5l-4.41-2.41
				c1.9-8.66,8.3-15.63,16.62-18.35L30,15l-4,5l5,5l-11,4l5,2L24,35z"/>
			<path fill="#A1D51C" d="M39.72,8.22L36,14l-4-3l-1.08-3.97C31.28,7.01,31.64,7,32,7C34.69,7,37.29,7.43,39.72,8.22z"/>
			<path fill="#7AB92D" d="M40,50v5.69C37.49,56.54,34.8,57,32,57c-1.45,0-2.87-0.12-4.26-0.37L29,52L40,50z"/>
			<path fill="#A1D51C" d="M57,32c0,6.63-2.59,12.68-6.81,17.15L36,32l4-4v-4l5-1l-5-5l7.03-5.98C53.09,16.58,57,23.83,57,32z"/>
			<polygon fill="#A1D51C" points="31,33 28,37 29,44 32,44 32,40 35,37 			"/>
			<path fill="#7AB92D" d="M23,46l2,1l-2.24,8.23c-6.97-2.77-12.4-8.59-14.64-15.81L14,37l-2-3v-5l-4.41-2.41
				c1.42-6.46,5.34-11.98,10.69-15.49C17.45,13.58,17,16.24,17,19c0,6.34,2.37,12.15,6.27,16.55L20,38l5,3L23,46z"/>
			<path fill="#7AB92D" d="M55.72,39.9c-1.16,3.49-3.07,6.64-5.53,9.25l-4.49-5.43C49.36,43.19,52.76,41.85,55.72,39.9z"/>
			<path fill="#7AB92D" d="M32,41.92V44h-3l-0.57-4.01C29.56,40.73,30.75,41.37,32,41.92z"/>
		</g>
		<g>
			<circle fill="#4891D3" cx="53" cy="11" r="8"/>
			<path fill="#2D72BC" d="M59.76,15.26C58.36,17.51,55.85,19,53,19c-4.42,0-8-3.58-8-8c0-2.85,1.49-5.36,3.74-6.76
				C47.95,5.47,47.5,6.93,47.5,8.5c0,4.42,3.58,8,8,8C57.07,16.5,58.53,16.05,59.76,15.26z"/>
			<circle fill="#F9E109" cx="53" cy="10" r="3"/>
			<path fill="#F9E109" d="M56,16v2.42C55.07,18.79,54.06,19,53,19s-2.07-0.21-3-0.58V16c0-1.66,1.34-3,3-3
				c0.83,0,1.58,0.34,2.12,0.88C55.66,14.42,56,15.17,56,16z"/>
			<path fill="#FCBC04" d="M56,16.48v1.94C55.07,18.79,54.06,19,53,19s-2.07-0.21-3-0.58V16c0-0.5,0.12-0.98,0.34-1.39
				c1.39,1.18,3.19,1.89,5.16,1.89C55.67,16.5,55.84,16.49,56,16.48z"/>
			<path fill="#FCBC04" d="M55.24,11.98C54.7,12.61,53.9,13,53,13c-1.66,0-3-1.34-3-3c0-1.58,1.21-2.87,2.76-2.98
				C52.29,7.55,52,8.24,52,9c0,1.66,1.34,3,3,3C55.08,12,55.16,12,55.24,11.98z"/>
		</g>
		<g>
			<circle fill="#4891D3" cx="11" cy="51" r="8"/>
			<path fill="#2D72BC" d="M17.76,55.26C16.36,57.51,13.85,59,11,59c-4.42,0-8-3.58-8-8c0-2.85,1.49-5.36,3.74-6.76
				C5.95,45.47,5.5,46.93,5.5,48.5c0,4.42,3.58,8,8,8C15.07,56.5,16.53,56.05,17.76,55.26z"/>
			<circle fill="#F9E109" cx="11" cy="50" r="3"/>
			<path fill="#F9E109" d="M14,56v2.42C13.07,58.79,12.06,59,11,59s-2.07-0.21-3-0.58V56c0-1.66,1.34-3,3-3
				c0.83,0,1.58,0.34,2.12,0.88C13.66,54.42,14,55.17,14,56z"/>
			<path fill="#FCBC04" d="M14,56.48v1.94C13.07,58.79,12.06,59,11,59s-2.07-0.21-3-0.58V56c0-0.5,0.12-0.98,0.34-1.39
				c1.39,1.18,3.19,1.89,5.16,1.89C13.67,56.5,13.84,56.49,14,56.48z"/>
			<path fill="#FCBC04" d="M13.24,51.98C12.7,52.61,11.9,53,11,53c-1.66,0-3-1.34-3-3c0-1.58,1.21-2.87,2.76-2.98
				C10.29,47.55,10,48.24,10,49c0,1.66,1.34,3,3,3C13.08,52,13.16,52,13.24,51.98z"/>
		</g>
		<g>
			<circle fill="#4891D3" cx="15" cy="15" r="8"/>
			<path fill="#2D72BC" d="M21.76,19.26C20.36,21.51,17.85,23,15,23c-4.42,0-8-3.58-8-8c0-2.85,1.49-5.36,3.74-6.76
				C9.95,9.47,9.5,10.93,9.5,12.5c0,4.42,3.58,8,8,8C19.07,20.5,20.53,20.05,21.76,19.26z"/>
			<circle fill="#F9E109" cx="15" cy="14" r="3"/>
			<path fill="#F9E109" d="M18,20v2.42C17.07,22.79,16.06,23,15,23s-2.07-0.21-3-0.58V20c0-1.66,1.34-3,3-3
				c0.83,0,1.58,0.34,2.12,0.88C17.66,18.42,18,19.17,18,20z"/>
			<path fill="#FCBC04" d="M18,20.48v1.94C17.07,22.79,16.06,23,15,23s-2.07-0.21-3-0.58V20c0-0.5,0.12-0.98,0.34-1.39
				c1.39,1.18,3.19,1.89,5.16,1.89C17.67,20.5,17.84,20.49,18,20.48z"/>
			<path fill="#FCBC04" d="M17.24,15.98C16.7,16.61,15.9,17,15,17c-1.66,0-3-1.34-3-3c0-1.58,1.21-2.87,2.76-2.98
				C14.29,11.55,14,12.24,14,13c0,1.66,1.34,3,3,3C17.08,16,17.16,16,17.24,15.98z"/>
		</g>
		<g>
			<circle fill="#4891D3" cx="48" cy="48" r="13"/>
			<path fill="#2D72BC" d="M57.64,56.72C55.26,59.35,51.82,61,48,61c-7.18,0-13-5.82-13-13c0-5.16,3.01-9.62,7.36-11.72
				C40.28,38.58,39,41.64,39,45c0,7.18,5.82,13,13,13C54.02,58,55.93,57.54,57.64,56.72z"/>
			<path fill="#84D2F4" d="M54,56v3.53C52.2,60.47,50.16,61,48,61s-4.2-0.53-6-1.47V56c0-2.21,1.79-4,4-4h4C52.21,52,54,53.79,54,56
				z"/>
			<polygon fill="#FCBC04" points="50,54 47.965,56 46,54 46,50 50,50 			"/>
			<path fill="#84D2F4" d="M52,44h-8v-4h4C50.209,40,52,41.791,52,44L52,44z"/>
			<path fill="#57B7EB" d="M54,57.85v1.68C52.2,60.47,50.16,61,48,61s-4.2-0.53-6-1.47V56c0-0.75,0.21-1.46,0.57-2.06
				C44.93,56.44,48.29,58,52,58C52.68,58,53.35,57.95,54,57.85z"/>
			<path fill="#E59730" d="M50,51.63c-0.66,0.75-1.6,1.25-2.66,1.34C48.05,53.6,48.97,54,50,54l-2.04,2L46,54v-4h4V51.63z"/>
			<path fill="#F9E109" d="M48,52L48,52c-2.209,0-4-1.791-4-4v-4h8v4C52,50.209,50.209,52,48,52z"/>
			<path fill="#FCBC04" d="M46,46v1c0,2.21,1.79,4,4,4c0.25,0,0.49-0.02,0.72-0.07C50,51.59,49.05,52,48,52c-2.21,0-4-1.79-4-4v-4h8
				v2H46z"/>
			<path fill="#57B7EB" d="M52,44h-8v-4h1.18c0.4,1.17,1.51,2,2.82,2h3.46C51.8,42.59,52,43.27,52,44z"/>
		</g>
	</g>
</g>
<g id="Outline_copy">
	<g>
		<path fill="#39519D" d="M30.2,32.4l-3,4c-0.159,0.212-0.228,0.479-0.19,0.742l1,7C28.081,44.634,28.502,45,29,45h3
			c0.552,0,1-0.448,1-1v-3.586l2.707-2.707c0.391-0.391,0.391-1.023,0-1.414l-4-4c-0.205-0.206-0.493-0.312-0.778-0.291
			C30.64,32.023,30.374,32.168,30.2,32.4z M33.586,37l-2.293,2.293C31.105,39.48,31,39.735,31,40v3h-1.133l-0.819-5.731l2.06-2.746
			L33.586,37z"/>
		<path fill="#39519D" d="M59.755,42.382c-0.515,0.199-0.771,0.778-0.572,1.293C59.725,45.077,60,46.532,60,48
			c0,4.003-1.978,7.546-5,9.727V56c0-2.154-1.377-3.977-3.29-4.679C52.503,50.435,53,49.279,53,48v-4c0-2.757-2.243-5-5-5h-4
			c-0.552,0-1,0.448-1,1v8c0,1.275,0.494,2.427,1.282,3.311c-1.737,0.635-3.037,2.199-3.252,4.134
			c-0.061,0.549,0.335,1.043,0.884,1.104c0.038,0.004,0.075,0.006,0.112,0.006c0.503,0,0.936-0.378,0.993-0.89
			c0.13-1.171,0.924-2.114,1.981-2.487V54c0,0.262,0.103,0.514,0.287,0.701L47,56.445v3.504C40.851,59.438,36,54.279,36,48
			c0-6.617,5.383-12,12-12c3.642,0,7.047,1.631,9.341,4.476c0.347,0.43,0.977,0.498,1.406,0.15c0.43-0.347,0.497-0.976,0.15-1.406
			c-0.467-0.579-0.986-1.098-1.526-1.588C57.781,35.779,58,33.889,58,32c0-3.257-0.596-6.436-1.771-9.446
			c-0.201-0.515-0.78-0.77-1.295-0.568c-0.514,0.201-0.769,0.781-0.568,1.295C55.45,26.059,56,28.992,56,32
			c0,1.427-0.13,2.856-0.384,4.267C53.375,34.807,50.749,34,48,34c-2.686,0-5.19,0.774-7.323,2.091l-3.327-4.027l0.057-0.057
			c0.391-0.391,0.391-1.023,0-1.414s-1.023-0.391-1.414,0l-0.7,0.7c-0.365,0.364-0.392,0.946-0.064,1.344l3.814,4.616
			C35.964,39.823,34,43.685,34,48c0,0.696,0.068,1.375,0.166,2.044l-5.345,0.972c-0.379,0.069-0.685,0.35-0.786,0.721L27.02,55.47
			c-1.036-0.219-2.059-0.498-3.056-0.854l2.001-7.354c0.125-0.46-0.091-0.944-0.518-1.157l-1.177-0.588l1.659-4.146
			c0.182-0.456,0.007-0.977-0.414-1.229l-3.725-2.235L24.6,35.8c0.184-0.138,0.314-0.334,0.37-0.557l1-4
			c0.121-0.485-0.134-0.985-0.599-1.171l-2.568-1.027l8.538-3.104c0.314-0.115,0.547-0.379,0.627-0.702
			c3.702,1.396,6.935,3.92,9.2,7.317C41.361,32.844,41.678,33,42.001,33c0.19,0,0.383-0.054,0.554-0.168
			c0.459-0.306,0.583-0.927,0.277-1.387c-3.038-4.558-7.656-7.692-12.866-8.893l-2.626-2.626l3.441-4.301
			c0.3-0.375,0.291-0.91-0.021-1.275L25.98,8.77C27.931,8.264,29.941,8,32,8c2.09,0,4.155,0.28,6.152,0.809l-2.411,3.746L32.6,10.2
			c-0.442-0.333-1.069-0.241-1.4,0.2c-0.332,0.442-0.242,1.069,0.2,1.4l4,3c0.174,0.131,0.385,0.2,0.6,0.2
			c0.059,0,0.118-0.005,0.177-0.016c0.273-0.049,0.514-0.21,0.664-0.443l3.295-5.121c1.341,0.483,2.635,1.095,3.876,1.814
			c0.016,0.633,0.099,1.248,0.24,1.843l-4.899,4.161c-0.213,0.181-0.34,0.442-0.352,0.722c-0.012,0.279,0.094,0.55,0.292,0.748
			l3.679,3.679l-3.168,0.634c-0.542,0.108-0.893,0.635-0.784,1.177C39.114,24.671,39.532,25,39.999,25
			c0.065,0,0.131-0.006,0.197-0.02l5-1c0.361-0.072,0.654-0.338,0.761-0.691c0.107-0.353,0.011-0.736-0.25-0.997l-4.233-4.233
			l3.513-2.984C46.477,17.994,49.506,20,53,20c4.962,0,9-4.038,9-9c0-1.6-0.434-3.179-1.253-4.566
			c-0.281-0.476-0.895-0.633-1.37-0.352c-0.476,0.281-0.633,0.894-0.352,1.37C59.663,8.531,60,9.758,60,11
			c0,2.373-1.189,4.47-3,5.736V16c0-1.067-0.417-2.071-1.173-2.827c-0.065-0.065-0.141-0.113-0.21-0.173
			C56.457,12.266,57,11.2,57,10c0-2.206-1.794-4-4-4s-4,1.794-4,4c0,1.2,0.542,2.266,1.382,3C49.542,13.734,49,14.8,49,16v0.736
			c-1.244-0.87-2.193-2.131-2.666-3.605c0-0.001-0.001-0.001-0.001-0.002C46.118,12.457,46,11.742,46,11c0-3.86,3.14-7,7-7
			c1.242,0,2.469,0.337,3.549,0.975c0.476,0.28,1.088,0.123,1.37-0.353c0.281-0.476,0.123-1.089-0.353-1.37
			C56.178,2.433,54.599,2,53,2c-4.294,0-7.89,3.025-8.782,7.054c-1.368-0.729-2.796-1.324-4.265-1.796
			c-0.026-0.006-0.049-0.02-0.075-0.024C37.344,6.43,34.691,6,32,6c-3.808,0-7.467,0.815-10.897,2.405C19.497,6.917,17.356,6,15,6
			c-1.599,0-3.178,0.433-4.566,1.252C9.958,7.533,9.8,8.146,10.081,8.622c0.281,0.475,0.894,0.633,1.37,0.353
			C12.531,8.337,13.758,8,15,8c3.86,0,7,3.14,7,7c0,2.373-1.189,4.47-3,5.736V20c0-1.2-0.542-2.266-1.382-3
			C18.458,16.266,19,15.2,19,14c0-2.206-1.794-4-4-4s-4,1.794-4,4c0,1.2,0.543,2.266,1.383,3c-0.068,0.06-0.145,0.108-0.21,0.173
			C11.417,17.929,11,18.933,11,20v0.736C9.189,19.47,8,17.373,8,15c0-1.242,0.337-2.469,0.975-3.549
			c0.281-0.476,0.124-1.089-0.352-1.37c-0.477-0.28-1.089-0.123-1.37,0.352C6.434,11.821,6,13.4,6,15
			c0,2.356,0.917,4.497,2.405,6.103C6.815,24.533,6,28.192,6,32c0,3.643,0.743,7.152,2.199,10.452C4.605,43.633,2,47.016,2,51
			c0,4.962,4.038,9,9,9s9-4.038,9-9c0-1.6-0.434-3.179-1.253-4.566c-0.281-0.476-0.895-0.633-1.37-0.352
			c-0.476,0.281-0.633,0.894-0.352,1.37C17.663,48.531,18,49.758,18,51c0,2.373-1.189,4.47-3,5.736V56
			c0-1.067-0.417-2.071-1.173-2.827c-0.065-0.065-0.141-0.113-0.21-0.173C14.457,52.266,15,51.2,15,50c0-2.206-1.794-4-4-4
			s-4,1.794-4,4c0,1.2,0.542,2.266,1.382,3C7.542,53.734,7,54.8,7,56v0.736C5.189,55.47,4,53.373,4,51c0-3.86,3.14-7,7-7
			c1.242,0,2.469,0.337,3.549,0.975c0.476,0.28,1.088,0.123,1.37-0.353c0.281-0.476,0.123-1.089-0.353-1.37
			C14.178,42.433,12.599,42,11,42c-0.266,0-0.529,0.017-0.789,0.04c-0.312-0.675-0.597-1.358-0.844-2.052l5.013-2.063
			c0.277-0.114,0.489-0.346,0.576-0.633s0.042-0.597-0.125-0.847L13,33.697V29c0-0.366-0.2-0.702-0.521-0.877l-3.736-2.042
			c0.314-1.231,0.722-2.439,1.234-3.616C11.413,23.433,13.142,24,15,24c4.962,0,9-4.038,9-9c0-1.858-0.567-3.587-1.536-5.022
			c0.472-0.205,0.947-0.398,1.428-0.571l4.81,5.616l-3.483,4.354c-0.318,0.398-0.287,0.971,0.074,1.332l1.346,1.346
			C26.156,22.02,25.672,22,25.184,22H24c-0.552,0-1,0.448-1,1s0.448,1,1,1h1.184c1.285,0,2.549,0.133,3.782,0.379l0.217,0.217
			l-9.524,3.463c-0.39,0.142-0.651,0.509-0.658,0.924c-0.006,0.415,0.244,0.79,0.628,0.944l4.19,1.676l-0.703,2.809L19.4,37.2
			c-0.266,0.2-0.416,0.519-0.398,0.852c0.017,0.332,0.199,0.634,0.484,0.806l4.27,2.562l-1.684,4.209
			c-0.193,0.483,0.016,1.033,0.481,1.266l1.267,0.633l-2.025,7.441c-0.134,0.491,0.122,1.003,0.594,1.191
			C25.449,57.381,28.683,58,32,58c1.888,0,3.777-0.219,5.63-0.628C40.193,60.206,43.886,62,48,62c7.72,0,14-6.28,14-14
			c0-1.716-0.32-3.414-0.952-5.046C60.85,42.438,60.27,42.184,59.755,42.382z M51,10c0-1.103,0.897-2,2-2s2,0.897,2,2s-0.897,2-2,2
			S51,11.103,51,10z M51,16c0-1.103,0.897-2,2-2c0.533,0,1.035,0.208,1.413,0.587S55,15.467,55,16v1.705
			C54.366,17.895,53.695,18,53,18s-1.366-0.105-2-0.295V16z M9,50c0-1.103,0.897-2,2-2s2,0.897,2,2s-0.897,2-2,2S9,51.103,9,50z
			 M9,56c0-1.103,0.897-2,2-2c0.533,0,1.035,0.208,1.413,0.587S13,55.467,13,56v1.705C12.366,57.895,11.695,58,11,58
			s-1.366-0.105-2-0.295V56z M13,14c0-1.103,0.897-2,2-2s2,0.897,2,2s-0.897,2-2,2S13,15.103,13,14z M11,29.593V34
			c0,0.197,0.059,0.391,0.168,0.555l1.323,1.985l-3.709,1.526C8.268,36.101,8,34.075,8,32c0-1.312,0.11-2.604,0.316-3.874L11,29.593
			z M13,21.705V20c0-0.533,0.208-1.035,0.587-1.413S14.467,18,15,18c1.103,0,2,0.897,2,2v1.705C16.366,21.895,15.695,22,15,22
			S13.634,21.895,13,21.705z M29,55.81l0.8-2.939L34.59,52c0.386,1.292,0.955,2.503,1.675,3.609
			C33.855,56.042,31.401,56.11,29,55.81z M53,56v2.895c-1.236,0.57-2.582,0.937-4,1.055v-3.565l1.701-1.671
			C50.892,54.525,51,54.268,51,54v-0.816C52.161,53.598,53,54.698,53,56z M45,45h6v3c0,1.654-1.346,3-3,3s-3-1.346-3-3V45z
			 M47,52.899C47.323,52.965,47.658,53,48,53s0.677-0.035,1-0.101v0.682l-1.023,1.005L47,53.591V52.899z M48,41
			c1.302,0,2.402,0.839,2.816,2H45v-2H48z"/>
		<path fill="#39519D" d="M36.442,59.597c-5.48,0.929-10.867,0.245-15.793-1.881c-0.509-0.22-1.096,0.014-1.314,0.521
			c-0.219,0.507,0.015,1.096,0.521,1.314c3.763,1.624,7.759,2.448,11.877,2.448c1.662,0,3.359-0.145,5.043-0.431
			c0.545-0.092,0.911-0.608,0.819-1.153C37.503,59.871,36.984,59.502,36.442,59.597z"/>
		<path fill="#39519D" d="M4.205,42.121c0.104,0,0.21-0.017,0.314-0.051c0.524-0.173,0.809-0.739,0.635-1.264
			c-0.943-2.848-1.421-5.811-1.421-8.807c0-3.564,0.668-7.048,1.986-10.356c0.204-0.513-0.046-1.095-0.559-1.299
			C4.646,20.14,4.065,20.39,3.86,20.903c-1.412,3.544-2.128,7.278-2.128,11.096c0,3.209,0.512,6.384,1.523,9.436
			C3.395,41.854,3.785,42.121,4.205,42.121z"/>
		<path fill="#39519D" d="M21.79,5.822c6.542-2.486,13.903-2.416,20.4,0.204c0.123,0.049,0.249,0.073,0.374,0.073
			c0.396,0,0.771-0.237,0.928-0.626c0.206-0.512-0.042-1.095-0.554-1.302C35.975,1.364,28.09,1.288,21.079,3.953
			c-0.516,0.196-0.775,0.773-0.579,1.29C20.695,5.759,21.273,6.019,21.79,5.822z"/>
		<path fill="#39519D" d="M60.249,37.396c0.051,0.008,0.102,0.011,0.152,0.011c0.486,0,0.912-0.354,0.987-0.85
			c0.229-1.501,0.344-3.036,0.344-4.559c0-3.726-0.683-7.375-2.03-10.845c-0.2-0.516-0.781-0.771-1.294-0.57
			c-0.515,0.2-0.77,0.779-0.57,1.294c1.257,3.239,1.894,6.644,1.894,10.122c0,1.423-0.108,2.855-0.322,4.258
			C59.328,36.803,59.703,37.313,60.249,37.396z"/>
		<path fill="#39519D" d="M49.008,22.876l-1,8c-0.068,0.548,0.32,1.048,0.868,1.116C48.918,31.998,48.96,32,49.001,32
			c0.497,0,0.928-0.37,0.991-0.876l1-8c0.068-0.548-0.32-1.048-0.868-1.116C49.576,21.938,49.076,22.328,49.008,22.876z"/>
	</g>
</g>
</svg>
