<?xml version="1.0" encoding="utf-8"?>
<!-- Generator: Adobe Illustrator 27.5.0, SVG Export Plug-In . SVG Version: 6.00 Build 0)  -->
<svg version="1.1" id="Calque_3" xmlns="http://www.w3.org/2000/svg" xmlns:xlink="http://www.w3.org/1999/xlink" x="0px" y="0px"
	 viewBox="0 0 200 200" style="enable-background:new 0 0 200 200;" xml:space="preserve">
<style type="text/css">
	.st0{opacity:0.5;fill:#1AA395;}
	.st1{opacity:0.33;fill:#1AA395;}
	.st2{opacity:0.15;fill:#1AA395;}
</style>
<path class="st0" d="M100.72,2.07c-0.19,0-0.38,0-0.56,0c-35.75,0-66.9,19.67-83.25,48.76l27.87,48.35L100.72,2.07z"/>
<path class="st1" d="M184.61,51.29c-0.09-0.16-0.17-0.33-0.27-0.49c-17.86-30.97-50.25-49.1-83.63-48.73L72.46,51.21l56.33,0
	L184.61,51.29z"/>
<path class="st0" d="M184.85,149.44c0.09-0.16,0.2-0.31,0.29-0.47c17.9-30.95,16.46-68.95-0.54-97.67l-56.76-0.08L184.85,149.44z"/>
<path class="st1" d="M98.52,197.94c0.19,0,0.37,0.02,0.56,0.02c35.75,0.1,69.34-19.48,85.78-48.52l-29.31-50.25L98.52,197.94z"/>
<path class="st0" d="M14.01,147.15c0.09,0.16,0.17,0.33,0.26,0.49c17.84,30.98,50.79,50.66,84.17,50.32l29.4-50.8H14.01z"/>
<path class="st2" d="M16.9,50.83c-0.09,0.16-0.2,0.31-0.29,0.47c-17.83,30.99-19.65,67.16-2.59,95.85h58.45L16.9,50.83z"/>
</svg>
