<?xml version="1.0" encoding="utf-8"?>
<!-- Generator: Adobe Illustrator 27.5.0, SVG Export Plug-In . SVG Version: 6.00 Build 0)  -->
<svg version="1.1" id="Calque_3" xmlns="http://www.w3.org/2000/svg" xmlns:xlink="http://www.w3.org/1999/xlink" x="0px" y="0px"
	 viewBox="0 0 200 200" style="enable-background:new 0 0 200 200;" xml:space="preserve">
<style type="text/css">
	.st0{display:none;fill:#1AA395;}
	.st1{display:none;opacity:0.56;fill:#1AA395;enable-background:new    ;}
	.st2{fill:#1AA395;}
	.st3{fill:#172748;}
	.st4{fill:#FFFFFF;}
</style>
<path class="st0" d="M51.5,139.7c12.9-7.9,21.4-21.7,21.4-37.4c0-15.4-8.2-28.9-20.6-36.9l10.3-9.9C70.7,67.9,84.2,76,99.6,76
	c15.7,0,29.5-8.5,37.4-21.4l11.2,11.6c-12.9,7.9-21.4,21.7-21.4,37.4c0,15.4,8.2,28.9,20.6,36.9l-10.4,9.9
	c-8-12.4-21.5-20.6-36.9-20.6c-15.7,0-29.5,8.5-37.4,21.4L51.5,139.7z"/>
<circle class="st1" cx="55.1" cy="58.2" r="12.6"/>
<circle class="st1" cx="144.6" cy="58.2" r="12.6"/>
<circle class="st1" cx="55.1" cy="147.8" r="12.6"/>
<circle class="st1" cx="144.6" cy="147.8" r="12.6"/>
<g>
	<path class="st2" d="M187.9,77.8c-4.3-7.7-10.5-13.7-17.6-17.8c-0.8-0.4-1.6-0.9-2.4-1.3c-0.3-0.2-0.6-0.3-0.9-0.5
		c-0.5-0.2-0.9-0.4-1.4-0.6s-0.9-0.4-1.4-0.6c-0.3-0.1-0.6-0.2-0.9-0.3c-1.8-0.7-3.7-1.2-5.6-1.7c-0.2,0-0.4-0.1-0.5-0.1
		c-0.6-0.1-1.2-0.3-1.9-0.4c-0.2,0-0.4-0.1-0.6-0.1c-1-0.2-2-0.3-3-0.4c-0.4,0-0.8-0.1-1.1-0.1c-0.5,0-0.9-0.1-1.4-0.1s-1,0-1.5,0
		c-0.4,0-0.8,0-1.3,0c-0.2,0-0.4,0-0.6,0c-0.6,0-1.1,0-1.7,0.1c-0.2,0-0.3,0-0.5,0c-0.6,0-1.2,0.1-1.8,0.2c-0.1,0-0.1,0-0.2,0
		c-0.9,0.1-1.9,0.2-2.8,0.4c-0.3,0.1-0.7,0.1-1,0.2c-0.6,0.1-1.2,0.2-1.8,0.4c-0.4,0.1-0.7,0.2-1.1,0.3c-0.8,0.2-1.6,0.4-2.4,0.7
		c-0.5,0.2-1,0.3-1.4,0.5c-0.4,0.1-0.7,0.3-1.1,0.4c-0.5,0.2-1,0.4-1.5,0.6c-0.3,0.1-0.6,0.2-0.9,0.4c-1.3,0.6-2.5,1.2-3.7,1.9
		c-1.9,1.1-3.7,2.2-5.4,3.5l0,0c-0.7,0.6-1.5,1.2-2.2,1.8c-0.1,0.1-0.3,0.2-0.4,0.4c-0.7,0.6-1.4,1.3-2.1,1.9
		c-0.1,0.1-0.1,0.1-0.2,0.2c-0.6,0.6-1.1,1.2-1.7,1.8l0,0c10.9,4.3,19,14.2,20.5,26.2c0.2,0,0.3,0.1,0.5,0.1
		c0.4,0.1,0.9,0.2,1.3,0.3c0.7,0.2,1.3,0.4,2,0.6c0.5,0.2,1.1,0.3,1.6,0.5c0.4,0.1,0.7,0.3,1.1,0.4c0.6,0.2,1.2,0.5,1.8,0.7
		c0.2,0.1,0.5,0.2,0.7,0.3c0.9,0.4,1.8,0.8,2.6,1.3c0.1,0,0.1,0.1,0.2,0.1c0.9,0.5,1.8,1,2.6,1.5c0,0,0,0,0.1,0l0,0
		c2.6,1.6,5.1,3.5,7.4,5.6c0,0,0.1,0.1,0.2,0.1c0.4,0.4,0.9,0.8,1.3,1.3c0.1,0.1,0.3,0.3,0.4,0.4c0.3,0.3,0.6,0.7,0.9,1
		c0.2,0.3,0.5,0.5,0.7,0.8c0.2,0.2,0.4,0.5,0.6,0.7c0.3,0.4,0.6,0.8,1,1.2c0.1,0.1,0.2,0.3,0.3,0.4c0.4,0.5,0.7,1,1.1,1.5
		c0.1,0.1,0.1,0.2,0.2,0.2c0.4,0.6,0.8,1.1,1.1,1.7c0,0.1,0.1,0.2,0.1,0.2c0.4,0.6,0.7,1.2,1.1,1.8c0,0,0,0.1,0.1,0.1
		c0,0.1,0.1,0.1,0.1,0.2c0.4,0.8,0.8,1.6,1.2,2.3c0.1,0.2,0.2,0.3,0.2,0.5c0.4,0.9,0.8,1.7,1.1,2.6c0.1,0.2,0.1,0.4,0.2,0.6
		c0.2,0.7,0.5,1.3,0.7,2c0.1,0.4,0.2,0.7,0.3,1.1c0.2,0.5,0.3,1.1,0.5,1.6c0.1,0.3,0.2,0.7,0.3,1c0.2,0.8,0.4,1.7,0.5,2.5
		c0,0.3,0.1,0.5,0.1,0.8c0.1,0.7,0.2,1.3,0.3,2c0,0.2,0.1,0.5,0.1,0.7c0.2,1.9,0.3,3.8,0.3,5.7c0.2-0.1,0.4-0.2,0.5-0.3
		C192.5,129.1,200.6,100.4,187.9,77.8z"/>
	<path class="st3" d="M169.1,136.4c0-0.2-0.1-0.5-0.1-0.7c-0.1-0.7-0.2-1.3-0.3-2c0-0.3-0.1-0.5-0.1-0.8c-0.2-0.8-0.3-1.7-0.5-2.5
		c-0.1-0.3-0.2-0.7-0.3-1c-0.1-0.5-0.3-1.1-0.5-1.6c-0.1-0.4-0.2-0.7-0.3-1.1c-0.2-0.7-0.5-1.3-0.7-2c-0.1-0.2-0.1-0.4-0.2-0.6
		c-0.3-0.9-0.7-1.7-1.1-2.6c-0.1-0.2-0.2-0.3-0.2-0.5c-0.4-0.8-0.8-1.6-1.2-2.3c-0.1-0.1-0.1-0.2-0.2-0.3c-0.3-0.6-0.7-1.2-1.1-1.8
		c0-0.1-0.1-0.2-0.1-0.2c-0.4-0.6-0.7-1.2-1.1-1.7c-0.1-0.1-0.1-0.2-0.2-0.2c-0.4-0.5-0.7-1-1.1-1.5c-0.1-0.1-0.2-0.3-0.3-0.4
		c-0.3-0.4-0.6-0.8-1-1.2c-0.2-0.2-0.4-0.5-0.6-0.7c-0.2-0.3-0.5-0.5-0.7-0.8c-0.3-0.3-0.6-0.7-0.9-1c-0.1-0.1-0.3-0.3-0.4-0.4
		c-0.4-0.4-0.9-0.9-1.3-1.3c0,0-0.1-0.1-0.2-0.1c-2.2-2.1-4.7-4-7.4-5.6c0,0-0.1,0-0.1-0.1c-0.9-0.5-1.7-1-2.6-1.5
		c-0.1,0-0.1-0.1-0.2-0.1c-0.9-0.5-1.7-0.9-2.6-1.3c-0.2-0.1-0.5-0.2-0.7-0.3c-0.6-0.2-1.2-0.5-1.8-0.7c-0.4-0.1-0.7-0.3-1.1-0.4
		c-0.5-0.2-1.1-0.4-1.6-0.5c-0.7-0.2-1.3-0.4-2-0.6c-0.4-0.1-0.9-0.2-1.3-0.3c-0.2,0-0.3-0.1-0.5-0.1c0.2,1.4,0.3,2.8,0.3,4.3
		c0,10.7-5.1,20.2-13,26.1c0.1,0.4,0.2,0.7,0.3,1.1c0,0.1,0,0.1,0,0.2c0.2,0.9,0.5,1.8,0.7,2.7l0,0c2.5,11.4,0.8,23.8-5.8,34.5
		c-4.5,7.3-10.6,12.9-17.7,16.7c0.2,0.1,0.3,0.2,0.5,0.3c22.1,13.6,51.1,6.6,64.6-15.5c4.6-7.5,6.8-15.8,6.9-23.9l0,0
		C169.4,140.1,169.3,138.2,169.1,136.4z"/>
	<path class="st2" d="M120.1,127.2c0-0.1,0-0.1,0-0.2c-0.1-0.4-0.2-0.7-0.3-1.1c-5.5,4.1-12.3,6.6-19.6,6.6c-4.6,0-8.9-0.9-12.9-2.6
		c-1.8,1.9-3.7,3.6-5.8,5.3c-0.1,0.1-0.2,0.2-0.4,0.3c-0.7,0.5-1.5,1.1-2.3,1.6s-1.6,1-2.4,1.5c-0.5,0.3-0.9,0.5-1.4,0.8
		c-0.2,0.1-0.4,0.2-0.6,0.4c-0.2,0.1-0.4,0.2-0.5,0.3c-0.2,0.1-0.4,0.2-0.7,0.3c-0.5,0.2-1,0.5-1.4,0.7c-0.2,0.1-0.4,0.2-0.6,0.2
		c-0.5,0.2-1,0.4-1.6,0.6c-0.1,0-0.3,0.1-0.4,0.1c-0.6,0.2-1.2,0.4-1.9,0.6l0,0c-0.9,0.3-1.8,0.5-2.7,0.8c-0.3,0.1-0.5,0.1-0.8,0.2
		c-0.8,0.2-1.7,0.4-2.5,0.5c-0.4,0.1-0.7,0.1-1.1,0.2c-0.5,0.1-1.1,0.2-1.7,0.2c-0.5,0.1-1,0.1-1.4,0.2c-0.7,0.1-1.3,0.1-2,0.1
		c-0.5,0-1,0-1.4,0c-0.5,0-0.9,0-1.3,0c-0.7,0-1.4,0-2.2-0.1c-0.5,0-1.1-0.1-1.6-0.1c-0.4,0-0.8-0.1-1.2-0.1
		c-0.6-0.1-1.1-0.2-1.7-0.2c-0.3-0.1-0.7-0.1-1-0.2c-0.9-0.2-1.8-0.3-2.7-0.6c-0.1,0-0.1,0-0.2,0c-1-0.3-2.1-0.6-3.1-0.9
		c-0.2-0.1-0.4-0.1-0.6-0.2c-0.2-0.1-0.5-0.2-0.7-0.2c-0.4-0.1-0.7-0.3-1.1-0.4c0,0,0,0-0.1,0c-2.9-1.1-5.7-2.5-8.3-4.1
		c0,0.2,0,0.4,0,0.6c-1,25.9,19.2,47.8,45.1,48.8s47.8-19.2,48.8-45.1c0.2-4.1-0.2-8-1-11.8l0,0C120.6,128.9,120.4,128,120.1,127.2z
		"/>
	<path class="st3" d="M36.2,141.5C36.2,141.5,36.3,141.5,36.2,141.5c0.4,0.2,0.8,0.3,1.2,0.4c0.2,0.1,0.5,0.2,0.7,0.2
		c0.2,0.1,0.4,0.1,0.6,0.2c1,0.3,2,0.6,3.1,0.9c0.1,0,0.1,0,0.2,0c0.9,0.2,1.8,0.4,2.7,0.6c0.3,0.1,0.7,0.1,1,0.2
		c0.6,0.1,1.1,0.2,1.7,0.2c0.4,0,0.8,0.1,1.2,0.1c0.5,0,1.1,0.1,1.6,0.1c0.3,0,0.6,0,0.9,0.1c0.4,0,0.8,0,1.2,0c0.5,0,0.9,0,1.3,0
		c0.5,0,1,0,1.4,0c0.7,0,1.3-0.1,2-0.1c0.5,0,1-0.1,1.4-0.2c0.6-0.1,1.1-0.1,1.7-0.2c0.4-0.1,0.7-0.1,1.1-0.2
		c0.8-0.2,1.7-0.3,2.5-0.5c0.3-0.1,0.5-0.1,0.8-0.2c0.9-0.2,1.8-0.5,2.7-0.8l0,0c0.6-0.2,1.2-0.4,1.9-0.6c0.1,0,0.3-0.1,0.4-0.1
		c0.5-0.2,1-0.4,1.6-0.6c0.2-0.1,0.4-0.2,0.6-0.2c0.5-0.2,1-0.4,1.4-0.7c0.2-0.1,0.4-0.2,0.7-0.3c0.4-0.2,0.8-0.4,1.2-0.6
		c0.5-0.2,0.9-0.5,1.4-0.8c0.8-0.5,1.6-1,2.4-1.5s1.5-1,2.3-1.6c0.1-0.1,0.2-0.2,0.4-0.3c2.1-1.6,4-3.3,5.8-5.3
		c-10.6-4.5-18.2-14.4-19.6-26.3c-5-1.3-10-3.4-14.6-6.4c-14.3-9.5-21.7-25.6-20.9-41.6c-0.2,0.1-0.3,0.2-0.5,0.2
		C8.6,67.5-0.6,95.8,11.2,119c4,7.8,9.9,14,16.8,18.4l0,0C30.5,139,33.3,140.4,36.2,141.5z"/>
	<path class="st2" d="M37.3,79.3c6.4,12.5,17.7,21,30.3,24.2c-0.1-1.2-0.2-2.5-0.2-3.7c0-10,4.5-19,11.6-25
		c-1.7-4.8-2.6-10-2.6-15.4c0-18.5,10.7-34.4,26.1-42.1C81.3,5,53.8,11.2,40,31.9c-4.9,7.3-7.4,15.4-7.8,23.6c0,0,0,0,0.1,0
		C31.8,63.5,33.4,71.7,37.3,79.3z"/>
	<path class="st3" d="M76.5,59.4c0,5.4,0.9,10.5,2.6,15.4c5.7-4.8,13-7.7,21.1-7.7c4.2,0,8.2,0.8,11.9,2.2l0,0
		c0.5-0.6,1.1-1.2,1.7-1.8c0.1-0.1,0.1-0.1,0.2-0.2c0.7-0.7,1.4-1.3,2.1-1.9c0.1-0.1,0.3-0.2,0.4-0.4c0.7-0.6,1.4-1.2,2.2-1.8l0,0
		c2.8-2.1,5.9-3.9,9.1-5.4c0.3-0.1,0.6-0.3,0.9-0.4c0.5-0.2,1-0.4,1.5-0.6c0.4-0.1,0.7-0.3,1.1-0.4c0.5-0.2,1-0.3,1.4-0.5
		c0.8-0.2,1.6-0.5,2.4-0.7c0.4-0.1,0.7-0.2,1.1-0.3c0.6-0.1,1.2-0.3,1.8-0.4c0.3-0.1,0.7-0.1,1-0.2c0.9-0.2,1.8-0.3,2.8-0.4
		c0.1,0,0.1,0,0.2,0c0.6-0.1,1.2-0.1,1.8-0.2c0.2,0,0.3,0,0.5,0c0.6,0,1.1,0,1.7-0.1c0.2,0,0.4,0,0.6,0c0.2,0,0.3,0,0.5,0
		c0.3,0,0.5,0,0.8,0c0.5,0,1,0,1.5,0s0.9,0,1.4,0.1c0.4,0,0.8,0.1,1.1,0.1c1,0.1,2,0.2,3,0.4c0.2,0,0.4,0.1,0.6,0.1
		c0.6,0.1,1.2,0.2,1.9,0.4c0.2,0,0.4,0.1,0.5,0.1c1.9,0.5,3.8,1,5.6,1.7c0.3,0.1,0.6,0.2,0.9,0.3c0.5,0.2,0.9,0.4,1.4,0.6
		c0.5,0.2,0.9,0.4,1.4,0.6c0.3,0.2,0.6,0.3,0.9,0.5c0.8,0.4,1.6,0.8,2.4,1.3h0.1c0-0.2,0-0.4,0-0.6c0-26-21-47-47-47
		c-7.5,0-14.6,1.8-20.9,4.9C87.1,25,76.5,40.9,76.5,59.4z"/>
</g>
<rect x="76.97" y="76.84" transform="matrix(0.7071 0.7071 -0.7071 0.7071 99.9055 -41.4605)" class="st4" width="46.06" height="46.06"/>
</svg>
