<?xml version="1.0" encoding="utf-8"?>
<!-- Generator: Adobe Illustrator 27.5.0, SVG Export Plug-In . SVG Version: 6.00 Build 0)  -->
<svg version="1.1" id="Calque_3" xmlns="http://www.w3.org/2000/svg" xmlns:xlink="http://www.w3.org/1999/xlink" x="0px" y="0px"
	 viewBox="0 0 200 200" style="enable-background:new 0 0 200 200;" xml:space="preserve">
<style type="text/css">
	.st0{display:none;fill:#1AA395;}
	.st1{display:none;opacity:0.56;fill:#1AA395;}
	.st2{opacity:0.5;fill:#1AA395;}
	.st3{opacity:0.33;fill:#1AA395;}
	.st4{opacity:0.15;fill:#1AA395;}
	.st5{opacity:0.5;}
	.st6{fill:#1AA395;}
	.st7{opacity:0.33;}
</style>
<path class="st0" d="M51.52,139.67c12.88-7.92,21.4-21.73,21.4-37.43c0-15.36-8.16-28.91-20.58-36.91l10.35-9.89
	c8,12.42,21.54,20.58,36.91,20.58c15.7,0,29.5-8.52,37.43-21.4l11.17,11.64c-12.88,7.92-21.4,21.73-21.4,37.43
	c0,15.36,8.16,28.91,20.58,36.91l-10.35,9.89c-8-12.42-21.54-20.58-36.91-20.58c-15.7,0-29.5,8.52-37.43,21.4L51.52,139.67z"/>
<circle class="st1" cx="55.12" cy="58.17" r="12.58"/>
<circle class="st1" cx="144.59" cy="58.17" r="12.58"/>
<circle class="st1" cx="55.12" cy="147.75" r="12.58"/>
<circle class="st1" cx="144.59" cy="147.75" r="12.58"/>
<g>
	<g>
		<path class="st2" d="M191.61,76.84c-4.49-8.02-10.9-14.28-18.34-18.54c-0.8-0.46-1.63-0.9-2.46-1.32
			c-0.32-0.16-0.66-0.31-0.98-0.47c-0.47-0.22-0.94-0.44-1.41-0.65c-0.47-0.21-0.95-0.4-1.43-0.6c-0.3-0.12-0.61-0.23-0.92-0.35
			c-1.9-0.71-3.83-1.3-5.8-1.78c-0.19-0.04-0.37-0.09-0.56-0.13c-0.64-0.15-1.29-0.28-1.94-0.4c-0.22-0.04-0.44-0.07-0.66-0.11
			c-1.04-0.18-2.1-0.32-3.16-0.43c-0.39-0.04-0.79-0.09-1.18-0.12c-0.48-0.04-0.96-0.06-1.44-0.09c-0.54-0.03-1.07-0.05-1.61-0.05
			c-0.44-0.01-0.88-0.02-1.32-0.02c-0.22,0-0.44,0.01-0.66,0.02c-0.59,0.01-1.18,0.03-1.76,0.07c-0.18,0.01-0.35,0.03-0.53,0.04
			c-0.64,0.04-1.29,0.1-1.92,0.17c-0.06,0.01-0.12,0.02-0.18,0.02c-0.97,0.11-1.93,0.26-2.88,0.43c-0.34,0.06-0.69,0.13-1.03,0.19
			c-0.62,0.12-1.24,0.26-1.85,0.4c-0.38,0.09-0.76,0.17-1.13,0.27c-0.83,0.22-1.65,0.46-2.46,0.72c-0.5,0.16-1,0.34-1.49,0.52
			c-0.38,0.13-0.76,0.27-1.13,0.41c-0.54,0.21-1.07,0.42-1.6,0.65c-0.3,0.13-0.6,0.26-0.89,0.4c-1.31,0.59-2.6,1.23-3.88,1.94
			c-1.97,1.11-3.84,2.33-5.6,3.65c-0.01,0-0.01,0.01-0.02,0.01c-0.78,0.59-1.54,1.21-2.28,1.84c-0.15,0.13-0.3,0.26-0.45,0.39
			c-0.74,0.65-1.47,1.32-2.16,2c-0.07,0.07-0.14,0.15-0.21,0.22c-0.6,0.6-1.19,1.22-1.76,1.86c-0.01,0.01-0.01,0.01-0.02,0.02
			c11.36,4.44,19.74,14.8,21.37,27.29c0.16,0.03,0.31,0.06,0.47,0.1c0.46,0.11,0.91,0.22,1.36,0.34c0.69,0.18,1.38,0.37,2.06,0.59
			c0.56,0.17,1.11,0.35,1.67,0.54c0.38,0.13,0.76,0.28,1.14,0.42c0.62,0.23,1.24,0.48,1.85,0.74c0.25,0.11,0.51,0.21,0.76,0.32
			c0.92,0.41,1.83,0.84,2.73,1.31c0.06,0.03,0.12,0.07,0.18,0.1c0.92,0.49,1.84,1,2.74,1.56c0.02,0.01,0.04,0.02,0.06,0.04
			c0.02,0.01,0.03,0.02,0.05,0.03c2.74,1.68,5.32,3.63,7.71,5.85c0.05,0.05,0.11,0.1,0.16,0.15c0.46,0.43,0.91,0.88,1.35,1.32
			c0.14,0.14,0.29,0.28,0.43,0.43c0.33,0.34,0.64,0.69,0.95,1.04c0.24,0.27,0.49,0.53,0.73,0.81c0.2,0.23,0.39,0.47,0.59,0.71
			c0.34,0.4,0.67,0.8,0.99,1.21c0.11,0.14,0.22,0.29,0.33,0.43c0.4,0.52,0.78,1.04,1.16,1.57c0.06,0.08,0.11,0.17,0.17,0.25
			c0.41,0.59,0.81,1.19,1.19,1.8c0.05,0.08,0.1,0.16,0.15,0.25c0.38,0.61,0.75,1.23,1.1,1.85c0.02,0.04,0.05,0.07,0.07,0.11
			c0.03,0.06,0.06,0.13,0.1,0.19c0.44,0.8,0.86,1.62,1.26,2.44c0.08,0.18,0.17,0.35,0.25,0.53c0.41,0.89,0.81,1.78,1.17,2.69
			c0.08,0.2,0.14,0.39,0.22,0.59c0.26,0.68,0.51,1.37,0.74,2.06c0.12,0.37,0.24,0.74,0.35,1.11c0.17,0.56,0.33,1.13,0.48,1.7
			c0.09,0.35,0.19,0.7,0.28,1.06c0.21,0.86,0.39,1.72,0.56,2.59c0.05,0.28,0.09,0.57,0.14,0.85c0.12,0.7,0.22,1.39,0.31,2.09
			c0.03,0.25,0.06,0.51,0.09,0.76c0.21,1.95,0.31,3.92,0.29,5.9c0.19-0.1,0.37-0.19,0.56-0.3
			C196.4,130.27,204.82,100.44,191.61,76.84z"/>
		<path class="st3" d="M171.96,137.87c-0.03-0.26-0.06-0.51-0.09-0.76c-0.09-0.7-0.19-1.4-0.31-2.09c-0.05-0.28-0.09-0.57-0.14-0.85
			c-0.16-0.87-0.35-1.73-0.56-2.59c-0.09-0.35-0.19-0.7-0.28-1.06c-0.15-0.57-0.31-1.14-0.48-1.7c-0.11-0.37-0.23-0.74-0.35-1.11
			c-0.23-0.69-0.48-1.38-0.74-2.06c-0.07-0.2-0.14-0.39-0.22-0.59c-0.36-0.91-0.76-1.81-1.17-2.69c-0.08-0.18-0.17-0.35-0.25-0.53
			c-0.4-0.82-0.82-1.64-1.26-2.44c-0.06-0.1-0.11-0.2-0.16-0.3c-0.35-0.62-0.72-1.24-1.1-1.85c-0.05-0.08-0.1-0.16-0.15-0.25
			c-0.38-0.61-0.78-1.21-1.19-1.8c-0.06-0.08-0.11-0.17-0.17-0.25c-0.37-0.53-0.76-1.05-1.16-1.57c-0.11-0.14-0.21-0.29-0.33-0.43
			c-0.32-0.41-0.66-0.81-0.99-1.21c-0.2-0.24-0.39-0.48-0.59-0.71c-0.24-0.27-0.49-0.54-0.73-0.81c-0.32-0.35-0.63-0.7-0.95-1.04
			c-0.14-0.15-0.29-0.29-0.43-0.43c-0.44-0.45-0.89-0.89-1.35-1.32c-0.05-0.05-0.11-0.1-0.16-0.15c-2.33-2.16-4.9-4.13-7.71-5.85
			c-0.04-0.02-0.08-0.05-0.12-0.07c-0.9-0.55-1.82-1.07-2.74-1.56c-0.06-0.03-0.12-0.07-0.18-0.1c-0.9-0.47-1.81-0.9-2.73-1.31
			c-0.25-0.11-0.5-0.21-0.76-0.32c-0.61-0.26-1.23-0.51-1.85-0.74c-0.38-0.14-0.76-0.29-1.14-0.42c-0.55-0.19-1.11-0.37-1.67-0.54
			c-0.68-0.21-1.37-0.41-2.06-0.59c-0.45-0.12-0.91-0.24-1.36-0.34c-0.16-0.04-0.31-0.07-0.47-0.1c0.19,1.45,0.3,2.92,0.3,4.43
			c0,11.12-5.33,21-13.58,27.21c0.12,0.37,0.23,0.74,0.33,1.12c0.02,0.07,0.04,0.13,0.05,0.2c0.26,0.93,0.49,1.86,0.7,2.8
			c0,0.01,0,0.02,0.01,0.02c2.59,11.89,0.79,24.76-6.08,35.96c-4.66,7.61-11.07,13.48-18.39,17.44c0.18,0.11,0.35,0.24,0.54,0.35
			c23.05,14.13,53.19,6.89,67.32-16.16c4.78-7.8,7.1-16.41,7.21-24.93c0,0,0,0-0.01,0C172.27,141.81,172.17,139.84,171.96,137.87z"
			/>
		<path class="st2" d="M120.95,128.29c-0.02-0.07-0.04-0.13-0.05-0.2c-0.11-0.37-0.24-0.74-0.35-1.11
			c-5.7,4.29-12.78,6.83-20.45,6.83c-4.76,0-9.29-0.98-13.4-2.74c-1.85,1.97-3.87,3.8-6.07,5.47c-0.12,0.09-0.25,0.18-0.37,0.28
			c-0.77,0.57-1.57,1.13-2.38,1.66c-0.81,0.53-1.64,1.04-2.49,1.52c-0.47,0.27-0.94,0.53-1.42,0.79c-0.22,0.12-0.43,0.25-0.66,0.37
			c-0.19,0.1-0.38,0.18-0.57,0.27c-0.23,0.11-0.46,0.22-0.69,0.33c-0.5,0.24-1,0.47-1.5,0.69c-0.21,0.09-0.42,0.18-0.63,0.26
			c-0.54,0.23-1.09,0.45-1.64,0.66c-0.13,0.05-0.27,0.09-0.4,0.14c-0.64,0.24-1.29,0.46-1.94,0.67c0,0,0,0,0,0
			c-0.93,0.3-1.88,0.56-2.84,0.8c-0.27,0.07-0.54,0.14-0.82,0.2c-0.86,0.2-1.73,0.38-2.61,0.54c-0.37,0.07-0.73,0.12-1.1,0.17
			c-0.57,0.09-1.15,0.17-1.73,0.23c-0.5,0.06-1,0.12-1.5,0.16c-0.69,0.06-1.38,0.11-2.07,0.14c-0.49,0.02-0.99,0.03-1.48,0.04
			c-0.47,0.01-0.93,0-1.4,0c-0.75-0.01-1.49-0.04-2.24-0.09c-0.57-0.03-1.13-0.07-1.69-0.12c-0.43-0.04-0.85-0.1-1.28-0.15
			c-0.6-0.07-1.19-0.16-1.79-0.25c-0.36-0.06-0.72-0.11-1.07-0.18c-0.95-0.17-1.89-0.36-2.82-0.59c-0.07-0.02-0.13-0.03-0.2-0.05
			c-1.08-0.27-2.14-0.58-3.18-0.91c-0.2-0.06-0.4-0.12-0.6-0.19c-0.24-0.08-0.48-0.17-0.72-0.26c-0.39-0.14-0.78-0.27-1.17-0.42
			c-0.02-0.01-0.05-0.02-0.07-0.03c-3.01-1.15-5.9-2.59-8.64-4.32c-0.01,0.21-0.03,0.41-0.04,0.62
			c-1.07,27.01,19.96,49.78,46.97,50.86c27.01,1.07,49.78-19.96,50.86-46.97c0.17-4.23-0.21-8.36-1.06-12.32
			c0-0.01,0-0.02-0.01-0.02C121.44,130.14,121.21,129.21,120.95,128.29z"/>
		<path class="st4" d="M33.57,143.23c0.02,0.01,0.05,0.02,0.07,0.03c0.39,0.15,0.78,0.28,1.17,0.42c0.24,0.08,0.48,0.17,0.72,0.26
			c0.2,0.07,0.4,0.12,0.6,0.19c1.05,0.34,2.11,0.65,3.18,0.91c0.07,0.02,0.13,0.03,0.2,0.05c0.93,0.23,1.87,0.42,2.82,0.59
			c0.36,0.06,0.71,0.12,1.07,0.18c0.59,0.09,1.19,0.18,1.79,0.25c0.43,0.05,0.85,0.11,1.28,0.15c0.56,0.05,1.13,0.09,1.69,0.12
			c0.33,0.02,0.65,0.05,0.98,0.06c0.42,0.02,0.84,0.02,1.26,0.02c0.47,0.01,0.94,0.01,1.4,0c0.5-0.01,0.99-0.02,1.48-0.04
			c0.69-0.03,1.38-0.08,2.07-0.14c0.5-0.04,1-0.1,1.5-0.16c0.58-0.07,1.15-0.14,1.73-0.23c0.37-0.06,0.73-0.11,1.1-0.17
			c0.87-0.16,1.74-0.34,2.61-0.54c0.27-0.06,0.55-0.13,0.82-0.2c0.95-0.24,1.9-0.5,2.84-0.8c0,0,0,0,0,0
			c0.65-0.21,1.29-0.43,1.94-0.67c0.13-0.05,0.27-0.09,0.4-0.14c0.55-0.21,1.09-0.43,1.64-0.66c0.21-0.09,0.42-0.17,0.63-0.26
			c0.5-0.22,1-0.45,1.5-0.69c0.23-0.11,0.46-0.22,0.69-0.33c0.41-0.2,0.82-0.42,1.23-0.64c0.48-0.25,0.95-0.52,1.42-0.79
			c0.85-0.49,1.68-0.99,2.49-1.52c0.81-0.53,1.6-1.08,2.38-1.66c0.12-0.09,0.25-0.18,0.37-0.28c2.17-1.65,4.2-3.48,6.07-5.47
			c-10.99-4.71-19-15.04-20.42-27.38c-5.26-1.32-10.39-3.53-15.16-6.71C36.2,87.05,28.5,70.36,29.36,53.67
			c-0.17,0.08-0.34,0.16-0.51,0.24C4.76,66.19-4.82,95.67,7.46,119.76c4.15,8.14,10.27,14.62,17.47,19.16c0-0.01,0-0.01,0-0.02
			C27.64,140.61,30.53,142.07,33.57,143.23z"/>
		<g class="st5">
			<path class="st6" d="M34.69,78.44c6.66,13.07,18.39,21.84,31.58,25.19c-0.14-1.27-0.22-2.56-0.22-3.87
				c0-10.45,4.71-19.8,12.12-26.04c-1.73-5.01-2.68-10.39-2.68-16c0-19.23,11.1-35.87,27.23-43.87C80.53,1.01,51.9,7.47,37.5,29.1
				c-5.06,7.59-7.7,16.08-8.14,24.57c0.02-0.01,0.04-0.02,0.07-0.03C28.98,61.95,30.64,70.49,34.69,78.44z"/>
		</g>
		<g class="st7">
			<path class="st6" d="M75.48,57.72c0,5.6,0.95,10.98,2.68,16c5.93-5,13.57-8.01,21.93-8.01c4.37,0,8.55,0.83,12.39,2.34
				c0.01-0.01,0.01-0.01,0.02-0.02c0.57-0.63,1.15-1.25,1.76-1.86c0.07-0.07,0.14-0.15,0.21-0.22c0.7-0.69,1.42-1.35,2.16-2
				c0.15-0.13,0.3-0.26,0.45-0.39c0.74-0.64,1.5-1.25,2.28-1.84c0.01,0,0.01-0.01,0.02-0.01c2.92-2.21,6.1-4.07,9.48-5.59
				c0.3-0.13,0.59-0.27,0.89-0.4c0.53-0.23,1.06-0.44,1.6-0.65c0.38-0.14,0.75-0.28,1.13-0.41c0.5-0.18,0.99-0.36,1.49-0.52
				c0.82-0.26,1.64-0.5,2.46-0.72c0.37-0.1,0.75-0.18,1.13-0.27c0.62-0.15,1.23-0.28,1.85-0.4c0.34-0.07,0.69-0.13,1.03-0.19
				c0.96-0.17,1.92-0.32,2.88-0.43c0.06-0.01,0.12-0.02,0.18-0.02c0.64-0.07,1.28-0.12,1.92-0.17c0.18-0.01,0.35-0.03,0.53-0.04
				c0.58-0.03,1.17-0.05,1.76-0.07c0.22-0.01,0.44-0.01,0.66-0.02c0.17,0,0.33-0.01,0.5-0.01c0.28,0,0.55,0.02,0.83,0.03
				c0.54,0.01,1.08,0.03,1.61,0.05c0.48,0.02,0.96,0.05,1.44,0.09c0.4,0.03,0.79,0.08,1.18,0.12c1.06,0.11,2.12,0.25,3.16,0.43
				c0.22,0.04,0.44,0.07,0.66,0.11c0.65,0.12,1.29,0.25,1.94,0.4c0.19,0.04,0.37,0.09,0.56,0.13c1.98,0.47,3.92,1.07,5.8,1.78
				c0.31,0.12,0.61,0.23,0.92,0.35c0.48,0.19,0.96,0.39,1.43,0.6c0.48,0.21,0.95,0.42,1.41,0.65c0.33,0.16,0.66,0.3,0.98,0.47
				c0.83,0.42,1.65,0.86,2.46,1.32c0.03,0.02,0.06,0.03,0.1,0.05c0-0.21,0.02-0.43,0.02-0.64c0-27.04-21.92-48.95-48.95-48.95
				c-7.8,0-15.17,1.83-21.72,5.08C86.58,21.85,75.48,38.48,75.48,57.72z"/>
		</g>
	</g>
</g>
</svg>
