<?xml version="1.0" encoding="utf-8"?>
<!-- Generator: Adobe Illustrator 27.5.0, SVG Export Plug-In . SVG Version: 6.00 Build 0)  -->
<svg version="1.1" id="Calque_3" xmlns="http://www.w3.org/2000/svg" xmlns:xlink="http://www.w3.org/1999/xlink" x="0px" y="0px"
	 viewBox="0 0 200 200" style="enable-background:new 0 0 200 200;" xml:space="preserve">
<style type="text/css">
	.st0{display:none;fill:#1AA395;}
	.st1{display:none;opacity:0.56;fill:#1AA395;enable-background:new    ;}
	.st2{fill:#1AA294;}
	.st3{fill:#172748;}
	.st4{fill:#FFFFFF;}
	.st5{opacity:0.5;fill:#172748;enable-background:new    ;}
</style>
<path class="st0" d="M51.5,139.7c12.9-7.9,21.4-21.7,21.4-37.4c0-15.4-8.2-28.9-20.6-36.9l10.3-9.9C70.7,67.9,84.2,76,99.6,76
	c15.7,0,29.5-8.5,37.4-21.4l11.2,11.6c-12.9,7.9-21.4,21.7-21.4,37.4c0,15.4,8.2,28.9,20.6,36.9l-10.4,9.9
	c-8-12.4-21.5-20.6-36.9-20.6c-15.7,0-29.5,8.5-37.4,21.4L51.5,139.7z"/>
<circle class="st1" cx="55.1" cy="58.2" r="12.6"/>
<circle class="st1" cx="144.6" cy="58.2" r="12.6"/>
<circle class="st1" cx="55.1" cy="147.8" r="12.6"/>
<circle class="st1" cx="144.6" cy="147.8" r="12.6"/>
<g>
	<path class="st2" d="M59.6,104.2v-3.8c0-1.8,1.5-3.3,3.3-3.3h29.4c-2.1-4.3-3.3-9.1-3.3-14.2v-6.4h-26c-1.8,0-3.3-1.5-3.3-3.3v-3.8
		c0-1.8,1.5-3.3,3.3-3.3h26V49.2c0-4.8-3.8-8.5-8.5-8.5H40C22,40.7,7.4,55.3,7.4,73.2v85c0,17.9,14.6,32.6,32.6,32.6h85
		c17.9,0,32.6-14.6,32.6-32.6v-35.2c0-4.2-3.4-7.7-7.7-7.7h-28.3c-8.1,0-15.4-2.9-21.1-7.9H62.9C61.1,107.5,59.6,106.1,59.6,104.2z"
		/>
	<path class="st3" d="M145.8,7.9H77.6C60,13.3,48.1,29.6,48.1,29.6h77.3c45.5,2.2,42.8,48.2,42.8,48.2v79.1
		c22.1-13.3,25.2-34,25.2-34V59.1C193.4,6.1,145.8,7.9,145.8,7.9z"/>
	<path class="st4" d="M59.6,69.3v3.8c0,1.8,1.5,3.3,3.3,3.3h26V66h-26C61.1,66,59.6,67.4,59.6,69.3z"/>
	<path class="st4" d="M92.3,97.1H62.9c-1.8,0-3.3,1.5-3.3,3.3v3.8c0,1.8,1.5,3.3,3.3,3.3h37.4C97,104.7,94.2,101,92.3,97.1z"/>
	<path class="st5" d="M99.9,42v43.8c0,4.5,1.6,8.3,4.1,11.3c3.1,3.9,7.4,6.6,11.2,7.6c1.2,0.4,2.4,0.6,3.5,0.6h40L99.9,42z"/>
</g>
<circle class="st3" cx="34.5" cy="71.3" r="8.9"/>
<circle class="st3" cx="34.5" cy="133.2" r="8.9"/>
<path class="st4" d="M135.9,138.3h-73c-1.8,0-3.3-1.5-3.3-3.3v-3.8c0-1.8,1.5-3.3,3.3-3.3h72.9c1.8,0,3.3,1.5,3.3,3.3v3.8
	C139.2,136.8,137.7,138.3,135.9,138.3z"/>
<path class="st4" d="M111.8,169.3H62.9c-1.8,0-3.3-1.5-3.3-3.3v-3.8c0-1.8,1.5-3.3,3.3-3.3h48.9c1.8,0,3.3,1.5,3.3,3.3v3.8
	C115.2,167.9,113.7,169.3,111.8,169.3z"/>
</svg>
