<?xml version="1.0" encoding="utf-8"?>
<!-- Generator: Adobe Illustrator 27.5.0, SVG Export Plug-In . SVG Version: 6.00 Build 0)  -->
<svg version="1.1" xmlns="http://www.w3.org/2000/svg" xmlns:xlink="http://www.w3.org/1999/xlink" x="0px" y="0px"
	 viewBox="0 0 200 200" style="enable-background:new 0 0 200 200;" xml:space="preserve">
<style type="text/css">
	.st0{fill:#FFFFFF;stroke:#FFFFFF;stroke-width:7.8898;stroke-linecap:round;stroke-linejoin:round;stroke-miterlimit:10;}
	.st1{fill:#FFFFFF;stroke:#FFFFFF;stroke-width:8;stroke-linecap:round;stroke-linejoin:round;stroke-miterlimit:10;}
	.st2{fill:#1A2747;}
	.st3{fill:none;}
	.st4{fill:#16A194;}
</style>
<g id="Calque_3">
	<path class="st0" d="M191.13,123.76c-2.07-0.89-4.93,0.39-4.93,0.39c-4.64-5.72-14.1,2.56-14.1,2.56s-13.91,12.03-17.46,14.69
		c-2.07,1.58-4.34,2.96-5.82,3.85c1.48,2.07,2.27,4.34,2.27,6.8c0,7.59-6.21,13.81-13.81,13.81h-0.2
		c-3.55-0.2-12.33-1.48-19.82-3.06c-16.67-3.45-21.4-3.16-30.18-0.3c-1.28,0.39-2.66-0.3-3.06-1.58c-0.39-1.28,0.3-2.66,1.58-3.06
		c10.16-3.25,15.98-3.25,32.64,0.1c7.1,1.48,15.78,2.76,19.13,2.96c4.83,0,8.88-4.04,8.88-8.88c0-2.07-1.08-4.04-2.76-5.42
		c-1.38-0.3-2.66-0.39-4.04-0.59c-5.72-0.79-27.81-3.35-48.42-12.92c-12.62-5.82-24.85-7-33.24-5.72
		c-13.61,2.07-21.99,11.24-28.01,15.19c-6.02,3.94-16.08,8.28-18.84,9.37c-3.94,1.48-5.82,2.17-5.33,6.61
		c0.49,4.34,2.56,19.23,12.23,29.29c3.55,3.65,3.94,3.94,8.28,1.97c7.69-3.55,21.3-10.06,25.74-11.34
		c9.37-2.66,13.81-1.58,24.66,1.38c14.4,3.94,22.19,7.3,35.31,8.88c10.75,1.28,12.53-0.79,19.33-4.24
		c6.41-3.25,32.74-17.16,36.69-19.63c5.03-3.06,6.21-5.23,11.14-11.93c4.73-6.51,11.74-15.78,14.69-20.41
		C195.86,128.59,193.89,124.94,191.13,123.76z"/>
	<path class="st1" d="M98.9,129.8c0.2,0,0.4,0,0.6,0c0.1,0,0.2,0,0.3,0l21.9-74.3H78.2L98.9,129.8z"/>
	<path class="st1" d="M103.5,129.5c3.5-0.7,6.6-2.8,8.8-5.6l37.9-42.8c2.5-2.9,3.9-6.7,3.9-10.8c0.1-2.3-0.4-4.5-1.2-6.5l-0.1-0.2
		c-0.1-0.2-0.2-0.4-0.3-0.6l-3.4-7.5h-23.8L103.5,129.5z"/>
	<path class="st1" d="M50.5,81.6l36.3,42.2c2.1,2.8,5.1,4.8,8.5,5.5L74.7,55.5H50.8l-3,7.1c-0.4,0.7-0.6,1.4-0.9,2.1
		c-0.6,1.7-0.9,3.5-0.9,5.5c0,3.6,1.1,6.9,2.9,9.5C49.4,80.4,49.9,81,50.5,81.6z"/>
	<polygon class="st1" points="120.7,52.7 99.5,22 99.4,21.8 99.2,22 79.2,52.7 	"/>
	<path class="st1" d="M95.4,22c-0.1,0-21.5,0-21.5,0c-5.5,0-10.2,3.4-12.4,8.3c-0.1,0.3-0.2,0.5-0.3,0.8l-9.1,21.6h23.3L95.4,22z"/>
	<path class="st1" d="M147.9,52.7l-10-22c-2.1-4.9-6.7-8.4-12.1-8.6h-22.2l21.1,30.7C124.6,52.7,147.9,52.7,147.9,52.7z"/>
	<path class="st1" d="M192.9,5.7h-7.4c-1.7,0-3.1,1.4-3.1,3.1v3.5h-11.7c-3.1,0-5.6,2.5-5.6,5.6V31c0,3.1,2.5,5.6,5.6,5.6h13.1
		c3.1,0,5.6-2.5,5.6-5.6V19.3h3.5c1.7,0,3.1-1.4,3.1-3.1V8.8C196,7.1,194.6,5.7,192.9,5.7z"/>
</g>
<g id="Calque_2_00000084491171922072232300000015732798580410225588_">
	<path class="st2" d="M191.13,123.76c-2.07-0.89-4.93,0.39-4.93,0.39c-4.64-5.72-14.1,2.56-14.1,2.56s-13.91,12.03-17.46,14.69
		c-2.07,1.58-4.34,2.96-5.82,3.85c1.48,2.07,2.27,4.34,2.27,6.8c0,7.59-6.21,13.81-13.81,13.81h-0.2
		c-3.55-0.2-12.33-1.48-19.82-3.06c-16.67-3.45-21.4-3.16-30.18-0.3c-1.28,0.39-2.66-0.3-3.06-1.58c-0.39-1.28,0.3-2.66,1.58-3.06
		c10.16-3.25,15.98-3.25,32.64,0.1c7.1,1.48,15.78,2.76,19.13,2.96c4.83,0,8.88-4.04,8.88-8.88c0-2.07-1.08-4.04-2.76-5.42
		c-1.38-0.3-2.66-0.39-4.04-0.59c-5.72-0.79-27.81-3.35-48.42-12.92c-12.62-5.82-24.85-7-33.24-5.72
		c-13.61,2.07-21.99,11.24-28.01,15.19s-16.08,8.28-18.84,9.37c-3.94,1.48-5.82,2.17-5.33,6.61c0.49,4.34,2.56,19.23,12.23,29.29
		c3.55,3.65,3.94,3.94,8.28,1.97c7.69-3.55,21.3-10.06,25.74-11.34c9.37-2.66,13.81-1.58,24.66,1.38c14.4,3.94,22.19,7.3,35.31,8.88
		c10.75,1.28,12.53-0.79,19.33-4.24c6.41-3.25,32.74-17.16,36.69-19.63c5.03-3.06,6.21-5.23,11.14-11.93
		c4.73-6.51,11.74-15.78,14.69-20.41C195.86,128.59,193.89,124.94,191.13,123.76z"/>
	<polygon class="st3" points="99.4,21.8 99.2,22 99.5,22 	"/>
	<path class="st2" d="M98.9,129.8c0.2,0,0.4,0,0.6,0c0.1,0,0.2,0,0.3,0l21.9-74.3H78.2L98.9,129.8z"/>
	<path class="st4" d="M152.9,63.8L152.9,63.8l-0.1-0.2c-0.1-0.2-0.2-0.4-0.3-0.6l-3.4-7.5h-23.8l-21.8,74c3.5-0.7,6.6-2.8,8.8-5.6
		l0,0l37.9-42.8l0,0c2.5-2.9,3.9-6.7,3.9-10.8C154.2,68,153.7,65.8,152.9,63.8z"/>
	<path class="st4" d="M50.8,55.5l-3,7.1c-0.4,0.7-0.6,1.4-0.9,2.1l0,0l0,0c-0.6,1.7-0.9,3.5-0.9,5.5c0,3.6,1.1,6.9,2.9,9.5l0,0l0,0
		c0.5,0.7,1,1.3,1.6,1.9l36.3,42.2l0,0c2.1,2.8,5.1,4.8,8.5,5.5L74.7,55.5H50.8z"/>
	<polygon class="st4" points="99.5,22 99.2,22 79.2,52.7 120.7,52.7 	"/>
	<path class="st2" d="M73.9,22c-5.5,0-10.2,3.4-12.4,8.3l0,0l0,0c-0.1,0.3-0.2,0.5-0.3,0.8l-9.1,21.6h23.3l20-30.7
		C95.3,22,73.9,22,73.9,22z"/>
	<path class="st2" d="M147.9,52.7l-10-22l0,0c-2.1-4.9-6.7-8.4-12.1-8.6l0,0h-22.2l21.1,30.7C124.6,52.7,147.9,52.7,147.9,52.7z"/>
	<path class="st4" d="M170.7,12.3h13.1c3.1,0,5.6,2.5,5.6,5.6V31c0,3.1-2.5,5.6-5.6,5.6h-13.1c-3.1,0-5.6-2.5-5.6-5.6V17.9
		C165.1,14.8,167.6,12.3,170.7,12.3z"/>
	<path class="st2" d="M185.5,5.7h7.4c1.7,0,3.1,1.4,3.1,3.1v7.4c0,1.7-1.4,3.1-3.1,3.1h-7.4c-1.7,0-3.1-1.4-3.1-3.1V8.8
		C182.4,7.1,183.8,5.7,185.5,5.7z"/>
</g>
</svg>
