<?xml version="1.0" encoding="utf-8"?>
<!-- Generator: Adobe Illustrator 27.5.0, SVG Export Plug-In . SVG Version: 6.00 Build 0)  -->
<svg version="1.1" id="Calque_3" xmlns="http://www.w3.org/2000/svg" xmlns:xlink="http://www.w3.org/1999/xlink" x="0px" y="0px"
	 viewBox="0 0 200 200" style="enable-background:new 0 0 200 200;" xml:space="preserve">
<style type="text/css">
	.st0{display:none;fill:#1AA395;}
	.st1{display:none;opacity:0.56;fill:#1AA395;}
	.st2{opacity:0.5;}
	.st3{fill:#1AA395;}
	.st4{opacity:0.15;}
	.st5{opacity:0.33;}
</style>
<path class="st0" d="M51.52,139.67c12.88-7.92,21.4-21.73,21.4-37.43c0-15.36-8.16-28.91-20.58-36.91l10.35-9.89
	c8,12.42,21.54,20.58,36.91,20.58c15.7,0,29.5-8.52,37.43-21.4l11.17,11.64c-12.88,7.92-21.4,21.73-21.4,37.43
	c0,15.36,8.16,28.91,20.58,36.91l-10.35,9.89c-8-12.42-21.54-20.58-36.91-20.58c-15.7,0-29.5,8.52-37.43,21.4L51.52,139.67z"/>
<circle class="st1" cx="55.12" cy="58.17" r="12.58"/>
<circle class="st1" cx="144.59" cy="58.17" r="12.58"/>
<circle class="st1" cx="55.12" cy="147.75" r="12.58"/>
<circle class="st1" cx="144.59" cy="147.75" r="12.58"/>
<g>
	<g>
		<g class="st2">
			<path class="st3" d="M87.95,48.13v35.39c0,18.85,15.42,34.27,34.27,34.27h29.82c4.45,0,8.05,3.6,8.05,8.05v37.04
				c0,18.85-15.42,34.27-34.27,34.27H36.36c-18.85,0-34.27-15.42-34.27-34.27V73.42c0-18.85,15.42-34.27,34.27-34.27h42.62
				C83.93,39.15,87.95,43.17,87.95,48.13z"/>
		</g>
		<g class="st4">
			<path class="st3" d="M161.22,107.07h-42.09c-7.09,0-19.73-7.91-19.73-20.47V40.52L161.22,107.07z"/>
		</g>
		<g class="st5">
			<path class="st3" d="M44.88,27.53h81.4c47.91,2.33,45.12,50.7,45.12,50.7v83.26c23.26-13.95,26.51-35.82,26.51-35.82V58.58
				c0-55.73-50.15-53.85-50.15-53.85H76.04C57.44,10.31,44.88,27.53,44.88,27.53z"/>
		</g>
	</g>
</g>
</svg>
