<?xml version="1.0" encoding="utf-8"?>
<!-- Generator: Adobe Illustrator 27.5.0, SVG Export Plug-In . SVG Version: 6.00 Build 0)  -->
<svg version="1.1" id="Calque_2" xmlns="http://www.w3.org/2000/svg" xmlns:xlink="http://www.w3.org/1999/xlink" x="0px" y="0px"
	 viewBox="0 0 200 200" style="enable-background:new 0 0 200 200;" xml:space="preserve">
<style type="text/css">
	.st0{opacity:0.5;fill:#1AA395;}
	.st1{opacity:0.15;fill:#1AA395;}
	.st2{opacity:0.33;fill:#1AA395;}
</style>
<g>
	<path class="st0" d="M99.57,12.17c-10.83,0-20.26,5.95-25.23,14.75l-0.01,0l-51.89,88.66l-16.27,27.8l0,0.01
		c-2.57,4.32-4.04,9.37-4.04,14.76c0,7.92,3.18,15.09,8.32,20.31l89.71-62.87V12.19C99.96,12.19,99.77,12.17,99.57,12.17z"/>
	<path class="st1" d="M100.16,115.59l-89.71,62.87c5.25,5.34,12.56,8.65,20.64,8.65h69.07h69.07c8.08,0,15.38-3.31,20.64-8.65
		L100.16,115.59z"/>
	<path class="st2" d="M100.76,12.17c10.83,0,20.26,5.95,25.23,14.75l0.01,0l51.89,88.66l16.27,27.8l0,0.01
		c2.57,4.32,4.04,9.37,4.04,14.76c0,7.92-3.18,15.09-8.32,20.31l-89.71-62.87V12.19C100.36,12.19,100.56,12.17,100.76,12.17z"/>
</g>
</svg>
