<?xml version="1.0" encoding="utf-8"?>
<!-- Generator: Adobe Illustrator 27.5.0, SVG Export Plug-In . SVG Version: 6.00 Build 0)  -->
<svg version="1.1" id="Calque_1" xmlns="http://www.w3.org/2000/svg" xmlns:xlink="http://www.w3.org/1999/xlink" x="0px" y="0px"
	 viewBox="0 0 200 200" style="enable-background:new 0 0 200 200;" xml:space="preserve">
<style type="text/css">
	.st0{fill:#1AA395;enable-background:new    ;}
	.st1{fill:#172748;}
</style>
<g>
	<path class="st0" d="M138.6,134.5c0.4-0.8,0.9-1.6,1.4-2.4l-58.6,0.1c-4.4,0-8,3.6-8,8c0,8.7-4.4,16.6-11.8,21.1
		c-11.6,7.2-27,3.6-34.2-8c-3.5-5.6-4.6-12.3-3.1-18.8c1.5-6.5,5.5-11.9,11.1-15.4c1.1-0.7,2.2-1.2,3.3-1.7
		c4.1-1.7,5.9-6.4,4.2-10.5c-1.7-4.1-6.4-5.9-10.5-4.2c-1.9,0.8-3.7,1.8-5.4,2.8c-9.3,5.7-15.8,14.8-18.2,25.4s-0.7,21.6,5,30.8
		C21.6,174.1,35,181,48.7,181c7.3,0,14.8-2,21.4-6.1c9.8-6.1,16.4-15.7,18.5-26.7l50.3-0.1C136.7,144,136.4,139,138.6,134.5z"/>
	<path class="st0" d="M190.3,127.3c-3.6-10.3-11-18.6-20.8-23.3c-10.4-5-22.1-5.3-32.5-1.3l-24.1-37.7c-2.5,4.8-7.5,8.1-13.3,8.1
		c-0.2,0-0.4,0-0.5,0l28.4,44.3c2.4,3.7,7.3,4.8,11,2.4c7.3-4.7,16.3-5.2,24.1-1.4c6,2.9,10.5,7.9,12.7,14.2c2.2,6.3,1.8,13-1.1,19
		c-5.9,12.3-20.8,17.6-33.1,11.6c-1.1-0.5-2.2-1.2-3.2-1.9c-3.6-2.5-8.6-1.5-11.1,2.1c-2.5,3.6-1.5,8.6,2.1,11.1
		c1.7,1.1,3.5,2.2,5.3,3.1c5.7,2.7,11.7,4,17.6,4c15.2,0,29.9-8.5,36.9-23.1C193.3,148.6,193.9,137.6,190.3,127.3z"/>
	<path class="st1" d="M158.7,127.4c-6.6-3.2-14.5-1.1-18.7,4.7c-0.5,0.7-1,1.5-1.4,2.4c-2.2,4.5-1.9,9.6,0.3,13.6
		c1.5,2.7,3.7,5,6.7,6.4c7.5,3.6,16.5,0.4,20.1-7.1S166.2,131,158.7,127.4z"/>
	<path class="st0" d="M71.6,88.3l-22.9,37c4.9,0.2,9.5,2.7,12.3,7.1c0.4,0.6,0.7,1.2,1,1.9l27-43.7c2.3-3.8,1.2-8.7-2.6-11
		C79.1,75,74.7,67.1,74.7,58.5c0-13.7,11.1-24.8,24.8-24.8c13.7,0,24.8,11.1,24.8,24.8c0,1.2-0.1,2.5-0.3,3.7
		c-0.7,4.4,2.4,8.4,6.7,9.1c4.4,0.7,8.4-2.4,9.1-6.7c0.3-2,0.4-4.1,0.4-6.1c0-22.5-18.3-40.8-40.8-40.8S58.7,36,58.7,58.5
		C58.7,70,63.4,80.7,71.6,88.3z"/>
	<path class="st1" d="M62,134.3c-0.3-0.6-0.6-1.3-1-1.9c-2.8-4.4-7.4-6.9-12.3-7.1c-2.9-0.1-5.8,0.6-8.4,2.2
		c-7.1,4.4-9.2,13.7-4.9,20.7s13.6,9.2,20.7,4.9C62.7,149.2,65,141.1,62,134.3z"/>
	<path class="st1" d="M99.5,43c-8.3,0-15.1,6.7-15.1,15c0,8.1,6.4,14.7,14.5,15c0.2,0,0.4,0,0.5,0c5.8,0,10.8-3.3,13.3-8.1
		c1.1-2.1,1.7-4.5,1.7-7C114.6,49.8,107.8,43,99.5,43z"/>
</g>
</svg>
