<?xml version="1.0" encoding="utf-8"?>
<!-- Generator: Adobe Illustrator 27.5.0, SVG Export Plug-In . SVG Version: 6.00 Build 0)  -->
<svg version="1.1" id="Calque_3" xmlns="http://www.w3.org/2000/svg" xmlns:xlink="http://www.w3.org/1999/xlink" x="0px" y="0px"
	 viewBox="0 0 200 200" style="enable-background:new 0 0 200 200;" xml:space="preserve">
<style type="text/css">
	.st0{display:none;fill:#1AA395;}
	.st1{display:none;opacity:0.56;fill:#1AA395;enable-background:new    ;}
	.st2{fill:#1AA395;}
	.st3{fill:#172748;}
	.st4{fill:#FFFFFF;}
</style>
<path class="st0" d="M51.5,139.7c12.9-7.9,21.4-21.7,21.4-37.4c0-15.4-8.2-28.9-20.6-36.9l10.3-9.9C70.7,67.9,84.2,76,99.6,76
	c15.7,0,29.5-8.5,37.4-21.4l11.2,11.6c-12.9,7.9-21.4,21.7-21.4,37.4c0,15.4,8.2,28.9,20.6,36.9l-10.4,9.9
	c-8-12.4-21.5-20.6-36.9-20.6c-15.7,0-29.5,8.5-37.4,21.4L51.5,139.7z"/>
<circle class="st1" cx="55.1" cy="58.2" r="12.6"/>
<circle class="st1" cx="144.6" cy="58.2" r="12.6"/>
<circle class="st1" cx="55.1" cy="147.8" r="12.6"/>
<circle class="st1" cx="144.6" cy="147.8" r="12.6"/>
<g>
	<circle class="st2" cx="48" cy="48" r="42.1"/>
	<circle class="st2" cx="151.9" cy="48" r="42.1"/>
	<circle class="st2" cx="48" cy="151.9" r="42.1"/>
	
		<ellipse transform="matrix(8.248055e-02 -0.9966 0.9966 8.248055e-02 -12.0764 290.7709)" class="st2" cx="151.9" cy="151.9" rx="42.1" ry="42.1"/>
	<path class="st3" d="M151.9,137.3c-1.4,0-2.8,0.2-4.1,0.6c-10.2-9.4-16.5-22.6-16.5-37.1c0-15.3,7-29,18.1-38.5
		c0.8,0.2,1.7,0.2,2.6,0.2c8.1,0,14.6-6.5,14.6-14.6s-6.5-14.6-14.6-14.6c-8.1,0-14.6,6.5-14.6,14.6c0,1.1,0.1,2.2,0.4,3.2
		c-9.4,10.7-23,17.5-38,17.5c-14.8,0-28.1-6.5-37.5-17c0.3-1.2,0.5-2.5,0.5-3.8c0-8.1-6.5-14.6-14.6-14.6S33.4,39.9,33.4,48
		S40,62.6,48,62.6c1.4,0,2.8-0.2,4.1-0.6c10.2,9.4,16.5,22.6,16.5,37.2c0,15.3-7,29-18,38.5c-0.9-0.2-1.7-0.2-2.6-0.2
		c-8.1,0-14.6,6.5-14.6,14.6c0,8.1,6.5,14.6,14.6,14.6s14.6-6.5,14.6-14.6c0-1.1-0.1-2.2-0.4-3.2c9.4-10.7,23-17.5,38-17.5
		c14.8,0,28.1,6.5,37.5,17c-0.3,1.2-0.5,2.4-0.5,3.7c0,8.1,6.5,14.6,14.6,14.6c8.1,0,14.6-6.5,14.6-14.6
		C166.5,143.9,159.9,137.3,151.9,137.3z"/>
</g>
<path class="st4" d="M88.9,88.9c6.1-6.1,16.1-6.1,22.2,0c6.1,6.1,6.1,16.1,0,22.2c-6.1,6.1-16,6.1-22.2,0
	C82.8,104.9,82.8,95,88.9,88.9z M94.4,94.4c-3.1,3.1-3.1,8.1,0,11.2c3.1,3.1,8.1,3.1,11.2,0c3.1-3.1,3.1-8.1,0-11.2
	C102.5,91.3,97.5,91.3,94.4,94.4z"/>
</svg>
