<?xml version="1.0" encoding="utf-8"?>
<!-- Generator: Adobe Illustrator 27.5.0, SVG Export Plug-In . SVG Version: 6.00 Build 0)  -->
<svg version="1.1" id="Calque_3" xmlns="http://www.w3.org/2000/svg" xmlns:xlink="http://www.w3.org/1999/xlink" x="0px" y="0px"
	 viewBox="0 0 200 200" style="enable-background:new 0 0 200 200;" xml:space="preserve">
<style type="text/css">
	.st0{display:none;fill:#1AA395;}
	.st1{display:none;opacity:0.56;fill:#1AA395;}
	.st2{opacity:0.33;fill:#1AA395;}
	.st3{opacity:0.5;fill:#1AA395;}
	.st4{opacity:0.15;fill:#1AA395;}
</style>
<path class="st0" d="M51.52,139.67c12.88-7.92,21.4-21.73,21.4-37.43c0-15.36-8.16-28.91-20.58-36.91l10.35-9.89
	c8,12.42,21.54,20.58,36.91,20.58c15.7,0,29.5-8.52,37.43-21.4l11.17,11.64c-12.88,7.92-21.4,21.73-21.4,37.43
	c0,15.36,8.16,28.91,20.58,36.91l-10.35,9.89c-8-12.42-21.54-20.58-36.91-20.58c-15.7,0-29.5,8.52-37.43,21.4L51.52,139.67z"/>
<circle class="st1" cx="55.12" cy="58.17" r="12.58"/>
<circle class="st1" cx="144.59" cy="58.17" r="12.58"/>
<circle class="st1" cx="55.12" cy="147.75" r="12.58"/>
<circle class="st1" cx="144.59" cy="147.75" r="12.58"/>
<path class="st2" d="M50.2,60.44c-1.36,0.4-2.79,0.62-4.28,0.62c-8.4,0-15.21-6.81-15.21-15.21c0-8.4,6.81-15.21,15.21-15.21
	c8.4,0,15.21,6.81,15.21,15.21c0,1.36-0.19,2.67-0.53,3.92c6.6,7.32,15.05,12.78,24.56,15.58c2.92-5.87,4.58-12.49,4.58-19.5
	c0-24.2-19.62-43.82-43.82-43.82C21.72,2.03,2.1,21.65,2.1,45.85c0,24.2,19.62,43.82,43.82,43.82c7.03,0,13.67-1.66,19.56-4.61
	C62.78,75.55,57.42,67.09,50.2,60.44z"/>
<path class="st2" d="M139.26,49.23c-0.25-1.09-0.39-2.22-0.39-3.38c0-8.4,6.81-15.21,15.21-15.21c8.4,0,15.21,6.81,15.21,15.21
	c0,8.4-6.81,15.21-15.21,15.21c-0.92,0-1.82-0.1-2.7-0.25c-7.61,6.5-13.35,14.94-16.38,24.5c5.77,2.8,12.25,4.37,19.09,4.37
	c24.2,0,43.82-19.62,43.82-43.82c0-24.2-19.62-43.82-43.82-43.82c-24.2,0-43.82,19.62-43.82,43.82c0,6.94,1.62,13.5,4.49,19.33
	C124.28,62.27,132.71,56.68,139.26,49.23z"/>
<path class="st2" d="M60.74,150.79c0.24,1.08,0.38,2.2,0.38,3.36c0,8.4-6.81,15.21-15.21,15.21c-8.4,0-15.21-6.81-15.21-15.21
	c0-8.4,6.81-15.21,15.21-15.21c0.93,0,1.84,0.1,2.73,0.26c7.6-6.5,13.34-14.94,16.37-24.5c-5.77-2.8-12.25-4.37-19.09-4.37
	c-24.2,0-43.82,19.62-43.82,43.82c0,24.2,19.62,43.82,43.82,43.82c24.2,0,43.82-19.62,43.82-43.82c0-6.93-1.62-13.48-4.48-19.31
	C75.73,137.75,67.29,143.34,60.74,150.79z"/>
<path class="st2" d="M154.08,110.33c-7.03,0-13.67,1.67-19.56,4.61c2.69,9.51,8.05,17.98,15.26,24.63c1.37-0.4,2.81-0.63,4.3-0.63
	c8.4,0,15.21,6.81,15.21,15.21c0,8.4-6.81,15.21-15.21,15.21c-8.4,0-15.21-6.81-15.21-15.21c0-1.35,0.19-2.65,0.52-3.9
	c-6.6-7.32-15.05-12.78-24.57-15.58c-2.92,5.87-4.57,12.48-4.57,19.48c0,24.2,19.62,43.82,43.82,43.82
	c24.2,0,43.82-19.62,43.82-43.82C197.9,129.95,178.28,110.33,154.08,110.33z"/>
<path class="st3" d="M94.18,94.19c-3.21,3.21-3.21,8.42,0,11.63c3.21,3.21,8.42,3.21,11.63,0c3.21-3.21,3.21-8.42,0-11.63
	C102.61,90.98,97.39,90.98,94.18,94.19z"/>
<path class="st3" d="M154.08,138.94c-1.5,0-2.94,0.22-4.3,0.63c-7.21-6.65-12.57-15.12-15.26-24.63c-1.27-4.48-1.95-9.19-1.95-14.06
	c0-5.42,0.86-10.65,2.43-15.58c3.04-9.56,8.78-18,16.38-24.5c0.88,0.16,1.78,0.25,2.7,0.25c8.4,0,15.21-6.81,15.21-15.21
	c0-8.4-6.81-15.21-15.21-15.21c-8.4,0-15.21,6.81-15.21,15.21c0,1.16,0.14,2.29,0.39,3.38c-6.55,7.45-14.98,13.04-24.51,15.95
	c-4.78,1.46-9.83,2.26-15.07,2.26c-5.04,0-9.91-0.74-14.53-2.1c-9.51-2.8-17.96-8.26-24.56-15.58c0.33-1.25,0.53-2.56,0.53-3.92
	c0-8.4-6.81-15.21-15.21-15.21c-8.4,0-15.21,6.81-15.21,15.21c0,8.4,6.81,15.21,15.21,15.21c1.49,0,2.92-0.22,4.28-0.62
	c7.22,6.65,12.58,15.11,15.27,24.62c1.27,4.49,1.96,9.2,1.96,14.08c0,5.42-0.86,10.63-2.42,15.56c-3.03,9.56-8.76,18-16.37,24.5
	c-0.89-0.16-1.79-0.26-2.73-0.26c-8.4,0-15.21,6.81-15.21,15.21c0,8.4,6.81,15.21,15.21,15.21c8.4,0,15.21-6.81,15.21-15.21
	c0-1.16-0.14-2.28-0.38-3.36c6.55-7.45,14.99-13.04,24.51-15.95c4.78-1.46,9.83-2.26,15.06-2.26c5.03,0,9.9,0.74,14.52,2.1
	c9.51,2.8,17.96,8.26,24.57,15.58c-0.33,1.25-0.52,2.55-0.52,3.9c0,8.4,6.81,15.21,15.21,15.21c8.4,0,15.21-6.81,15.21-15.21
	C169.29,145.75,162.48,138.94,154.08,138.94z M111.54,111.54c-6.36,6.36-16.71,6.36-23.08,0c-6.36-6.36-6.36-16.71,0-23.08
	s16.72-6.36,23.08,0C117.9,94.82,117.9,105.18,111.54,111.54z"/>
<path class="st4" d="M88.46,88.46c-6.36,6.36-6.36,16.71,0,23.08c6.36,6.36,16.71,6.37,23.08,0s6.36-16.72,0-23.08
	C105.18,82.1,94.82,82.1,88.46,88.46z M105.81,105.82c-3.21,3.21-8.42,3.21-11.63,0c-3.21-3.21-3.21-8.42,0-11.63
	c3.21-3.21,8.42-3.21,11.63,0C109.02,97.39,109.02,102.61,105.81,105.82z"/>
</svg>
