<?xml version="1.0" encoding="utf-8"?>
<!-- Generator: Adobe Illustrator 27.5.0, SVG Export Plug-In . SVG Version: 6.00 Build 0)  -->
<svg version="1.1" id="Calque_2" xmlns="http://www.w3.org/2000/svg" xmlns:xlink="http://www.w3.org/1999/xlink" x="0px" y="0px"
	 viewBox="0 0 200 200" style="enable-background:new 0 0 200 200;" xml:space="preserve">
<style type="text/css">
	.st0{fill:#172748;}
	.st1{fill:#1AA395;}
</style>
<g>
	<path class="st0" d="M164.79,177.46L164.79,177.46L111.33,12.7c-0.01-0.03-0.02-0.05-0.03-0.08l-0.03-0.08l0,0
		c-1.52-4.69-5.92-8.08-11.11-8.08c-5.3,0-9.77,3.53-11.2,8.36l0,0L53.53,122.93l93.48,67.75c1.89,1.32,4.2,2.11,6.68,2.11
		c6.45,0,11.68-5.23,11.68-11.68C165.38,179.83,165.17,178.61,164.79,177.46z"/>
	<path class="st1" d="M53.53,122.93l17.81-55.36H13.88c-6.45,0-11.68,5.23-11.68,11.68c0,3.57,1.6,6.75,4.12,8.89l0,0l0.03,0.02
		c0.39,0.33,0.8,0.63,1.22,0.9L53.53,122.93z"/>
	<path class="st1" d="M53.52,122.92l47.11,34.1l-46.33,33.99c-5.2,3.82-12.52,2.69-16.33-2.51c-2.11-2.87-2.7-6.39-1.94-9.61l0,0
		l0.01-0.04c0.12-0.49,0.27-0.97,0.45-1.45L53.52,122.92z"/>
	<path class="st1" d="M146.8,122.93l-17.81-55.36h57.47c6.45,0,11.68,5.23,11.68,11.68c0,3.57-1.6,6.75-4.12,8.89l0,0l-0.03,0.02
		c-0.39,0.33-0.8,0.63-1.22,0.9L146.8,122.93z"/>
</g>
</svg>
