<?xml version="1.0" encoding="utf-8"?>
<!-- Generator: Adobe Illustrator 27.5.0, SVG Export Plug-In . SVG Version: 6.00 Build 0)  -->
<svg version="1.1" xmlns="http://www.w3.org/2000/svg" xmlns:xlink="http://www.w3.org/1999/xlink" x="0px" y="0px"
	 viewBox="0 0 200 200" style="enable-background:new 0 0 200 200;" xml:space="preserve">
<style type="text/css">
	.st0{fill:#FFFFFF;stroke:#FFFFFF;stroke-width:8;stroke-linecap:round;stroke-linejoin:round;stroke-miterlimit:10;}
	.st1{display:none;fill:#1AA395;}
	.st2{display:none;opacity:0.56;fill:#1AA395;enable-background:new    ;}
	.st3{fill:#172748;}
	.st4{fill:#1AA395;}
</style>
<g id="Calque_2">
	<path class="st0" d="M192.2,95.1L104.8,7.8c-1.3-1.3-3.1-2-4.8-2h-0.1c-1.7,0-3.4,0.7-4.7,2L7.8,95.1c-2.7,2.7-2.7,7,0,9.7
		l87.4,87.4c1.3,1.3,3,2,4.7,2v0h0.1c1.8,0,3.5-0.7,4.8-2l87.4-87.4C194.9,102.2,194.9,97.8,192.2,95.1z M123.4,119.7L100,142.9
		l-0.1-0.1l-23.2-23.2H98V81.4H75.6l24.3-24.3v0.1l0.1-0.1l24.4,24.4h-21.8v38.2H123.4z"/>
</g>
<g id="Calque_3">
	<path class="st1" d="M51.5,139.7c12.9-7.9,21.4-21.7,21.4-37.4c0-15.4-8.2-28.9-20.6-36.9l10.3-9.9C70.7,67.9,84.2,76,99.6,76
		c15.7,0,29.5-8.5,37.4-21.4l11.2,11.6c-12.9,7.9-21.4,21.7-21.4,37.4c0,15.4,8.2,28.9,20.6,36.9l-10.4,9.9
		c-8-12.4-21.5-20.6-36.9-20.6c-15.7,0-29.5,8.5-37.4,21.4L51.5,139.7z"/>
	<circle class="st2" cx="55.1" cy="58.2" r="12.6"/>
	<circle class="st2" cx="144.6" cy="58.2" r="12.6"/>
	<circle class="st2" cx="55.1" cy="147.8" r="12.6"/>
	<circle class="st2" cx="144.6" cy="147.8" r="12.6"/>
	<g>
		<path class="st3" d="M192.2,95.1L104.8,7.8c-1.3-1.3-3.1-2-4.8-2h-0.1v51.4l0.1-0.1l24.4,24.4h-21.8v38.2h20.8L100,142.9l-0.1-0.1
			v51.4h0.1c1.8,0,3.5-0.7,4.8-2l87.4-87.4C194.9,102.2,194.9,97.8,192.2,95.1z"/>
		<path class="st4" d="M99.9,5.8c-1.7,0-3.4,0.7-4.7,2L7.8,95.1c-2.7,2.7-2.7,7,0,9.7l87.4,87.4c1.3,1.3,3,2,4.7,2v-51.4l-23.2-23.2
			H98V81.4H75.6l24.3-24.3C99.9,57.1,99.9,5.8,99.9,5.8z"/>
	</g>
</g>
</svg>
