<?xml version="1.0" encoding="utf-8"?>
<!-- Generator: Adobe Illustrator 27.5.0, SVG Export Plug-In . SVG Version: 6.00 Build 0)  -->
<svg version="1.1" id="Calque_2" xmlns="http://www.w3.org/2000/svg" xmlns:xlink="http://www.w3.org/1999/xlink" x="0px" y="0px"
	 viewBox="0 0 200 200" style="enable-background:new 0 0 200 200;" xml:space="preserve">
<style type="text/css">
	.st0{fill:#1AA395;}
	.st1{fill:#172748;}
	.st2{fill:#FFFFFF;}
</style>
<g>
	<g>
		<g>
			<path class="st0" d="M100.7,9.7c-0.2,0-0.4,0-0.5,0c-32.9,0-61.6,18.1-76.7,44.9l25.6,44.6L100.7,9.7z"/>
		</g>
	</g>
	<g>
		<g>
			<path class="st1" d="M178,55.1c-0.1-0.2-0.2-0.3-0.3-0.5c-16.4-28.5-46.3-45.2-77-44.9L74.7,55h51.9L178,55.1z"/>
		</g>
	</g>
	<g>
		<g>
			<path class="st0" d="M178.2,145.5c0.1-0.2,0.2-0.3,0.3-0.5c16.5-28.5,15.2-63.6-0.5-90l-52.3-0.1L178.2,145.5z"/>
		</g>
	</g>
	<g>
		<path class="st1" d="M98.7,190.2c0.2,0,0.4,0,0.5,0c32.9,0.1,63.9-18,79-44.7l-27-46.3L98.7,190.2z"/>
	</g>
	<g>
		<g>
			<path class="st0" d="M20.7,143.4c0.1,0.2,0.2,0.3,0.2,0.5c16.4,28.5,46.8,46.7,77.6,46.4l27.1-46.8H20.7V143.4z"/>
		</g>
	</g>
	<g>
		<path class="st1" d="M23.4,54.7c-0.1,0.2-0.2,0.3-0.3,0.5C6.7,83.8,5,117.1,20.7,143.5h53.9L23.4,54.7z"/>
	</g>
</g>
<polygon class="st2" points="83.58,70.11 116.82,70.11 133.38,99.22 116.72,128.39 83.52,128.39 66.92,99.22 "/>
</svg>
