<?xml version="1.0" encoding="utf-8"?>
<!-- Generator: Adobe Illustrator 27.5.0, SVG Export Plug-In . SVG Version: 6.00 Build 0)  -->
<svg version="1.1" id="Calque_3" xmlns="http://www.w3.org/2000/svg" xmlns:xlink="http://www.w3.org/1999/xlink" x="0px" y="0px"
	 viewBox="0 0 200 200" style="enable-background:new 0 0 200 200;" xml:space="preserve">
<style type="text/css">
	.st0{opacity:0.33;fill:#1AA395;}
	.st1{opacity:0.5;}
	.st2{fill:#1AA395;}
	.st3{opacity:0.15;fill:#1AA395;}
</style>
<path class="st0" d="M152.23,195.83H50.68c-3.63,0-6.61-2.97-6.61-6.61v0c0-3.63,2.97-6.61,6.61-6.61h101.55
	c3.63,0,6.61,2.97,6.61,6.61v0C158.84,192.86,155.86,195.83,152.23,195.83z"/>
<g class="st1">
	<path class="st2" d="M105.81,73.85c-3.21-3.21-8.42-3.2-11.63,0c-3.21,3.21-3.21,8.42,0,11.63c3.21,3.21,8.42,3.21,11.63,0
		C109.02,82.27,109.02,77.06,105.81,73.85z"/>
	<path class="st2" d="M66.76,129.53c-3.21,3.21-3.21,8.42,0,11.63c3.21,3.21,8.42,3.2,11.63,0c3.21-3.21,3.21-8.42,0-11.63
		C75.18,126.32,69.97,126.32,66.76,129.53z"/>
	<path class="st2" d="M121.61,129.53c-3.21,3.21-3.21,8.42,0,11.63c3.21,3.21,8.42,3.21,11.63,0c3.21-3.21,3.21-8.43,0-11.63
		C130.03,126.32,124.82,126.32,121.61,129.53z"/>
	<path class="st2" d="M198.09,44.47c0-5.88-4.77-10.64-10.64-10.64c-2.49,0-4.78,0.86-6.59,2.3l-0.01,0l-37.41,29.35
		c-1.63,1.01-3.55,1.6-5.61,1.6c-3.69,0-7.11-1.25-8.85-4.72L110.57,13.6l0,0c-0.6-5.31-5.1-9.44-10.57-9.44
		c-4.82,0-8.89,3.21-10.2,7.6l0,0L70.82,63.2c0,0-4.11,8.63-14.75,1.51c-6.48-4.34-36.62-28.33-36.62-28.33l0,0
		c-1.86-1.59-4.26-2.55-6.9-2.55c-5.88,0-10.64,4.77-10.64,10.64c0,1.32,0.25,2.57,0.69,3.74l-0.01,0.01l39.85,113.46l0,0
		c1.28,4.19,5.08,7.27,9.64,7.5l0.01,0.01h0.15c0.13,0,0.25,0.02,0.37,0.02c0.13,0,0.25-0.01,0.37-0.02l94.28,0.02l0.01-0.01
		c0.03,0,0.07,0.01,0.1,0.01c4.86,0,8.95-3.26,10.23-7.72l0.01,0l39.82-113.34l0,0C197.85,46.99,198.09,45.76,198.09,44.47z
		 M138.97,146.89c-6.36,6.36-16.72,6.36-23.08,0c-5.37-5.37-6.19-13.58-2.49-19.84l-13.34-13.34l-13.42,13.42
		c3.65,6.25,2.82,14.41-2.54,19.76c-6.36,6.36-16.72,6.36-23.08,0c-6.36-6.36-6.36-16.72,0-23.08c5.4-5.4,13.66-6.2,19.93-2.44
		l14.82-14.82l0-2.28c0-0.01,0-0.01,0-0.02l0-1.88l0-1.78c0-0.01,0-0.02,0-0.02l0-5.17c-2.68-0.71-5.22-2.11-7.32-4.21
		c-6.36-6.36-6.36-16.71,0-23.08s16.72-6.36,23.08,0c6.36,6.36,6.36,16.72,0,23.08c-2.19,2.19-4.86,3.61-7.66,4.29l0,4.55
		c0,0.03,0,0.06,0,0.09l0,5.95l15.25,15.25c6.26-3.71,14.47-2.89,19.84,2.48C145.33,130.17,145.33,140.52,138.97,146.89z"/>
</g>
<path class="st3" d="M138.97,123.81c-5.38-5.38-13.59-6.19-19.84-2.48l-15.25-15.25l0-5.95c0-0.03,0-0.06,0-0.09l0-4.55
	c2.81-0.68,5.47-2.1,7.66-4.29c6.36-6.36,6.36-16.72,0-23.08c-6.36-6.36-16.72-6.36-23.08,0s-6.36,16.71,0,23.08
	c2.1,2.1,4.64,3.49,7.32,4.21l0,5.17c0,0.01,0,0.02,0,0.02l0,1.78l0,1.88c0,0.01,0,0.01,0,0.02l0,2.28l-14.82,14.82
	c-6.27-3.76-14.53-2.96-19.93,2.44c-6.36,6.36-6.36,16.72,0,23.08c6.36,6.36,16.72,6.36,23.08,0c5.35-5.35,6.18-13.51,2.54-19.76
	l13.42-13.42l13.34,13.34c-3.7,6.26-2.89,14.47,2.49,19.84c6.36,6.36,16.72,6.36,23.08,0C145.33,140.52,145.33,130.17,138.97,123.81
	z M78.39,141.16c-3.21,3.21-8.42,3.21-11.63,0c-3.21-3.21-3.21-8.43,0-11.63c3.21-3.21,8.42-3.21,11.63,0
	C81.6,132.74,81.59,137.95,78.39,141.16z M94.18,73.85c3.21-3.21,8.42-3.21,11.63,0c3.21,3.21,3.21,8.43,0,11.63
	c-3.21,3.21-8.42,3.21-11.63,0C90.97,82.27,90.98,77.06,94.18,73.85z M133.24,141.16c-3.21,3.21-8.42,3.2-11.63,0
	c-3.21-3.21-3.21-8.42,0-11.63c3.21-3.21,8.42-3.21,11.63,0C136.45,132.74,136.45,137.96,133.24,141.16z"/>
</svg>
