<?xml version="1.0" encoding="utf-8"?>
<!-- Generator: Adobe Illustrator 27.5.0, SVG Export Plug-In . SVG Version: 6.00 Build 0)  -->
<svg version="1.1" id="Calque_3" xmlns="http://www.w3.org/2000/svg" xmlns:xlink="http://www.w3.org/1999/xlink" x="0px" y="0px"
	 viewBox="0 0 200 200" style="enable-background:new 0 0 200 200;" xml:space="preserve">
<style type="text/css">
	.st0{opacity:0.33;fill:#1AA395;}
	.st1{opacity:0.5;fill:#1AA395;}
	.st2{opacity:0.15;fill:#1AA395;}
</style>
<path class="st0" d="M148.12,22.84c-0.08-5.36-4.44-9.68-9.82-9.68c-1.88,0-3.64,0.54-5.13,1.46l-0.01-0.01L100,35.1v54.84
	l46.18-26.74c0,0,1.95-1.04,1.95-3.41C148.13,58.35,148.13,22.84,148.12,22.84L148.12,22.84z"/>
<path class="st1" d="M51.88,22.84c0.08-5.36,4.44-9.68,9.82-9.68c1.88,0,3.64,0.54,5.13,1.46l0.01-0.01L100,35.1v54.84L53.82,63.2
	c0,0-1.95-1.04-1.95-3.41C51.87,58.35,51.87,22.84,51.88,22.84L51.88,22.84z"/>
<path class="st2" d="M145.08,184.24c4.68,2.61,10.61,0.99,13.3-3.67c0.94-1.63,1.35-3.42,1.3-5.17l0.01-0.01l-1.18-38.97
	l-47.49-27.41l0.08,53.36c0,0-0.08,2.21,1.98,3.39C114.32,166.49,145.07,184.24,145.08,184.24L145.08,184.24z"/>
<path class="st1" d="M193.19,100.88c4.6,2.75,6.17,8.69,3.48,13.35c-0.94,1.63-2.28,2.88-3.83,3.72l0,0.01l-34.33,18.47
	l-47.49-27.41l46.25-26.62c0,0,1.88-1.17,3.93,0.01C162.43,83.12,193.19,100.87,193.19,100.88L193.19,100.88z"/>
<path class="st2" d="M54.92,184.24c-4.68,2.61-10.61,0.99-13.3-3.67c-0.94-1.63-1.35-3.42-1.3-5.17l-0.01-0.01l1.18-38.97
	l47.49-27.41l-0.08,53.36c0,0,0.08,2.21-1.98,3.39C85.68,166.49,54.93,184.24,54.92,184.24L54.92,184.24z"/>
<path class="st1" d="M6.81,100.88c-4.6,2.75-6.17,8.69-3.48,13.35c0.94,1.63,2.28,2.88,3.83,3.72l0,0.01l34.33,18.47l47.49-27.41
	L42.74,82.39c0,0-1.88-1.17-3.93,0.01C37.57,83.12,6.81,100.87,6.81,100.88L6.81,100.88z"/>
</svg>
