<?xml version="1.0" encoding="utf-8"?>
<!-- Generator: Adobe Illustrator 27.5.0, SVG Export Plug-In . SVG Version: 6.00 Build 0)  -->
<svg version="1.1" id="Calque_3" xmlns="http://www.w3.org/2000/svg" xmlns:xlink="http://www.w3.org/1999/xlink" x="0px" y="0px"
	 viewBox="0 0 200 200" style="enable-background:new 0 0 200 200;" xml:space="preserve">
<style type="text/css">
	.st0{opacity:0.15;fill:#1AA395;}
	.st1{opacity:0.5;fill:#1AA395;}
	.st2{opacity:0.33;fill:#1AA395;}
</style>
<path class="st0" d="M169.74,137.87c-1.75-0.73-4.1,0.29-4.1,0.29c-3.82-4.72-11.63,2.1-11.63,2.1s-11.51,9.93-14.42,12.17
	c-1.68,1.29-3.55,2.44-4.84,3.18c1.24,1.69,1.9,3.62,1.9,5.64c0,6.28-5.11,11.39-11.39,11.39l-0.13,0
	c-2.9-0.19-10.18-1.24-16.38-2.51c-13.76-2.82-17.68-2.58-24.94-0.24c-1.06,0.34-2.19-0.24-2.54-1.3c-0.34-1.06,0.24-2.19,1.3-2.54
	c8.41-2.72,13.2-2.7,26.98,0.12c5.9,1.21,13,2.25,15.76,2.43c4.03-0.03,7.3-3.32,7.3-7.36c0-1.75-0.9-3.3-2.26-4.49
	c-1.17-0.22-2.21-0.35-3.36-0.52c-4.74-0.69-22.93-2.79-39.96-10.67c-10.45-4.83-20.5-5.79-27.45-4.72
	c-11.2,1.72-18.17,9.31-23.14,12.55c-4.98,3.25-13.29,6.86-15.55,7.71c-3.24,1.23-4.81,1.78-4.43,5.46
	c0.37,3.57,2.09,15.92,10.13,24.16c2.91,2.98,3.22,3.24,6.87,1.59c6.39-2.9,17.56-8.33,21.23-9.39c7.72-2.22,11.42-1.31,20.36,1.16
	c11.9,3.28,18.36,5.99,29.13,7.3c8.89,1.09,10.38-0.66,15.96-3.53c5.26-2.7,27.03-14.19,30.28-16.17c4.18-2.54,5.16-4.3,9.18-9.85
	c3.9-5.39,9.67-13.07,12.11-16.89C173.69,141.87,172.03,138.83,169.74,137.87z"/>
<polygon class="st1" points="99.55,24.33 99.35,24.61 99.76,24.61 "/>
<path class="st2" d="M99.06,140.08c0.24,0.01,0.47,0.02,0.71,0.02c0.1,0,0.2-0.01,0.31-0.01l25.02-79.58H75.42L99.06,140.08z"/>
<path class="st2" d="M157.08,69.3L157.08,69.3L157,69.12c-0.09-0.21-0.19-0.41-0.3-0.61l-3.87-8.01h-24.9l-24.92,79.28
	c4.04-0.77,7.58-2.95,10.09-6.01h0l40.96-45.87l0,0c2.8-3.06,4.5-7.14,4.5-11.61C158.56,73.8,158.03,71.44,157.08,69.3z"/>
<path class="st2" d="M47.63,60.5l-3.41,7.62c-0.4,0.74-0.74,1.51-1.03,2.3l0,0.01l0,0c-0.66,1.83-1.02,3.8-1.02,5.86
	c0,3.82,1.25,7.35,3.35,10.21l0,0l0,0c0.54,0.73,1.13,1.41,1.77,2.05l39.16,45.22h0c2.42,2.96,5.81,5.09,9.69,5.93L72.6,60.5H47.63z
	"/>
<polygon class="st1" points="99.76,24.61 99.35,24.61 76.56,57.51 123.88,57.51 "/>
<path class="st1" d="M73.93,24.61c-6.22,0-11.61,3.61-14.17,8.84l0,0l-0.02,0.04c-0.14,0.29-0.27,0.58-0.39,0.87L48.97,57.51h24.3
	l22.79-32.9H73.93z"/>
<path class="st1" d="M151.39,57.51l-11.41-23.62l-0.01,0c-2.4-5.29-7.63-9.02-13.77-9.26l-0.02-0.02h-23.07l24.12,32.9H151.39z"/>
<path class="st1" d="M158.61,12.65h13.1c3.07,0,5.56,2.49,5.56,5.56v13.1c0,3.07-2.49,5.56-5.56,5.56h-13.1
	c-3.07,0-5.56-2.49-5.56-5.56v-13.1C153.04,15.14,155.53,12.65,158.61,12.65z"/>
<path class="st1" d="M173.41,6.01h7.37c1.73,0,3.13,1.4,3.13,3.13v7.37c0,1.73-1.4,3.13-3.13,3.13h-7.37c-1.73,0-3.13-1.4-3.13-3.13
	V9.14C170.28,7.41,171.68,6.01,173.41,6.01z"/>
</svg>
