<?xml version="1.0" encoding="utf-8"?>
<!-- Generator: Adobe Illustrator 27.5.0, SVG Export Plug-In . SVG Version: 6.00 Build 0)  -->
<svg version="1.1" id="Calque_3" xmlns="http://www.w3.org/2000/svg" xmlns:xlink="http://www.w3.org/1999/xlink" x="0px" y="0px"
	 viewBox="0 0 200 200" style="enable-background:new 0 0 200 200;" xml:space="preserve">
<style type="text/css">
	.st0{display:none;fill:#1AA395;}
	.st1{display:none;opacity:0.56;fill:#1AA395;}
	.st2{opacity:0.5;fill:#1AA395;}
	.st3{opacity:0.33;fill:#1AA395;}
</style>
<path class="st0" d="M51.52,139.67c12.88-7.92,21.4-21.73,21.4-37.43c0-15.36-8.16-28.91-20.58-36.91l10.35-9.89
	c8,12.42,21.54,20.58,36.91,20.58c15.7,0,29.5-8.52,37.43-21.4l11.17,11.64c-12.88,7.92-21.4,21.73-21.4,37.43
	c0,15.36,8.16,28.91,20.58,36.91l-10.35,9.89c-8-12.42-21.54-20.58-36.91-20.58c-15.7,0-29.5,8.52-37.43,21.4L51.52,139.67z"/>
<circle class="st1" cx="55.12" cy="58.17" r="12.58"/>
<circle class="st1" cx="144.59" cy="58.17" r="12.58"/>
<circle class="st1" cx="55.12" cy="147.75" r="12.58"/>
<circle class="st1" cx="144.59" cy="147.75" r="12.58"/>
<g>
	<path class="st2" d="M33.01,44.35c-8.28-4.88-18.73,1.09-18.73,10.71v89.89c0,9.61,10.45,15.58,18.73,10.71l53.5-31.5v-48.3
		L33.01,44.35z"/>
	<path class="st3" d="M181.56,89.29l-76.33-44.95c-8.28-4.88-18.73,1.09-18.73,10.71v20.8v48.3v20.8c0,9.61,10.45,15.58,18.73,10.71
		l76.33-44.95C189.72,105.9,189.72,94.1,181.56,89.29z"/>
</g>
</svg>
