<?xml version="1.0" encoding="utf-8"?>
<!-- Generator: Adobe Illustrator 27.5.0, SVG Export Plug-In . SVG Version: 6.00 Build 0)  -->
<svg version="1.1" id="Calque_2" xmlns="http://www.w3.org/2000/svg" xmlns:xlink="http://www.w3.org/1999/xlink" x="0px" y="0px"
	 viewBox="0 0 200 200" style="enable-background:new 0 0 200 200;" xml:space="preserve">
<style type="text/css">
	.st0{opacity:0.33;fill:#1AA294;}
	.st1{opacity:0.15;}
	.st2{fill:#1AA294;}
	.st3{opacity:0.5;fill:#1AA294;}
</style>
<path class="st0" d="M158.54,156.54l-12.58,7.26c-2.1,1.21-3.4,3.46-3.4,5.88v14.53c0,2.43,1.29,4.67,3.4,5.88l12.58,7.26
	c2.1,1.21,4.69,1.21,6.79,0l12.58-7.26c2.1-1.21,3.4-3.46,3.4-5.88v-14.53c0-2.43-1.29-4.67-3.4-5.88l-12.58-7.26
	C163.23,155.33,160.64,155.33,158.54,156.54z"/>
<g class="st1">
	<g>
		<g>
			<path class="st2" d="M59.29,104.29V72.33c-3.51-0.02-7.02,0.87-10.16,2.68L11.97,96.47c-6.21,3.58-10.03,10.21-10.03,17.38v42.91
				c0,7.17,3.82,13.79,10.03,17.38l37.16,21.45c6.21,3.58,13.86,3.58,20.06,0l37.16-21.45c6.21-3.58,10.03-10.21,10.03-17.38v-5.46
				l-44.93-25.94C63.93,121.01,59.29,112.98,59.29,104.29z"/>
		</g>
	</g>
</g>
<path class="st3" d="M185.9,31.19L140.84,5.18c-7.53-4.35-16.8-4.35-24.33,0L71.45,31.19c-7.53,4.35-12.16,12.38-12.16,21.07v20.07
	v31.96c0,8.69,4.64,16.72,12.16,21.07l44.93,25.94l0.13,0.07c7.53,4.35,16.8,4.35,24.33,0l45.06-26.01
	c7.53-4.35,12.16-12.38,12.16-21.07V52.26C198.06,43.57,193.43,35.54,185.9,31.19z"/>
</svg>
