<?xml version="1.0" encoding="utf-8"?>
<!-- Generator: Adobe Illustrator 27.5.0, SVG Export Plug-In . SVG Version: 6.00 Build 0)  -->
<svg version="1.1" xmlns="http://www.w3.org/2000/svg" xmlns:xlink="http://www.w3.org/1999/xlink" x="0px" y="0px"
	 viewBox="0 0 200 200" style="enable-background:new 0 0 200 200;" xml:space="preserve">
<style type="text/css">
	.st0{fill:#FFFFFF;stroke:#FFFFFF;stroke-width:7.8097;stroke-linecap:round;stroke-linejoin:round;stroke-miterlimit:10;}
	.st1{fill:#1AA395;}
	.st2{fill:#172748;}
</style>
<g id="Calque_2">
	<path class="st0" d="M195.43,62.02L195.43,62.02l-16.51-31.64c-1.91-3.52-5.58-5.95-9.83-6.11l-0.04-0.02H99.6L62.04,61.81v-0.07
		L99.58,24.2L62.03,4.61v0.05l-31.64,16.5c-3.52,1.91-5.95,5.58-6.11,9.83l-0.02,0.04v69.46l37.48,37.48H61.7l-37.55-37.54
		L4.57,137.97H4.57l0,0l0,0h0.01l16.5,31.64c1.91,3.52,5.58,5.95,9.83,6.11l0.04,0.02h69.46l37.58-37.58v0.09l-37.54,37.54
		l37.54,19.58v0.01l0,0l0,0v-0.01l31.64-16.5c3.52-1.91,5.95-5.58,6.11-9.83l0.02-0.04V99.55l-37.53-37.53h0.06l37.55,37.54
		L195.43,62.02L195.43,62.02L195.43,62.02L195.43,62.02z M137.98,137.97H62.04V62.03h75.95V137.97z"/>
</g>
<g id="Calque_3">
	<g>
		<path class="st1" d="M30.39,21.17L30.39,21.17c-3.52,1.91-5.95,5.58-6.11,9.83l-0.02,0.04v69.46l37.78,37.78V4.66L30.39,21.17z"/>
		<polygon class="st2" points="99.58,24.2 62.03,61.75 62.03,4.61 		"/>
		<path class="st1" d="M178.93,30.38L178.93,30.38c-1.91-3.52-5.58-5.95-9.83-6.11l-0.04-0.02H99.6L61.82,62.03h133.61L178.93,30.38
			z"/>
		<polygon class="st2" points="175.85,99.57 138.29,62.02 195.43,62.02 		"/>
		<path class="st1" d="M169.63,178.88L169.63,178.88c3.52-1.91,5.95-5.58,6.11-9.83l0.02-0.04V99.55l-37.78-37.78v133.61
			L169.63,178.88z"/>
		<polygon class="st2" points="100.44,175.8 137.99,138.25 137.99,195.39 		"/>
		<path class="st1" d="M21.07,169.62L21.07,169.62c1.91,3.52,5.58,5.95,9.83,6.11l0.04,0.02h69.46l37.78-37.78H4.57L21.07,169.62z"
			/>
		<polygon class="st2" points="24.15,100.43 61.71,137.98 4.57,137.98 		"/>
	</g>
</g>
</svg>
