<?xml version="1.0" encoding="utf-8"?>
<!-- Generator: Adobe Illustrator 27.5.0, SVG Export Plug-In . SVG Version: 6.00 Build 0)  -->
<svg version="1.1" id="Calque_3" xmlns="http://www.w3.org/2000/svg" xmlns:xlink="http://www.w3.org/1999/xlink" x="0px" y="0px"
	 viewBox="0 0 200 200" style="enable-background:new 0 0 200 200;" xml:space="preserve">
<style type="text/css">
	.st0{display:none;fill:#1AA395;}
	.st1{display:none;opacity:0.56;fill:#1AA395;}
	.st2{opacity:0.33;}
	.st3{fill:#1AA395;}
	.st4{opacity:0.5;}
</style>
<path class="st0" d="M51.52,139.67c12.88-7.92,21.4-21.73,21.4-37.43c0-15.36-8.16-28.91-20.58-36.91l10.35-9.89
	c8,12.42,21.54,20.58,36.91,20.58c15.7,0,29.5-8.52,37.43-21.4l11.17,11.64c-12.88,7.92-21.4,21.73-21.4,37.43
	c0,15.36,8.16,28.91,20.58,36.91l-10.35,9.89c-8-12.42-21.54-20.58-36.91-20.58c-15.7,0-29.5,8.52-37.43,21.4L51.52,139.67z"/>
<circle class="st1" cx="55.12" cy="58.17" r="12.58"/>
<circle class="st1" cx="144.59" cy="58.17" r="12.58"/>
<circle class="st1" cx="55.12" cy="147.75" r="12.58"/>
<circle class="st1" cx="144.59" cy="147.75" r="12.58"/>
<g>
	<g>
		<g class="st2">
			<path class="st3" d="M196.03,94.96L105.04,3.97c-1.39-1.39-3.21-2.08-5.04-2.08c-0.03,0-0.07,0.01-0.1,0.01v53.49l0.1-0.1
				l25.38,25.38h-24.75v39.75h23.67l-24.3,24.3l-0.1-0.1v53.49c0.03,0,0.07,0.01,0.1,0.01c1.83,0,3.65-0.69,5.04-2.08l90.99-90.99
				C198.8,102.27,198.8,97.73,196.03,94.96z"/>
		</g>
		<g class="st4">
			<path class="st3" d="M99.9,1.9c-1.79,0.03-3.58,0.71-4.93,2.07L3.97,94.96c-2.77,2.77-2.77,7.3,0,10.07l90.99,90.99
				c1.36,1.36,3.14,2.04,4.93,2.07v-53.49L75.7,120.41H99.9V80.67H74.62L99.9,55.39V1.9z"/>
		</g>
	</g>
</g>
</svg>
