<?xml version="1.0" encoding="utf-8"?>
<!-- Generator: Adobe Illustrator 27.5.0, SVG Export Plug-In . SVG Version: 6.00 Build 0)  -->
<svg version="1.1" xmlns="http://www.w3.org/2000/svg" xmlns:xlink="http://www.w3.org/1999/xlink" x="0px" y="0px"
	 viewBox="0 0 200 200" style="enable-background:new 0 0 200 200;" xml:space="preserve">
<style type="text/css">
	.st0{display:none;}
	.st1{display:inline;}
	.st2{fill:#16A194;}
	.st3{display:inline;fill:#1A2747;}
	.st4{fill:#FFFFFF;}
	.st5{display:inline;fill:#16A194;}
	.st6{fill:#1A2747;}
</style>
<g id="Calque_2_00000178204740284903118130000004443098723116763311_" class="st0">
	<g class="st1">
		<path class="st2" d="M100.5,194c-0.7,0-1.3-0.1-1.9-0.4c-36.2-16.7-59.6-53.2-59.6-93s23.4-76.4,59.6-93c1.2-0.6,2.6-0.6,3.9,0
			c36.2,16.7,59.6,53.2,59.6,93s-23.4,76.3-59.6,93C101.8,193.9,101.2,194,100.5,194z M100.5,16.9c-31.8,15.6-52.3,48.2-52.3,83.7
			s20.4,68.1,52.3,83.7c31.8-15.6,52.3-48.2,52.3-83.7S132.3,32.4,100.5,16.9z"/>
		<path class="st2" d="M71.4,174c-11.9,0-23.8-2.1-35.3-6.3c-1.3-0.5-2.3-1.5-2.7-2.7C19.5,127.6,28.8,85.2,57,57.1
			c28.2-28.2,70.5-37.4,107.9-23.7c1.3,0.5,2.3,1.5,2.7,2.7c13.8,37.4,4.5,79.8-23.7,107.9C124.5,163.6,98.2,174,71.4,174z
			 M41.3,159.8c33.5,11.5,71,2.9,96.2-22.2c25.1-25.1,33.7-62.6,22.2-96.2c-33.5-11.5-71-2.9-96.2,22.2
			C38.4,88.7,29.8,126.2,41.3,159.8z"/>
		<path class="st2" d="M100.5,162.1c-39.8,0-76.4-23.4-93-59.6c-0.6-1.2-0.6-2.6,0-3.9C24.1,62.4,60.7,39,100.5,39
			s76.3,23.4,93,59.6c0.6,1.2,0.6,2.6,0,3.9C176.8,138.7,140.3,162.1,100.5,162.1z M16.8,100.6c15.6,31.8,48.2,52.3,83.7,52.3
			s68.1-20.4,83.7-52.3c-15.6-31.8-48.2-52.3-83.7-52.3C65,48.3,32.4,68.7,16.8,100.6z"/>
		<path class="st2" d="M129.6,174c-26.8,0-53.1-10.4-72.6-30C28.8,115.9,19.5,73.6,33.3,36.1c0.5-1.3,1.5-2.3,2.7-2.7
			c37.4-13.8,79.8-4.5,107.9,23.7s37.4,70.5,23.7,107.9c-0.5,1.3-1.5,2.3-2.7,2.7C153.4,172,141.4,174,129.6,174z M41.3,41.4
			c-11.5,33.5-2.9,71,22.2,96.2c25.1,25.1,62.6,33.7,96.2,22.2c11.5-33.5,2.9-71-22.2-96.2C112.3,38.5,74.8,29.9,41.3,41.4z"/>
	</g>
	<circle class="st3" cx="100.5" cy="100.5" r="55.9"/>
	<g class="st1">
		<path class="st4" d="M84.7,142.5c10,7.8,16.1,10.4,16.1,10.4s5.8-2.6,15.7-10.3l-15.9-20.4L84.7,142.5z"/>
		<path class="st4" d="M144.2,73.2c-6.1-8.8-25.1-16.2-43.6,2.3c-19-19-37.7-11.4-43.8-2.5c-11,15.9-6.6,37.4,11.7,55.3
			c3.1,3,6,5.7,8.8,8.1c3.2-8.2,9.5-24.2,10.4-26.9c1.2-3.7,1.8-5.7,0-7.4c-1.8-1.8-11.7-12-16.2-17.7c-4.5-5.7-1.9-8.5,3.9-5.5
			c3.5,1.8,16.2,8.3,25.2,11.3c8.9-2.9,21.6-9.4,25.2-11.3c5.7-3,8.4-0.1,3.9,5.5c-4.5,5.7-14.4,15.9-16.2,17.7
			c-1.8,1.8-1.2,3.7,0,7.4c0.9,2.8,7.2,19,10.4,27.1c2.7-2.4,5.6-5.1,8.7-8.1C150.8,110.6,155.2,89.1,144.2,73.2z"/>
		<path class="st2" d="M113.3,102.1c1.8-1.8,11.7-12,16.2-17.7c4.5-5.7,1.9-8.5-3.9-5.5c-3.5,1.8-16.2,8.3-25.2,11.3
			c-8.9-2.9-21.6-9.4-25.2-11.3c-5.7-3-8.4-0.1-3.9,5.5c4.5,5.7,14.4,15.9,16.2,17.7c1.8,1.8,1.2,3.7,0,7.4
			c-0.9,2.7-7.1,18.7-10.4,26.9c2.6,2.3,5.1,4.3,7.4,6.1l15.8-20.2l15.9,20.4c2.2-1.7,4.7-3.7,7.3-6c-3.2-8.1-9.6-24.3-10.4-27.1
			C112.2,105.8,111.6,103.8,113.3,102.1z"/>
	</g>
	<circle class="st5" cx="100.5" cy="74.7" r="11.8"/>
</g>
<g id="Calque_3">
	<path class="st2" d="M193.5,98.6c-4.9-10.7-11.6-20.3-19.6-28.5c-0.1-11.4-2.2-22.9-6.3-34c-0.4-1.2-1.4-2.2-2.7-2.7
		c-11.1-4-22.5-6.1-34-6.2c-8.2-8-17.8-14.6-28.4-19.6c-1.3-0.6-2.7-0.6-3.9,0c-10.7,4.9-20.3,11.6-28.4,19.5
		c-11.5,0.1-23,2.2-34.2,6.3c-1.2,0.4-2.2,1.4-2.7,2.7c-4.1,11.1-6.1,22.6-6.3,34.1c-8,8.2-14.6,17.8-19.5,28.4
		c-0.6,1.3-0.6,2.7,0,3.9c4.9,10.7,11.6,20.3,19.6,28.5c0.2,11.4,2.2,23,6.3,34c0.4,1.2,1.4,2.2,2.7,2.7c11.1,4,22.5,6.1,34,6.3
		c8.2,8,17.8,14.7,28.5,19.6c0.6,0.3,1.2,0.4,1.9,0.4s1.3-0.1,2-0.4c10.7-4.9,20.3-11.6,28.5-19.6c11.3-0.2,22.8-2.1,33.9-6.3
		c1.2-0.4,2.2-1.4,2.7-2.7c4-11,6.1-22.5,6.2-33.9c8-8.2,14.7-17.8,19.7-28.6C194.1,101.2,194.1,99.8,193.5,98.6z M164.7,127.2
		c-2.6,2.5-5.4,4.8-8.3,7c1.1-3.2,2.1-6.5,2.9-9.9c1.6-2.7,3.1-5.4,4.4-8.3C164.3,119.7,164.6,123.5,164.7,127.2z M127,164.8
		c-3.7-0.1-7.4-0.4-11-0.9c2.9-1.4,5.8-3,8.6-4.7c3.2-0.8,6.4-1.7,9.5-2.8C131.9,159.3,129.6,162.1,127,164.8z M73.9,164.8
		c-2.5-2.7-4.9-5.5-7.1-8.4c3.1,1.1,6.3,2,9.5,2.8c2.8,1.7,5.7,3.3,8.6,4.7C81.3,164.4,77.6,164.7,73.9,164.8z M37.2,116.2
		c1.4,3,3,5.8,4.7,8.7c0.8,3.2,1.7,6.3,2.8,9.4c-2.9-2.2-5.8-4.6-8.4-7.1C36.4,123.5,36.7,119.8,37.2,116.2z M36.3,74
		c2.7-2.5,5.5-4.9,8.4-7.1c-1.1,3-2,6.1-2.8,9.3c-1.7,2.8-3.3,5.7-4.7,8.7C36.7,81.3,36.4,77.7,36.3,74z M74,36.4
		c3.7,0.1,7.3,0.4,10.9,0.9c-2.9,1.4-5.7,2.9-8.4,4.5c-3.2,0.8-6.4,1.7-9.5,2.8C69.1,41.8,71.5,39,74,36.4z M127.1,36.4
		c2.5,2.6,4.8,5.4,7,8.3c-3.1-1.1-6.3-2-9.6-2.8c-2.7-1.6-5.5-3.2-8.4-4.5C119.7,36.8,123.4,36.5,127.1,36.4z M152.8,100.6
		c0,7.1-0.8,14-2.4,20.8c-3.6,5.8-8,11.3-12.9,16.2c-5,5-10.5,9.3-16.3,12.9c-6.7,1.5-13.6,2.4-20.7,2.4c-7.1,0-14-0.8-20.8-2.4
		c-5.8-3.6-11.3-8-16.2-12.9c-5-5-9.3-10.5-12.9-16.3c-1.5-6.7-2.4-13.6-2.4-20.7c0-7.1,0.8-14,2.4-20.8c3.6-5.8,8-11.3,12.9-16.2
		c5-5,10.5-9.3,16.3-12.9c6.7-1.5,13.6-2.4,20.7-2.4c7.1,0,14,0.8,20.7,2.4c5.8,3.6,11.3,8,16.3,12.9c5,5,9.3,10.5,12.9,16.3
		C152,86.6,152.8,93.6,152.8,100.6z M159.3,76.9c-0.8-3.3-1.8-6.6-2.9-9.9c2.9,2.2,5.7,4.5,8.3,7c-0.1,3.7-0.4,7.5-1,11.2
		C162.4,82.4,160.9,79.6,159.3,76.9z M164.1,61.3c-4.6-3.6-9.5-6.9-14.6-9.7c-2.8-5.1-6.1-10-9.7-14.6c6.7,0.7,13.4,2.2,19.9,4.4
		C161.9,47.9,163.4,54.6,164.1,61.3z M100.5,16.9c6.2,3,12,6.7,17.2,10.9c-5.8,0.7-11.6,1.8-17.2,3.5c-5.6-1.7-11.4-2.8-17.2-3.5
		C88.6,23.6,94.3,19.9,100.5,16.9z M61.3,36.9c-3.6,4.6-6.9,9.4-9.7,14.5c-5.2,2.8-10.1,6.1-14.8,9.8c0.7-6.7,2.2-13.4,4.4-19.9
		C47.8,39.2,54.5,37.7,61.3,36.9z M27.7,83.4c0.7,5.8,1.8,11.6,3.5,17.2c-1.6,5.6-2.8,11.4-3.5,17.2c-4.2-5.3-7.9-11-10.9-17.2
		C19.8,94.4,23.5,88.7,27.7,83.4z M36.9,139.8c4.6,3.7,9.5,6.9,14.7,9.7c2.8,5.2,6.1,10.1,9.7,14.7c-6.7-0.7-13.4-2.2-20-4.5
		C39.1,153.3,37.6,146.6,36.9,139.8z M100.5,184.3c-6.2-3-12-6.7-17.3-11c5.9-0.7,11.6-1.8,17.3-3.5c5.6,1.7,11.4,2.8,17.3,3.5
		C112.5,177.6,106.7,181.3,100.5,184.3z M139.8,164.2c3.7-4.6,7-9.6,9.8-14.8c5.1-2.8,10-6,14.6-9.7c-0.7,6.7-2.2,13.4-4.5,20
		C153.2,162,146.5,163.5,139.8,164.2z M173.2,118c-0.7-5.8-1.8-11.6-3.5-17.3c1.7-5.7,2.9-11.5,3.5-17.4c4.2,5.3,7.9,11.1,11,17.3
		C181.1,106.9,177.4,112.7,173.2,118z"/>
	<circle class="st6" cx="100.5" cy="100.5" r="55.9"/>
	<g>
		<path class="st4" d="M84.7,142.5c10,7.8,16.1,10.4,16.1,10.4s5.8-2.6,15.7-10.3l-15.9-20.4L84.7,142.5z"/>
		<path class="st4" d="M144.2,73.2c-6.1-8.8-25.1-16.2-43.6,2.3c-19-19-37.7-11.4-43.8-2.5c-11,15.9-6.6,37.4,11.7,55.3
			c3.1,3,6,5.7,8.8,8.1c3.2-8.2,9.5-24.2,10.4-26.9c1.2-3.7,1.8-5.7,0-7.4c-1.8-1.8-11.7-12-16.2-17.7c-4.5-5.7-1.9-8.5,3.9-5.5
			c3.5,1.8,16.2,8.3,25.2,11.3c8.9-2.9,21.6-9.4,25.2-11.3c5.7-3,8.4-0.1,3.9,5.5c-4.5,5.7-14.4,15.9-16.2,17.7
			c-1.8,1.8-1.2,3.7,0,7.4c0.9,2.8,7.2,19,10.4,27.1c2.7-2.4,5.6-5.1,8.7-8.1C150.8,110.6,155.2,89.1,144.2,73.2z"/>
		<path class="st2" d="M113.3,102.1c1.8-1.8,11.7-12,16.2-17.7c4.5-5.7,1.9-8.5-3.9-5.5c-3.5,1.8-16.2,8.3-25.2,11.3
			c-8.9-2.9-21.6-9.4-25.2-11.3c-5.7-3-8.4-0.1-3.9,5.5c4.5,5.7,14.4,15.9,16.2,17.7c1.8,1.8,1.2,3.7,0,7.4
			c-0.9,2.7-7.1,18.7-10.4,26.9c2.6,2.3,5.1,4.3,7.4,6.1l15.8-20.2l15.9,20.4c2.2-1.7,4.7-3.7,7.3-6c-3.2-8.1-9.6-24.3-10.4-27.1
			C112.2,105.8,111.6,103.8,113.3,102.1z"/>
	</g>
	<circle class="st2" cx="100.5" cy="74.7" r="11.8"/>
</g>
<g id="Calque_4" class="st0">
	<path class="st5" d="M164.7,127.2c-2.6,2.5-5.4,4.8-8.3,7c1.1-3.2,2.1-6.5,2.9-9.9c1.6-2.7,3.1-5.4,4.4-8.3
		C164.3,119.7,164.6,123.5,164.7,127.2z"/>
	<path class="st5" d="M127,164.8c-3.7-0.1-7.4-0.4-11-0.9c2.9-1.4,5.8-3,8.6-4.7c3.2-0.8,6.4-1.7,9.5-2.8
		C131.9,159.3,129.6,162.1,127,164.8z"/>
	<path class="st5" d="M73.9,164.8c-2.5-2.7-4.9-5.5-7.1-8.4c3.1,1.1,6.3,2,9.5,2.8c2.8,1.7,5.7,3.3,8.6,4.7
		C81.3,164.4,77.6,164.7,73.9,164.8z"/>
	<path class="st5" d="M37.2,116.2c1.4,3,3,5.8,4.7,8.7c0.8,3.2,1.7,6.3,2.8,9.4c-2.9-2.2-5.8-4.6-8.4-7.1
		C36.4,123.5,36.7,119.8,37.2,116.2z"/>
	<path class="st5" d="M36.3,74c2.7-2.5,5.5-4.9,8.4-7.1c-1.1,3-2,6.1-2.8,9.3c-1.7,2.8-3.3,5.7-4.7,8.7C36.7,81.3,36.4,77.7,36.3,74
		z"/>
	<path class="st5" d="M74,36.4c3.7,0.1,7.3,0.4,10.9,0.9c-2.9,1.4-5.7,2.9-8.4,4.5c-3.2,0.8-6.4,1.7-9.5,2.8
		C69.1,41.8,71.5,39,74,36.4z"/>
	<path class="st5" d="M127.1,36.4c2.5,2.6,4.8,5.4,7,8.3c-3.1-1.1-6.3-2-9.6-2.8c-2.7-1.6-5.5-3.2-8.4-4.5
		C119.7,36.8,123.4,36.5,127.1,36.4z"/>
	<path class="st5" d="M159.3,76.9c-0.8-3.3-1.8-6.6-2.9-9.9c2.9,2.2,5.7,4.5,8.3,7c-0.1,3.7-0.4,7.5-1,11.2
		C162.4,82.4,160.9,79.6,159.3,76.9z"/>
	<path class="st5" d="M164.1,61.3c-4.6-3.6-9.5-6.9-14.6-9.7c-2.8-5.1-6.1-10-9.7-14.6c6.7,0.7,13.4,2.2,19.9,4.4
		C161.9,47.9,163.4,54.6,164.1,61.3z"/>
	<path class="st5" d="M100.5,16.9c6.2,3,12,6.7,17.2,10.9c-5.8,0.7-11.6,1.8-17.2,3.5c-5.6-1.7-11.4-2.8-17.2-3.5
		C88.6,23.6,94.3,19.9,100.5,16.9z"/>
	<path class="st5" d="M61.3,36.9c-3.6,4.6-6.9,9.4-9.7,14.5c-5.2,2.8-10.1,6.1-14.8,9.8c0.7-6.7,2.2-13.4,4.4-19.9
		C47.8,39.2,54.5,37.7,61.3,36.9z"/>
	<path class="st5" d="M27.7,83.4c0.7,5.8,1.8,11.6,3.5,17.2c-1.6,5.6-2.8,11.4-3.5,17.2c-4.2-5.3-7.9-11-10.9-17.2
		C19.8,94.4,23.5,88.7,27.7,83.4z"/>
	<path class="st5" d="M36.9,139.8c4.6,3.7,9.5,6.9,14.7,9.7c2.8,5.2,6.1,10.1,9.7,14.7c-6.7-0.7-13.4-2.2-20-4.5
		C39.1,153.3,37.6,146.6,36.9,139.8z"/>
	<path class="st5" d="M100.5,184.3c-6.2-3-12-6.7-17.3-11c5.9-0.7,11.6-1.8,17.3-3.5c5.6,1.7,11.4,2.8,17.3,3.5
		C112.5,177.6,106.7,181.3,100.5,184.3z"/>
	<path class="st5" d="M139.8,164.2c3.7-4.6,7-9.6,9.8-14.8c5.1-2.8,10-6,14.6-9.7c-0.7,6.7-2.2,13.4-4.5,20
		C153.2,162,146.5,163.5,139.8,164.2z"/>
	<path class="st5" d="M173.2,118c-0.7-5.8-1.8-11.6-3.5-17.3c1.7-5.7,2.9-11.5,3.5-17.4c4.2,5.3,7.9,11.1,11,17.3
		C181.1,106.9,177.4,112.7,173.2,118z"/>
</g>
<g id="Calque_6">
	<path class="st6" d="M164.7,127.2c-2.6,2.5-5.4,4.8-8.3,7c1.1-3.2,2.1-6.5,2.9-9.9c1.6-2.7,3.1-5.4,4.4-8.3
		C164.3,119.7,164.6,123.5,164.7,127.2z"/>
	<path class="st6" d="M127,164.8c-3.7-0.1-7.4-0.4-11-0.9c2.9-1.4,5.8-3,8.6-4.7c3.2-0.8,6.4-1.7,9.5-2.8
		C131.9,159.3,129.6,162.1,127,164.8z"/>
	<path class="st6" d="M73.9,164.8c-2.5-2.7-4.9-5.5-7.1-8.4c3.1,1.1,6.3,2,9.5,2.8c2.8,1.7,5.7,3.3,8.6,4.7
		C81.3,164.4,77.6,164.7,73.9,164.8z"/>
	<path class="st6" d="M37.2,116.2c1.4,3,3,5.8,4.7,8.7c0.8,3.2,1.7,6.3,2.8,9.4c-2.9-2.2-5.8-4.6-8.4-7.1
		C36.4,123.5,36.7,119.8,37.2,116.2z"/>
	<path class="st6" d="M36.3,74c2.7-2.5,5.5-4.9,8.4-7.1c-1.1,3-2,6.1-2.8,9.3c-1.7,2.8-3.3,5.7-4.7,8.7C36.7,81.3,36.4,77.7,36.3,74
		z"/>
	<path class="st6" d="M74,36.4c3.7,0.1,7.3,0.4,10.9,0.9c-2.9,1.4-5.7,2.9-8.4,4.5c-3.2,0.8-6.4,1.7-9.5,2.8
		C69.1,41.8,71.5,39,74,36.4z"/>
	<path class="st6" d="M127.1,36.4c2.5,2.6,4.8,5.4,7,8.3c-3.1-1.1-6.3-2-9.6-2.8c-2.7-1.6-5.5-3.2-8.4-4.5
		C119.7,36.8,123.4,36.5,127.1,36.4z"/>
	<path class="st6" d="M159.3,76.9c-0.8-3.3-1.8-6.6-2.9-9.9c2.9,2.2,5.7,4.5,8.3,7c-0.1,3.7-0.4,7.5-1,11.2
		C162.4,82.4,160.9,79.6,159.3,76.9z"/>
</g>
<g id="Calque_5" class="st0">
	<path class="st3" d="M164.1,61.3c-4.6-3.6-9.5-6.9-14.6-9.7c-2.8-5.1-6.1-10-9.7-14.6c6.7,0.7,13.4,2.2,19.9,4.4
		C161.9,47.9,163.4,54.6,164.1,61.3z"/>
	<path class="st3" d="M100.5,16.9c6.2,3,12,6.7,17.2,10.9c-5.8,0.7-11.6,1.8-17.2,3.5c-5.6-1.7-11.4-2.8-17.2-3.5
		C88.6,23.6,94.3,19.9,100.5,16.9z"/>
	<path class="st3" d="M61.3,36.9c-3.6,4.6-6.9,9.4-9.7,14.5c-5.2,2.8-10.1,6.1-14.8,9.8c0.7-6.7,2.2-13.4,4.4-19.9
		C47.8,39.2,54.5,37.7,61.3,36.9z"/>
	<path class="st3" d="M27.7,83.4c0.7,5.8,1.8,11.6,3.5,17.2c-1.6,5.6-2.8,11.4-3.5,17.2c-4.2-5.3-7.9-11-10.9-17.2
		C19.8,94.4,23.5,88.7,27.7,83.4z"/>
	<path class="st3" d="M36.9,139.8c4.6,3.7,9.5,6.9,14.7,9.7c2.8,5.2,6.1,10.1,9.7,14.7c-6.7-0.7-13.4-2.2-20-4.5
		C39.1,153.3,37.6,146.6,36.9,139.8z"/>
	<path class="st3" d="M100.5,184.3c-6.2-3-12-6.7-17.3-11c5.9-0.7,11.6-1.8,17.3-3.5c5.6,1.7,11.4,2.8,17.3,3.5
		C112.5,177.6,106.7,181.3,100.5,184.3z"/>
	<path class="st3" d="M139.8,164.2c3.7-4.6,7-9.6,9.8-14.8c5.1-2.8,10-6,14.6-9.7c-0.7,6.7-2.2,13.4-4.5,20
		C153.2,162,146.5,163.5,139.8,164.2z"/>
	<path class="st3" d="M173.2,118c-0.7-5.8-1.8-11.6-3.5-17.3c1.7-5.7,2.9-11.5,3.5-17.4c4.2,5.3,7.9,11.1,11,17.3
		C181.1,106.9,177.4,112.7,173.2,118z"/>
</g>
</svg>
