<?xml version="1.0" encoding="utf-8"?>
<!-- Generator: Adobe Illustrator 27.5.0, SVG Export Plug-In . SVG Version: 6.00 Build 0)  -->
<svg version="1.1" id="Calque_3" xmlns="http://www.w3.org/2000/svg" xmlns:xlink="http://www.w3.org/1999/xlink" x="0px" y="0px"
	 viewBox="0 0 200 200" style="enable-background:new 0 0 200 200;" xml:space="preserve">
<style type="text/css">
	.st0{display:none;fill:#1AA395;}
	.st1{display:none;opacity:0.56;fill:#1AA395;enable-background:new    ;}
	.st2{fill:#1AA395;}
	.st3{fill:#172748;}
	.st4{fill:#FFFFFF;}
</style>
<path class="st0" d="M51.52,139.67c12.88-7.92,21.4-21.73,21.4-37.43c0-15.36-8.16-28.91-20.58-36.91l10.35-9.89
	c8,12.42,21.54,20.58,36.91,20.58c15.7,0,29.5-8.52,37.43-21.4l11.17,11.64c-12.88,7.92-21.4,21.73-21.4,37.43
	c0,15.36,8.16,28.91,20.58,36.91l-10.35,9.89c-8-12.42-21.54-20.58-36.91-20.58c-15.7,0-29.5,8.52-37.43,21.4L51.52,139.67z"/>
<circle class="st1" cx="55.12" cy="58.17" r="12.58"/>
<circle class="st1" cx="144.59" cy="58.17" r="12.58"/>
<circle class="st1" cx="55.12" cy="147.75" r="12.58"/>
<circle class="st1" cx="144.59" cy="147.75" r="12.58"/>
<g>
	<path class="st2" d="M190.64,87.95l-85.86-50.56c-9.31-5.48-21.07,1.24-21.07,12.05v23.39l25.68,15.12c9.18,5.4,9.18,18.68,0,24.08
		L83.7,127.16v23.4c0,10.81,11.74,17.53,21.07,12.04l85.86-50.56C199.81,106.64,199.81,93.35,190.64,87.95z"/>
	<path class="st3" d="M23.52,37.39C14.2,31.91,2.45,38.62,2.45,49.44v101.13c0,10.81,11.74,17.53,21.07,12.04l60.18-35.44V72.83
		L23.52,37.39z"/>
	<path class="st4" d="M109.38,87.95L83.7,72.83v54.33l25.68-15.12C118.56,106.64,118.56,93.35,109.38,87.95z"/>
</g>
</svg>
