<?xml version="1.0" encoding="utf-8"?>
<!-- Generator: Adobe Illustrator 27.5.0, SVG Export Plug-In . SVG Version: 6.00 Build 0)  -->
<svg version="1.1" id="Calque_3" xmlns="http://www.w3.org/2000/svg" xmlns:xlink="http://www.w3.org/1999/xlink" x="0px" y="0px"
	 viewBox="0 0 200 200" style="enable-background:new 0 0 200 200;" xml:space="preserve">
<style type="text/css">
	.st0{fill:#1AA395;}
	.st1{fill:#172748;}
</style>
<path class="st0" d="M198.1,44.5c0-5.9-4.8-10.6-10.6-10.6c-2.5,0-4.8,0.9-6.6,2.3h0l-37.4,29.4c-1.6,1-3.6,1.6-5.6,1.6
	c-3.7,0-7.1-1.2-8.9-4.7l-18.4-50.5c-1.6-6.3-5.1-7.7-10.6-7.7c-4.8,0-8.9,3.2-10.2,7.6l0,0l-19,51.4c0,0-4.1,8.6-14.8,1.5
	c-6.5-4.3-36.6-28.3-36.6-28.3l0,0c-1.9-1.6-4.3-2.5-6.9-2.5c-5.9,0-10.6,4.8-10.6,10.6c0,1.3,0.2,2.6,0.7,3.7l0,0l39.8,113.5l0,0
	c1.3,4.2,5.1,7.3,9.6,7.5l0,0h0.2c0.1,0,0.2,0,0.4,0c0.1,0,0.2,0,0.4,0l94.3,0l0,0c0,0,0.1,0,0.1,0c4.9,0,8.9-3.3,10.2-7.7h0
	l39.8-113.3l0,0C197.9,47,198.1,45.8,198.1,44.5z"/>
<path class="st1" d="M152.2,195.8H50.7c-3.6,0-6.6-3-6.6-6.6l0,0c0-3.6,3-6.6,6.6-6.6h101.6c3.6,0,6.6,3,6.6,6.6l0,0
	C158.8,192.9,155.9,195.8,152.2,195.8z"/>
<path class="st1" d="M147.6,127.4c-6.6-6.6-16.6-7.6-24.3-3l-18.6-18.6v-7.3c0,0,0-0.1,0-0.1v-5.6c3.4-0.8,6.7-2.6,9.4-5.2
	c7.8-7.8,7.8-20.4,0-28.2s-20.4-7.8-28.2,0s-7.8,20.4,0,28.2c2.6,2.6,5.7,4.3,8.9,5.1V99c0,0,0,0,0,0v2.2v2.3c0,0,0,0,0,0v2.8
	l-18.1,18.1c-7.7-4.6-17.8-3.6-24.4,3c-7.8,7.8-7.8,20.4,0,28.2s20.4,7.8,28.2,0c6.5-6.5,7.6-16.5,3.1-24.2l16.4-16.4l16.3,16.3
	c-4.5,7.7-3.5,17.7,3,24.3c7.8,7.8,20.4,7.8,28.2,0C155.4,147.9,155.4,135.2,147.6,127.4z M73.6,148.7c-3.9,3.9-10.3,3.9-14.2,0
	s-3.9-10.3,0-14.2c3.9-3.9,10.3-3.9,14.2,0C77.5,138.4,77.5,144.7,73.6,148.7z M92.9,66.4c3.9-3.9,10.3-3.9,14.2,0
	c3.9,3.9,3.9,10.3,0,14.2c-3.9,3.9-10.3,3.9-14.2,0C89,76.7,89,70.3,92.9,66.4z M140.6,148.7c-3.9,3.9-10.3,3.9-14.2,0
	c-3.9-3.9-3.9-10.3,0-14.2c3.9-3.9,10.3-3.9,14.2,0C144.6,138.4,144.6,144.7,140.6,148.7z"/>
</svg>
