<?xml version="1.0" encoding="utf-8"?>
<!-- Generator: Adobe Illustrator 27.5.0, SVG Export Plug-In . SVG Version: 6.00 Build 0)  -->
<svg version="1.1" id="Calque_3" xmlns="http://www.w3.org/2000/svg" xmlns:xlink="http://www.w3.org/1999/xlink" x="0px" y="0px"
	 viewBox="0 0 200 200" style="enable-background:new 0 0 200 200;" xml:space="preserve">
<style type="text/css">
	.st0{fill:#1AA395;}
	.st1{fill:#172748;}
	.st2{fill:#FFFFFF;}
</style>
<g>
	<path class="st0" d="M108.6,9.8c-0.2-0.2-0.4-0.4-0.6-0.6L107.8,9l0,0c-2.1-1.8-4.8-3-7.8-3s-5.8,1.2-7.8,3l0,0l0,0
		c-0.3,0.3-0.6,0.6-0.9,0.9L41.2,60.1L81.1,100l58.8-58.8L108.6,9.8z"/>
	<path class="st1" d="M190.2,108.5c0.2-0.2,0.4-0.4,0.6-0.6l0.2-0.2l0,0c1.8-2.1,3-4.8,3-7.8s-1.2-5.8-3-7.8l0,0l0,0
		c-0.3-0.3-0.6-0.6-0.9-0.9l-50.2-50.2l-39.9,40l58.8,58.8L190.2,108.5z"/>
	<path class="st0" d="M91.5,190.3c0.2,0.2,0.4,0.4,0.6,0.6l0.2,0.2l0,0c2.1,1.8,4.8,3,7.8,3s5.8-1.2,7.8-3l0,0l0,0
		c0.3-0.3,0.6-0.6,0.9-0.9l50.2-50.2L118.9,100l-58.8,58.8L91.5,190.3z"/>
	<path class="st1" d="M9.8,91.6c-0.2,0.2-0.4,0.4-0.6,0.6L9,92.3l0,0c-1.8,2.1-3,4.8-3,7.8s1.2,5.8,3,7.8l0,0l0,0
		c0.3,0.3,0.6,0.6,0.9,0.9L60.1,159L100,119L41.2,60.1L9.8,91.6z"/>
</g>
<rect x="86.7" y="86.7" transform="matrix(0.7071 -0.7071 0.7071 0.7071 -41.4094 100.042)" class="st2" width="26.7" height="26.7"/>
<rect x="124.5" y="86.7" transform="matrix(0.7071 -0.7071 0.7071 0.7071 -30.3285 126.7873)" class="st2" width="26.7" height="26.7"/>
<rect x="49.1" y="86.7" transform="matrix(0.7071 -0.7071 0.7071 0.7071 -52.4752 73.4324)" class="st2" width="26.7" height="26.7"/>
</svg>
