<?xml version="1.0" encoding="utf-8"?>
<!-- Generator: Adobe Illustrator 27.5.0, SVG Export Plug-In . SVG Version: 6.00 Build 0)  -->
<svg version="1.1" id="Calque_2_00000088092812533732195270000015273813521532933254_"
	 xmlns="http://www.w3.org/2000/svg" xmlns:xlink="http://www.w3.org/1999/xlink" x="0px" y="0px" viewBox="0 0 200 200"
	 style="enable-background:new 0 0 200 200;" xml:space="preserve">
<style type="text/css">
	.st0{fill:#FFFFFF;stroke:#FFFFFF;stroke-width:7.8309;stroke-miterlimit:10;}
	.st1{fill:#172748;}
	.st2{fill:#1AA294;}
</style>
<g>
	<path class="st0" d="M175.17,161.56l-12.14-7.01c-2.03-1.17-4.53-1.17-6.55,0l-12.14,7.01c-2.03,1.17-3.28,3.34-3.28,5.67v14.02
		c0,2.34,1.24,4.51,3.28,5.67l12.14,7.01c2.03,1.17,4.53,1.17,6.55,0l12.14-7.01c2.03-1.17,3.28-3.34,3.28-5.67v-14.02
		C178.46,164.89,177.21,162.73,175.17,161.56z"/>
	<path class="st0" d="M182.88,33.61l-43.48-25.1c-7.27-4.2-16.21-4.2-23.48,0l-43.48,25.1c-7.27,4.2-11.73,11.95-11.73,20.33v19.37
		c-3.38-0.02-6.77,0.84-9.8,2.59L15.06,96.6c-5.99,3.45-9.68,9.85-9.68,16.77v41.4c0,6.92,3.69,13.31,9.68,16.77l35.86,20.7
		c5.99,3.45,13.37,3.45,19.36,0l35.86-20.7c5.99-3.45,9.68-9.85,9.68-16.77v-5.27l0.13,0.07c7.27,4.2,16.21,4.2,23.48,0l43.48-25.1
		c7.27-4.2,11.73-11.95,11.73-20.33v-50.2C194.62,45.55,190.14,37.81,182.88,33.61z"/>
</g>
<path class="st1" d="M50.92,75.9L15.06,96.6c-5.99,3.45-9.68,9.85-9.68,16.77v41.4c0,6.92,3.69,13.31,9.68,16.77l35.86,20.7
	c5.99,3.45,13.37,3.45,19.36,0l35.86-20.7c5.99-3.45,9.68-9.85,9.68-16.77v-41.4c0-6.92-3.69-13.31-9.68-16.77L70.27,75.9
	C64.28,72.44,56.91,72.44,50.92,75.9z"/>
<path class="st2" d="M156.48,154.56l-12.14,7.01c-2.03,1.17-3.28,3.34-3.28,5.67v14.02c0,2.34,1.24,4.51,3.28,5.67l12.14,7.01
	c2.03,1.17,4.53,1.17,6.55,0l12.14-7.01c2.03-1.17,3.28-3.34,3.28-5.67v-14.02c0-2.34-1.24-4.51-3.28-5.67l-12.14-7.01
	C161.01,153.39,158.51,153.39,156.48,154.56z"/>
<path class="st2" d="M115.93,8.51l-43.48,25.1c-7.27,4.2-11.73,11.95-11.73,20.33v50.2c0,8.38,4.48,16.13,11.73,20.33l43.48,25.1
	c7.27,4.2,16.21,4.2,23.48,0l43.48-25.1c7.27-4.2,11.73-11.95,11.73-20.33v-50.2c0-8.38-4.48-16.13-11.73-20.33l-43.48-25.1
	C132.14,4.32,123.2,4.32,115.93,8.51z"/>
</svg>
