<?xml version="1.0" encoding="utf-8"?>
<!-- Generator: Adobe Illustrator 27.5.0, SVG Export Plug-In . SVG Version: 6.00 Build 0)  -->
<svg version="1.1" xmlns="http://www.w3.org/2000/svg" xmlns:xlink="http://www.w3.org/1999/xlink" x="0px" y="0px"
	 viewBox="0 0 200 200" style="enable-background:new 0 0 200 200;" xml:space="preserve">
<style type="text/css">
	.st0{fill:#FFFFFF;}
	.st1{fill:#172748;}
	.st2{fill:#1AA395;}
</style>
<g id="Calque_4">
</g>
<g id="Calque_2">
	<circle class="st0" cx="100" cy="99.66" r="41.51"/>
</g>
<g id="Calque_3">
	<g>
		<g>
			<path class="st1" d="M148.12,23.18c-0.08-5.36-4.44-9.68-9.82-9.68c-1.88,0-3.64,0.54-5.13,1.46l-0.01-0.01L100,35.44v54.84
				l46.18-26.74c0,0,1.95-1.04,1.95-3.41C148.13,58.69,148.13,23.18,148.12,23.18L148.12,23.18z"/>
			<path class="st2" d="M51.88,23.18c0.08-5.36,4.44-9.68,9.82-9.68c1.88,0,3.64,0.54,5.13,1.46l0.01-0.01L100,35.44v54.84
				L53.82,63.54c0,0-1.95-1.04-1.95-3.41C51.87,58.69,51.87,23.18,51.88,23.18L51.88,23.18z"/>
		</g>
		<g>
			<path class="st1" d="M145.08,184.58c4.68,2.61,10.61,0.99,13.3-3.67c0.94-1.63,1.35-3.42,1.3-5.17l0.01-0.01l-1.18-38.97
				l-47.49-27.41l0.08,53.36c0,0-0.08,2.21,1.98,3.39C114.32,166.83,145.07,184.58,145.08,184.58L145.08,184.58z"/>
			<path class="st2" d="M193.19,101.22c4.6,2.75,6.17,8.69,3.48,13.35c-0.94,1.63-2.28,2.88-3.83,3.72v0.01l-34.33,18.47
				l-47.49-27.41l46.25-26.62c0,0,1.88-1.17,3.93,0.01C162.43,83.46,193.19,101.21,193.19,101.22L193.19,101.22z"/>
		</g>
		<g>
			<path class="st2" d="M54.92,184.58c-4.68,2.61-10.61,0.99-13.3-3.67c-0.94-1.63-1.35-3.42-1.3-5.17l-0.01-0.01l1.18-38.97
				l47.49-27.41l-0.08,53.36c0,0,0.08,2.21-1.98,3.39C85.68,166.83,54.93,184.58,54.92,184.58L54.92,184.58z"/>
			<path class="st1" d="M6.81,101.22c-4.6,2.75-6.17,8.69-3.48,13.35c0.94,1.63,2.28,2.88,3.83,3.72v0.01l34.33,18.47l47.49-27.41
				L42.74,82.73c0,0-1.88-1.17-3.93,0.01C37.57,83.46,6.81,101.21,6.81,101.22L6.81,101.22z"/>
		</g>
	</g>
</g>
</svg>
