<?xml version="1.0" encoding="utf-8"?>
<!-- Generator: Adobe Illustrator 27.5.0, SVG Export Plug-In . SVG Version: 6.00 Build 0)  -->
<svg version="1.1" id="Calque_1" xmlns="http://www.w3.org/2000/svg" xmlns:xlink="http://www.w3.org/1999/xlink" x="0px" y="0px"
	 viewBox="0 0 146 47" style="enable-background:new 0 0 146 47;" xml:space="preserve">
<style type="text/css">
	.st0{display:none;}
	.st1{display:inline;}
	.st2{fill:#FFFFFF;stroke:#FFFFFF;stroke-width:2.0124;stroke-linecap:round;stroke-linejoin:round;stroke-miterlimit:10;}
	.st3{fill:#1A2847;}
	.st4{fill:#19A395;}
	.st5{fill:#FFFFFF;}
</style>
<g id="Calque_2_00000113337867519704630930000007609921192248958103_" class="st0">
	
		<text transform="matrix(1 0 0 1 33.7412 -61.9424)" style="display:inline;fill:#1A2847; font-family:'RoundedMplus1c-Medium'; font-size:15.9521px;">Lexique</text>
	
		<text transform="matrix(1 0 0 1 33.7412 -30.9243)" style="display:inline;fill:#1A2847; font-family:'RoundedMplus1c-Medium'; font-size:15.9521px;">Guides</text>
	
		<text transform="matrix(1 0 0 1 33.7412 -15.4155)" style="display:inline;fill:#1A2847; font-family:'RoundedMplus1c-Medium'; font-size:15.9521px;">Sources</text>
	
		<text transform="matrix(1 0 0 1 33.7412 -50.6831)" style="display:inline;fill:#1A2847; font-family:'RoundedMplus1c-Medium'; font-size:15.9521px;">Descriptions</text>
</g>
<g id="Calque_7" class="st0">
	<path class="st1" d="M89.93,119.17l63.95-36.8c9.48-5.45,17.16-17.49,17.16-26.9V-65.02c0-9.4-7.68-12.6-17.16-7.15l-63.95,36.8
		c-9.48,5.45-17.16,17.49-17.16,26.9v125.49C72.77,126.42,80.45,124.62,89.93,119.17z"/>
	<path class="st1" d="M55.61,119.17l-63.95-36.8c-9.48-5.45-17.16-17.49-17.16-26.9V-65.02c0-9.4,7.68-12.6,17.16-7.15l63.95,36.8
		c9.48,5.45,17.16,17.49,17.16,26.9v125.49C72.77,126.42,65.09,124.62,55.61,119.17z"/>
</g>
<g id="Calque_5" class="st0">
	<rect x="-54" y="-102.48" class="st1" width="252.26" height="252.26"/>
</g>
<g id="Calque_4">
	<path class="st2" d="M36.83,5.71l-12.47,7.18c-1.85,1.06-3.35,3.41-3.35,5.25c0-1.83-1.5-4.18-3.35-5.25L5.19,5.71
		C3.35,4.65,1.85,5.27,1.85,7.1v23.5c0,1.83,1.5,4.18,3.35,5.25l5.32,3.06c0.06,0.07,0.13,0.14,0.19,0.2
		c1.18,1.15,2.63,2.02,4.37,2.6c0.22,0.07,0.44,0.14,0.67,0.21c1.56,0.43,3.31,0.6,5.26,0.6c0.02,0,0.05,0,0.07,0
		c1.98,0,3.74-0.22,5.3-0.66c0.82-0.23,1.58-0.52,2.29-0.88c1.07-0.54,2-1.22,2.79-2.05l5.37-3.09c1.85-1.06,3.35-3.41,3.35-5.25
		V7.1C40.18,5.27,38.68,4.65,36.83,5.71z"/>
</g>
<g id="Calque_6">
	<path class="st3" d="M36.83,5.71l-12.47,7.18c-1.85,1.06-3.35,3.41-3.35,5.25v18.41c0.02,0,0.05,0,0.07,0
		c2.23,0,3.93-0.66,5.1-1.97c1.16-1.31,1.74-3.27,1.74-5.87V14.85c0-1.18,0.3-2.07,0.91-2.67c0.6-0.6,1.46-0.91,2.58-0.91
		s1.97,0.3,2.56,0.91c0.59,0.6,0.88,1.49,0.88,2.67v13.81c0,3.05-0.52,5.61-1.56,7.68c-0.5,0.98-1.11,1.85-1.83,2.6l5.37-3.09
		c1.85-1.06,3.35-3.41,3.35-5.25V7.1C40.18,5.27,38.68,4.65,36.83,5.71z"/>
	<path class="st4" d="M7.18,28.67V14.91c0-1.18,0.3-2.07,0.91-2.67c0.6-0.6,1.48-0.91,2.63-0.91c1.12,0,1.98,0.3,2.58,0.91
		c0.6,0.6,0.91,1.49,0.91,2.67v13.8c0,2.6,0.59,4.55,1.77,5.87c1.17,1.3,2.85,1.96,5.05,1.97V18.13c0-1.83-1.5-4.18-3.35-5.25
		L5.19,5.71C3.35,4.65,1.85,5.27,1.85,7.1v23.5c0,1.83,1.5,4.18,3.35,5.25l5.32,3.06c-1.08-1.12-1.9-2.56-2.46-4.2
		C7.47,32.98,7.18,30.96,7.18,28.67z"/>
	<path class="st4" d="M33.97,12.18c-0.59-0.6-1.44-0.91-2.56-0.91s-1.98,0.3-2.58,0.91c-0.6,0.6-0.91,1.49-0.91,2.67v13.86
		c0,2.6-0.58,4.55-1.74,5.87c-1.16,1.31-2.86,1.97-5.1,1.97c-0.02,0-0.05,0-0.07,0v5.98c0.02,0,0.05,0,0.07,0
		c1.98,0,3.74-0.22,5.3-0.66c0.82-0.23,1.58-0.52,2.29-0.88c1.07-0.54,2-1.22,2.79-2.05c0.72-0.75,1.33-1.61,1.83-2.6
		c1.04-2.07,1.56-4.63,1.56-7.68V14.85C34.85,13.68,34.55,12.79,33.97,12.18z"/>
	<path class="st5" d="M15.96,34.58c-1.18-1.31-1.77-3.27-1.77-5.87v-13.8c0-1.18-0.3-2.07-0.91-2.67c-0.6-0.6-1.46-0.91-2.58-0.91
		c-1.15,0-2.02,0.3-2.63,0.91c-0.6,0.6-0.91,1.49-0.91,2.67v13.76c0,2.29,0.29,4.31,0.88,6.05c0.56,1.64,1.38,3.08,2.46,4.2
		c0.06,0.07,0.13,0.14,0.19,0.2c1.18,1.15,2.63,2.02,4.37,2.6c0.22,0.07,0.44,0.14,0.67,0.21c1.56,0.43,3.31,0.6,5.26,0.6v-5.98
		C18.81,36.53,17.13,35.88,15.96,34.58z"/>
	<path class="st3" d="M21.92,33.42H18.5c-0.58,0-1.06-0.47-1.06-1.06v-0.53c0-0.58,0.47-1.06,1.06-1.06h3.42
		c0.58,0,1.06,0.47,1.06,1.06v0.53C22.97,32.94,22.5,33.42,21.92,33.42z"/>
	<path class="st3" d="M21.92,23.77H18.5c-0.58,0-1.06-0.47-1.06-1.06v-0.53c0-0.58,0.47-1.06,1.06-1.06h3.42
		c0.58,0,1.06,0.47,1.06,1.06v0.53C22.97,23.29,22.5,23.77,21.92,23.77z"/>
	<path class="st3" d="M21.92,28.59H18.5c-0.58,0-1.06-0.47-1.06-1.06V27c0-0.58,0.47-1.06,1.06-1.06h3.42
		c0.58,0,1.06,0.47,1.06,1.06v0.53C22.97,28.12,22.5,28.59,21.92,28.59z"/>
</g>
<g id="Calque_8">
	<g>
		<path class="st5" d="M48.68,38.95c-0.64-0.08-1.17-0.35-1.58-0.83c-0.41-0.47-0.62-1.03-0.62-1.68V13.1c0-0.64,0.2-1.2,0.62-1.68
			c0.41-0.47,0.94-0.75,1.58-0.83c1.54-0.18,3.25-0.27,5.12-0.27c6.93,0,10.4,2.31,10.4,6.93c0,1.54-0.53,2.9-1.58,4.06
			c-1.05,1.17-2.44,1.92-4.16,2.25c-0.03,0-0.04,0.01-0.04,0.04s0.01,0.04,0.04,0.04c2.16,0.33,3.84,1.13,5.06,2.39
			s1.83,2.83,1.83,4.7c0,5.65-3.72,8.47-11.17,8.47C52.16,39.22,50.32,39.13,48.68,38.95z M50.72,14.34v7.51
			c0,0.23,0.12,0.35,0.35,0.35h1.19c2.82,0,4.86-0.36,6.1-1.08c1.25-0.72,1.87-1.81,1.87-3.27c0-1.41-0.5-2.45-1.5-3.12
			s-2.64-1-4.93-1c-0.98,0-1.9,0.08-2.77,0.23C50.82,14,50.72,14.13,50.72,14.34z M50.72,25.85v9.36c0,0.21,0.1,0.33,0.31,0.39
			c1,0.15,2.05,0.23,3.16,0.23c2.41,0,4.18-0.45,5.31-1.35c1.13-0.9,1.69-2.27,1.69-4.12c0-1.67-0.68-2.89-2.04-3.68
			c-1.36-0.78-3.66-1.17-6.89-1.17h-1.19C50.84,25.5,50.72,25.62,50.72,25.85z"/>
		<path class="st5" d="M89.87,35.4c-2.25,2.54-5.3,3.81-9.15,3.81s-6.9-1.27-9.15-3.81s-3.37-6.09-3.37-10.63
			c0-4.55,1.12-8.09,3.37-10.63s5.3-3.81,9.15-3.81s6.9,1.27,9.15,3.81s3.37,6.09,3.37,10.63C93.24,29.32,92.12,32.86,89.87,35.4z
			 M86.79,16.55c-1.42-1.83-3.45-2.75-6.07-2.75s-4.64,0.92-6.07,2.75c-1.42,1.84-2.14,4.58-2.14,8.22s0.71,6.39,2.14,8.22
			c1.43,1.84,3.45,2.75,6.07,2.75s4.64-0.92,6.07-2.75c1.42-1.84,2.14-4.58,2.14-8.22S88.21,18.39,86.79,16.55z"/>
		<path class="st5" d="M118.91,35.4c-2.25,2.54-5.3,3.81-9.15,3.81s-6.9-1.27-9.15-3.81s-3.37-6.09-3.37-10.63
			c0-4.55,1.12-8.09,3.37-10.63s5.29-3.81,9.15-3.81c3.85,0,6.9,1.27,9.15,3.81s3.37,6.09,3.37,10.63
			C122.28,29.32,121.15,32.86,118.91,35.4z M115.83,16.55c-1.43-1.83-3.45-2.75-6.07-2.75s-4.64,0.92-6.07,2.75
			c-1.42,1.84-2.14,4.58-2.14,8.22s0.71,6.39,2.14,8.22c1.42,1.84,3.45,2.75,6.07,2.75s4.64-0.92,6.07-2.75
			c1.42-1.84,2.14-4.58,2.14-8.22S117.25,18.39,115.83,16.55z"/>
		<path class="st5" d="M130.48,38.21c-0.41,0.41-0.91,0.62-1.5,0.62s-1.09-0.2-1.5-0.62c-0.41-0.41-0.62-0.91-0.62-1.5V12.83
			c0-0.59,0.21-1.09,0.62-1.5s0.91-0.62,1.5-0.62s1.09,0.21,1.5,0.62s0.62,0.91,0.62,1.5V23c0,0.03,0.01,0.04,0.04,0.04l0.08-0.04
			l8.9-10.63c0.95-1.1,2.14-1.66,3.58-1.66h0.62c0.41,0,0.71,0.19,0.91,0.58c0.19,0.39,0.15,0.75-0.14,1.08l-9.9,11.59
			c-0.13,0.18-0.14,0.35-0.04,0.5l10.36,12.67c0.28,0.36,0.33,0.73,0.13,1.12c-0.19,0.39-0.51,0.58-0.94,0.58h-0.62
			c-1.46,0-2.64-0.56-3.54-1.69l-9.32-11.75c-0.03-0.03-0.05-0.04-0.08-0.04s-0.04,0.01-0.04,0.04v11.32
			C131.1,37.3,130.89,37.8,130.48,38.21z"/>
	</g>
</g>
</svg>
