<?xml version="1.0" encoding="utf-8"?>
<!-- Generator: Adobe Illustrator 27.5.0, SVG Export Plug-In . SVG Version: 6.00 Build 0)  -->
<svg version="1.1" id="Calque_1" xmlns="http://www.w3.org/2000/svg" xmlns:xlink="http://www.w3.org/1999/xlink" x="0px" y="0px"
	 viewBox="0 0 146 47" style="enable-background:new 0 0 146 47;" xml:space="preserve">
<style type="text/css">
	.st0{display:none;}
	.st1{display:inline;fill:#1A2847;}
	.st2{fill:#FFFFFF;}
	.st3{display:inline;}
	
		.st4{display:inline;fill:#FFFFFF;stroke:#FFFFFF;stroke-width:2.0124;stroke-linecap:round;stroke-linejoin:round;stroke-miterlimit:10;}
	.st5{display:inline;fill:#19A395;}
	.st6{display:inline;fill:#FFFFFF;}
	.st7{fill:#FFFFFF;stroke:#FFFFFF;stroke-width:1.8989;stroke-linecap:round;stroke-linejoin:round;stroke-miterlimit:10;}
	.st8{fill:#1A2847;}
	.st9{fill:#19A395;}
</style>
<g id="Calque_8">
</g>
<g id="Calque_9">
	<g class="st0">
		<path class="st1" d="M42.73,29.92c-0.24,0-0.46-0.09-0.64-0.27s-0.27-0.39-0.27-0.64v-9.83c0-0.24,0.09-0.46,0.27-0.64
			s0.39-0.27,0.64-0.27h0.02c0.24,0,0.46,0.09,0.64,0.27s0.27,0.39,0.27,0.64v9.12c0,0.1,0.04,0.14,0.13,0.14h4.48
			c0.2,0,0.37,0.07,0.52,0.22S49,28.98,49,29.19c0,0.2-0.07,0.38-0.22,0.52s-0.32,0.22-0.52,0.22h-5.53V29.92z"/>
		<path class="st1" d="M51.13,29.92c-0.24,0-0.46-0.09-0.64-0.27s-0.27-0.39-0.27-0.64v-9.83c0-0.24,0.09-0.46,0.27-0.64
			s0.39-0.27,0.64-0.27h5.39c0.2,0,0.37,0.07,0.51,0.21s0.21,0.31,0.21,0.51s-0.07,0.37-0.21,0.51s-0.31,0.21-0.51,0.21h-4.4
			c-0.1,0-0.14,0.04-0.14,0.13v3.05c0,0.1,0.05,0.14,0.14,0.14h4.12c0.19,0,0.35,0.07,0.49,0.2c0.13,0.13,0.2,0.29,0.2,0.49
			s-0.07,0.35-0.2,0.49c-0.13,0.13-0.3,0.2-0.49,0.2h-4.12c-0.1,0-0.14,0.05-0.14,0.14v3.8c0,0.1,0.05,0.14,0.14,0.14h4.4
			c0.2,0,0.37,0.07,0.51,0.21s0.21,0.31,0.21,0.51s-0.07,0.37-0.21,0.51s-0.31,0.21-0.51,0.21L51.13,29.92L51.13,29.92z"/>
		<path class="st1" d="M59.54,29.92c-0.2,0-0.35-0.09-0.45-0.26s-0.1-0.35-0.01-0.52l2.84-5.01c0.04-0.07,0.04-0.15,0-0.22
			l-2.76-4.85c-0.11-0.17-0.11-0.34,0-0.52s0.26-0.26,0.46-0.26h0.21c0.28,0,0.53,0.07,0.77,0.22c0.24,0.14,0.42,0.34,0.55,0.58
			l1.96,3.73c0,0.01,0,0.02,0.02,0.02c0.01,0,0.02-0.01,0.02-0.02l1.96-3.73c0.13-0.24,0.31-0.44,0.55-0.58
			c0.24-0.14,0.5-0.22,0.77-0.22h0.14c0.2,0,0.36,0.09,0.46,0.26c0.11,0.18,0.11,0.35,0,0.52l-2.76,4.85
			c-0.04,0.07-0.04,0.15,0,0.22l2.84,5.01c0.1,0.17,0.09,0.34-0.01,0.52s-0.25,0.26-0.45,0.26h-0.24c-0.28,0-0.53-0.07-0.77-0.22
			c-0.24-0.14-0.42-0.34-0.55-0.58l-2.01-3.89c0-0.01-0.01-0.02-0.02-0.02s-0.02,0.01-0.02,0.02l-2.01,3.89
			c-0.13,0.24-0.31,0.44-0.55,0.58s-0.5,0.22-0.77,0.22H59.54z"/>
		<path class="st1" d="M69.81,29.92c-0.25,0-0.46-0.09-0.64-0.27s-0.27-0.39-0.27-0.64v-9.83c0-0.24,0.09-0.46,0.27-0.64
			s0.39-0.27,0.64-0.27h0.1c0.24,0,0.46,0.09,0.64,0.27s0.27,0.39,0.27,0.64v9.83c0,0.24-0.09,0.46-0.27,0.64s-0.39,0.27-0.64,0.27
			H69.81z"/>
		<path class="st1" d="M77.95,30.08c-1.59,0-2.86-0.53-3.79-1.58s-1.4-2.52-1.4-4.4s0.47-3.35,1.4-4.4s2.19-1.58,3.79-1.58
			s2.86,0.53,3.79,1.58s1.4,2.52,1.4,4.4c0,1.2-0.21,2.24-0.65,3.11c-0.43,0.87-1.04,1.55-1.81,2.04c-0.01,0-0.02,0.01-0.02,0.03
			s0.01,0.03,0.03,0.03c0.55,0.18,1.11,0.47,1.66,0.88c0.55,0.4,1.04,0.87,1.47,1.39c0.12,0.15,0.13,0.31,0.03,0.48
			c-0.1,0.17-0.24,0.25-0.43,0.25h-0.25c-0.56,0-1.04-0.25-1.44-0.75c-0.46-0.58-0.96-0.98-1.49-1.18S78.94,30.08,77.95,30.08z
			 M80.46,20.69c-0.59-0.76-1.43-1.14-2.51-1.14s-1.92,0.38-2.51,1.14c-0.59,0.76-0.88,1.9-0.88,3.41s0.29,2.65,0.88,3.41
			s1.43,1.14,2.51,1.14s1.92-0.38,2.51-1.14s0.89-1.9,0.89-3.41S81.05,21.45,80.46,20.69z"/>
		<path class="st1" d="M88.57,30.08c-2.76,0-4.15-1.41-4.15-4.23v-6.68c0-0.24,0.09-0.46,0.26-0.63c0.17-0.18,0.38-0.26,0.63-0.26
			c0.24,0,0.45,0.09,0.63,0.26s0.26,0.39,0.26,0.63v6.76c0,0.94,0.19,1.62,0.58,2.04c0.39,0.43,0.99,0.64,1.81,0.64
			s1.42-0.21,1.81-0.64c0.4-0.42,0.6-1.1,0.6-2.04v-6.8c0-0.23,0.08-0.44,0.25-0.61s0.37-0.26,0.61-0.26c0.23,0,0.44,0.09,0.61,0.26
			s0.25,0.37,0.25,0.61v6.72C92.72,28.67,91.34,30.08,88.57,30.08z"/>
		<path class="st1" d="M95.73,29.92c-0.25,0-0.46-0.09-0.64-0.27s-0.27-0.39-0.27-0.64v-9.83c0-0.24,0.09-0.46,0.27-0.64
			s0.39-0.27,0.64-0.27h5.39c0.2,0,0.37,0.07,0.51,0.21s0.21,0.31,0.21,0.51s-0.07,0.37-0.21,0.51s-0.31,0.21-0.51,0.21h-4.4
			c-0.1,0-0.14,0.04-0.14,0.13v3.05c0,0.1,0.05,0.14,0.14,0.14h4.12c0.19,0,0.35,0.07,0.49,0.2c0.13,0.13,0.2,0.29,0.2,0.49
			s-0.07,0.35-0.2,0.49s-0.29,0.2-0.49,0.2h-4.12c-0.1,0-0.14,0.05-0.14,0.14v3.8c0,0.1,0.05,0.14,0.14,0.14h4.4
			c0.2,0,0.37,0.07,0.51,0.21s0.21,0.31,0.21,0.51s-0.07,0.37-0.21,0.51s-0.31,0.21-0.51,0.21L95.73,29.92L95.73,29.92z"/>
	</g>
	<g>
		<path class="st2" d="M53.06,35.42c-3.1,0-5.64-1.03-7.61-3.08c-1.97-2.05-2.96-4.8-2.96-8.25c0-3.5,1-6.27,2.99-8.29
			s4.72-3.04,8.19-3.04c1.41,0,2.71,0.1,3.9,0.3c0.4,0.08,0.74,0.28,1,0.6c0.26,0.32,0.39,0.7,0.39,1.12c0,0.34-0.14,0.62-0.42,0.83
			s-0.59,0.28-0.94,0.2c-1.07-0.26-2.28-0.39-3.63-0.39c-2.6,0-4.6,0.74-6,2.22s-2.1,3.63-2.1,6.45c0,2.7,0.68,4.82,2.05,6.36
			s3.18,2.31,5.44,2.31c1.13,0,2.22-0.16,3.26-0.48c0.14-0.02,0.21-0.12,0.21-0.3v-7.04c0-0.18-0.09-0.27-0.27-0.27h-4.92
			c-0.36,0-0.67-0.13-0.92-0.38s-0.38-0.56-0.38-0.92s0.13-0.67,0.38-0.92s0.56-0.38,0.92-0.38h6.64c0.46,0,0.87,0.17,1.21,0.51
			S60,23.33,60,23.79v8.55c0,0.52-0.15,1-0.44,1.43c-0.29,0.43-0.68,0.73-1.16,0.89C56.83,35.17,55.05,35.42,53.06,35.42z"/>
		<path class="st2" d="M71.69,35.42c-5.24,0-7.85-2.67-7.85-8V14.76c0-0.46,0.17-0.86,0.5-1.19c0.33-0.33,0.73-0.5,1.19-0.5
			s0.86,0.16,1.19,0.5c0.33,0.33,0.5,0.73,0.5,1.19v12.81c0,1.77,0.37,3.06,1.1,3.87c0.73,0.81,1.88,1.21,3.43,1.21
			s2.69-0.4,3.43-1.21c0.74-0.8,1.1-2.09,1.1-3.87V14.7c0-0.44,0.16-0.83,0.48-1.15s0.7-0.48,1.15-0.48s0.83,0.16,1.15,0.48
			s0.48,0.7,0.48,1.15v12.72C79.55,32.76,76.93,35.42,71.69,35.42z"/>
		<path class="st2" d="M86.01,35.12c-0.46,0-0.87-0.17-1.21-0.51s-0.51-0.74-0.51-1.21V14.79c0-0.46,0.17-0.87,0.51-1.21
			c0.34-0.34,0.74-0.51,1.21-0.51h0.18c0.46,0,0.87,0.17,1.21,0.51s0.51,0.75,0.51,1.21V33.4c0,0.46-0.17,0.87-0.51,1.21
			c-0.34,0.34-0.75,0.51-1.21,0.51H86.01z"/>
		<path class="st2" d="M94.68,35.21c-0.5-0.06-0.92-0.28-1.24-0.65c-0.32-0.37-0.48-0.81-0.48-1.31v-18.3c0-0.5,0.16-0.94,0.48-1.31
			s0.73-0.59,1.24-0.65c1.21-0.14,2.55-0.21,4.02-0.21c3.57,0,6.27,0.92,8.11,2.76c1.84,1.84,2.76,4.6,2.76,8.26
			c0,7.75-3.63,11.63-10.87,11.63C97.23,35.42,95.89,35.35,94.68,35.21z M96.28,15.97v16.25c0,0.16,0.08,0.26,0.24,0.3
			c0.68,0.12,1.41,0.18,2.17,0.18c2.68,0,4.63-0.69,5.86-2.07c1.23-1.38,1.84-3.66,1.84-6.84c0-2.86-0.63-4.96-1.89-6.3
			s-3.2-2.01-5.82-2.01c-0.77,0-1.49,0.06-2.17,0.18C96.36,15.71,96.28,15.81,96.28,15.97z"/>
		<path class="st2" d="M114.22,35.12c-0.46,0-0.87-0.17-1.21-0.51s-0.51-0.74-0.51-1.21V14.79c0-0.46,0.17-0.87,0.51-1.21
			c0.34-0.34,0.75-0.51,1.21-0.51h10.21c0.38,0,0.7,0.13,0.97,0.39c0.26,0.26,0.39,0.58,0.39,0.97s-0.13,0.7-0.39,0.97
			c-0.26,0.26-0.58,0.39-0.97,0.39h-8.34c-0.18,0-0.27,0.08-0.27,0.24v5.77c0,0.18,0.09,0.27,0.27,0.27h7.79
			c0.36,0,0.67,0.13,0.92,0.38s0.38,0.56,0.38,0.92s-0.13,0.67-0.38,0.92s-0.56,0.38-0.92,0.38h-7.79c-0.18,0-0.27,0.09-0.27,0.27
			v7.19c0,0.18,0.09,0.27,0.27,0.27h8.34c0.38,0,0.7,0.13,0.97,0.39c0.26,0.26,0.39,0.58,0.39,0.97s-0.13,0.7-0.39,0.97
			c-0.26,0.26-0.58,0.39-0.97,0.39C124.43,35.12,114.22,35.12,114.22,35.12z"/>
		<path class="st2" d="M135.21,25.3c-2.29-0.79-3.95-1.73-4.97-2.82c-1.02-1.1-1.53-2.42-1.53-3.97c0-1.77,0.56-3.17,1.69-4.2
			s2.68-1.54,4.65-1.54c1.85,0,3.48,0.22,4.89,0.67c0.42,0.14,0.77,0.41,1.04,0.8c0.27,0.39,0.41,0.83,0.41,1.31
			c0,0.34-0.15,0.6-0.45,0.79c-0.3,0.18-0.62,0.2-0.94,0.06c-1.53-0.64-3.08-0.97-4.65-0.97c-1.09,0-1.92,0.27-2.51,0.82
			c-0.59,0.55-0.88,1.3-0.88,2.27c0,0.79,0.27,1.49,0.82,2.13s1.35,1.13,2.42,1.5c2.66,0.89,4.51,1.87,5.54,2.96
			c1.04,1.09,1.56,2.47,1.56,4.14c0,2.03-0.63,3.57-1.87,4.62c-1.25,1.05-3.09,1.57-5.53,1.57c-1.59,0-3.03-0.24-4.32-0.72
			c-0.95-0.38-1.42-1.13-1.42-2.23c0-0.34,0.15-0.6,0.45-0.76s0.6-0.16,0.91,0c1.25,0.67,2.61,1,4.08,1c2.92,0,4.38-1.16,4.38-3.47
			c0-0.89-0.29-1.64-0.86-2.27C137.55,26.34,136.58,25.79,135.21,25.3z"/>
	</g>
	<g class="st0">
		<path class="st1" d="M44.85,24.73c-1.21-0.42-2.09-0.91-2.62-1.49s-0.81-1.28-0.81-2.1c0-0.94,0.3-1.67,0.89-2.22
			c0.6-0.54,1.41-0.81,2.46-0.81c0.98,0,1.84,0.12,2.58,0.35c0.22,0.07,0.41,0.21,0.55,0.42c0.14,0.21,0.22,0.44,0.22,0.69
			c0,0.18-0.08,0.32-0.24,0.42s-0.32,0.11-0.49,0.03c-0.81-0.34-1.63-0.51-2.46-0.51c-0.57,0-1.02,0.14-1.32,0.43
			c-0.31,0.29-0.46,0.69-0.46,1.2c0,0.42,0.14,0.79,0.43,1.12s0.71,0.6,1.28,0.79c1.4,0.47,2.38,0.99,2.93,1.56s0.82,1.3,0.82,2.19
			c0,1.07-0.33,1.89-0.99,2.44c-0.66,0.55-1.63,0.83-2.92,0.83c-0.84,0-1.6-0.13-2.28-0.38c-0.5-0.2-0.75-0.59-0.75-1.18
			c0-0.18,0.08-0.31,0.24-0.4c0.16-0.08,0.32-0.08,0.48,0c0.66,0.35,1.38,0.53,2.15,0.53c1.54,0,2.31-0.61,2.31-1.83
			c0-0.47-0.15-0.87-0.45-1.2C46.08,25.28,45.57,24.99,44.85,24.73z"/>
		<path class="st1" d="M58.56,28.5c-0.93,1.05-2.19,1.58-3.79,1.58s-2.86-0.53-3.79-1.58s-1.4-2.52-1.4-4.4s0.46-3.35,1.4-4.4
			s2.19-1.58,3.79-1.58s2.86,0.53,3.79,1.58s1.4,2.52,1.4,4.4C59.95,25.98,59.49,27.45,58.56,28.5z M57.28,20.69
			c-0.59-0.76-1.43-1.14-2.51-1.14c-1.08,0-1.92,0.38-2.51,1.14s-0.89,1.9-0.89,3.41s0.29,2.65,0.89,3.41
			c0.59,0.76,1.43,1.14,2.51,1.14c1.08,0,1.92-0.38,2.51-1.14s0.89-1.9,0.89-3.41S57.87,21.45,57.28,20.69z"/>
		<path class="st1" d="M65.49,30.08c-2.76,0-4.15-1.41-4.15-4.23v-6.68c0-0.24,0.09-0.45,0.26-0.63c0.18-0.18,0.39-0.26,0.63-0.26
			s0.45,0.09,0.63,0.26s0.26,0.39,0.26,0.63v6.76c0,0.94,0.19,1.62,0.58,2.04c0.39,0.43,0.99,0.64,1.81,0.64s1.42-0.21,1.81-0.64
			c0.39-0.42,0.58-1.11,0.58-2.04v-6.79c0-0.23,0.08-0.44,0.25-0.61s0.37-0.25,0.61-0.25c0.23,0,0.44,0.08,0.61,0.25
			s0.25,0.37,0.25,0.61v6.72C69.64,28.67,68.25,30.08,65.49,30.08z"/>
		<path class="st1" d="M73.24,29.66c-0.17,0.17-0.38,0.25-0.62,0.25c-0.25,0-0.45-0.08-0.62-0.25c-0.17-0.17-0.26-0.38-0.26-0.62
			v-9.78c0-0.27,0.08-0.5,0.26-0.69c0.17-0.2,0.39-0.31,0.65-0.33c0.79-0.08,1.55-0.13,2.28-0.13c1.53,0,2.69,0.28,3.46,0.85
			s1.17,1.35,1.17,2.34c0,0.81-0.21,1.5-0.61,2.07c-0.41,0.57-0.97,0.96-1.68,1.19c-0.01,0-0.02,0.01-0.02,0.02
			c0,0.02,0,0.03,0.02,0.03c0.46,0.31,0.88,0.94,1.26,1.88l1.02,2.58c0.08,0.2,0.06,0.39-0.06,0.57c-0.13,0.18-0.3,0.27-0.51,0.27
			c-0.28,0-0.53-0.08-0.75-0.23s-0.38-0.36-0.48-0.61l-1-2.58c-0.22-0.57-0.47-0.94-0.74-1.11s-0.78-0.25-1.54-0.25h-0.81
			c-0.1,0-0.14,0.05-0.14,0.14v3.76C73.5,29.29,73.41,29.49,73.24,29.66z M73.5,19.77v3.84c0,0.1,0.05,0.14,0.14,0.14h0.81
			c2.25,0,3.38-0.77,3.38-2.3c0-0.65-0.24-1.13-0.73-1.46c-0.48-0.32-1.26-0.49-2.34-0.49c-0.4,0-0.79,0.03-1.15,0.1
			C73.54,19.64,73.5,19.69,73.5,19.77z"/>
		<path class="st1" d="M85.68,30.08c-1.62,0-2.91-0.52-3.88-1.56c-0.97-1.04-1.46-2.52-1.46-4.42c0-1.88,0.47-3.35,1.41-4.4
			s2.25-1.58,3.93-1.58c0.72,0,1.38,0.05,1.98,0.16c0.21,0.04,0.39,0.15,0.53,0.33s0.21,0.38,0.21,0.6c0,0.19-0.08,0.34-0.23,0.45
			s-0.32,0.14-0.5,0.09c-0.5-0.13-1.11-0.19-1.82-0.19c-1.15,0-2.06,0.4-2.72,1.19c-0.67,0.79-1,1.91-1,3.36s0.34,2.57,1.02,3.36
			s1.58,1.19,2.7,1.19c0.7,0,1.33-0.07,1.9-0.21c0.18-0.05,0.35-0.02,0.5,0.1s0.23,0.27,0.23,0.46c0,0.22-0.07,0.42-0.21,0.6
			s-0.32,0.29-0.54,0.33C87.1,30.03,86.42,30.08,85.68,30.08z"/>
		<path class="st1" d="M90.93,29.92c-0.25,0-0.46-0.09-0.64-0.27s-0.27-0.39-0.27-0.64v-9.83c0-0.25,0.09-0.46,0.27-0.64
			s0.39-0.27,0.64-0.27h5.39c0.2,0,0.37,0.07,0.51,0.21s0.21,0.31,0.21,0.51s-0.07,0.37-0.21,0.51s-0.31,0.21-0.51,0.21h-4.4
			c-0.1,0-0.14,0.04-0.14,0.13v3.05c0,0.1,0.05,0.14,0.14,0.14h4.12c0.19,0,0.35,0.07,0.49,0.2c0.13,0.13,0.2,0.29,0.2,0.49
			s-0.07,0.35-0.2,0.49s-0.29,0.2-0.49,0.2h-4.12c-0.1,0-0.14,0.05-0.14,0.14v3.8c0,0.1,0.05,0.14,0.14,0.14h4.4
			c0.2,0,0.37,0.07,0.51,0.21s0.21,0.31,0.21,0.51s-0.07,0.37-0.21,0.51s-0.31,0.21-0.51,0.21L90.93,29.92L90.93,29.92z"/>
		<path class="st1" d="M102.02,24.73c-1.21-0.42-2.09-0.91-2.62-1.49s-0.81-1.28-0.81-2.1c0-0.94,0.3-1.67,0.89-2.22
			c0.6-0.54,1.41-0.81,2.46-0.81c0.98,0,1.84,0.12,2.58,0.35c0.22,0.07,0.41,0.21,0.55,0.42c0.14,0.21,0.22,0.44,0.22,0.69
			c0,0.18-0.08,0.32-0.24,0.42c-0.16,0.1-0.33,0.11-0.5,0.03c-0.81-0.34-1.63-0.51-2.46-0.51c-0.57,0-1.02,0.14-1.32,0.43
			s-0.46,0.69-0.46,1.2c0,0.42,0.14,0.79,0.43,1.12s0.71,0.6,1.28,0.79c1.4,0.47,2.38,0.99,2.93,1.56s0.82,1.3,0.82,2.19
			c0,1.07-0.33,1.89-0.99,2.44s-1.63,0.83-2.92,0.83c-0.84,0-1.6-0.13-2.28-0.38c-0.5-0.2-0.75-0.59-0.75-1.18
			c0-0.18,0.08-0.31,0.24-0.4s0.32-0.08,0.48,0c0.66,0.35,1.38,0.53,2.15,0.53c1.54,0,2.31-0.61,2.31-1.83
			c0-0.47-0.15-0.87-0.46-1.2C103.26,25.28,102.74,24.99,102.02,24.73z"/>
	</g>
	<g class="st0">
		<path class="st1" d="M42.73,29.97c-0.27-0.03-0.48-0.15-0.65-0.34c-0.17-0.2-0.26-0.43-0.26-0.69v-9.67c0-0.27,0.08-0.5,0.26-0.69
			c0.17-0.2,0.39-0.31,0.65-0.34c0.64-0.07,1.35-0.11,2.12-0.11c1.88,0,3.31,0.49,4.28,1.46c0.97,0.97,1.46,2.43,1.46,4.36
			c0,4.09-1.91,6.14-5.74,6.14C44.07,30.08,43.36,30.04,42.73,29.97z M43.57,19.81v8.58c0,0.08,0.04,0.14,0.13,0.16
			c0.36,0.06,0.74,0.1,1.15,0.1c1.41,0,2.45-0.36,3.09-1.09c0.65-0.73,0.97-1.93,0.97-3.61c0-1.51-0.33-2.62-1-3.33
			c-0.66-0.71-1.69-1.06-3.07-1.06c-0.4,0-0.79,0.03-1.15,0.1C43.61,19.67,43.57,19.72,43.57,19.81z"/>
		<path class="st1" d="M53.05,29.92c-0.24,0-0.46-0.09-0.64-0.27s-0.27-0.39-0.27-0.64v-9.83c0-0.24,0.09-0.46,0.27-0.64
			s0.39-0.27,0.64-0.27h5.39c0.2,0,0.37,0.07,0.51,0.21s0.21,0.31,0.21,0.51s-0.07,0.37-0.21,0.51s-0.31,0.21-0.51,0.21h-4.4
			c-0.1,0-0.14,0.04-0.14,0.13v3.05c0,0.09,0.05,0.14,0.14,0.14h4.12c0.19,0,0.35,0.07,0.49,0.2c0.13,0.13,0.2,0.29,0.2,0.49
			c0,0.19-0.07,0.35-0.2,0.49c-0.13,0.13-0.3,0.2-0.49,0.2h-4.12c-0.1,0-0.14,0.05-0.14,0.14v3.8c0,0.1,0.05,0.14,0.14,0.14h4.4
			c0.2,0,0.37,0.07,0.51,0.21s0.21,0.31,0.21,0.51s-0.07,0.37-0.21,0.51s-0.31,0.21-0.51,0.21L53.05,29.92L53.05,29.92z"/>
		<path class="st1" d="M64.13,24.74c-1.21-0.42-2.09-0.91-2.62-1.49c-0.54-0.58-0.81-1.28-0.81-2.1c0-0.94,0.3-1.68,0.89-2.22
			c0.6-0.54,1.41-0.81,2.46-0.81c0.98,0,1.84,0.12,2.59,0.35c0.22,0.07,0.41,0.22,0.55,0.42c0.14,0.21,0.22,0.44,0.22,0.69
			c0,0.18-0.08,0.32-0.24,0.41s-0.32,0.11-0.49,0.03c-0.81-0.34-1.63-0.51-2.46-0.51c-0.57,0-1.02,0.14-1.32,0.43
			s-0.46,0.69-0.46,1.2c0,0.41,0.14,0.79,0.43,1.12c0.29,0.34,0.71,0.6,1.28,0.79c1.4,0.47,2.38,0.99,2.93,1.56s0.82,1.3,0.82,2.19
			c0,1.07-0.33,1.89-0.99,2.44c-0.66,0.55-1.63,0.83-2.92,0.83c-0.84,0-1.6-0.13-2.28-0.38c-0.5-0.2-0.75-0.59-0.75-1.18
			c0-0.18,0.08-0.31,0.24-0.4c0.16-0.08,0.32-0.08,0.48,0c0.66,0.35,1.38,0.53,2.15,0.53c1.54,0,2.31-0.61,2.31-1.83
			c0-0.47-0.15-0.87-0.46-1.2C65.37,25.28,64.86,24.99,64.13,24.74z"/>
		<path class="st1" d="M74.21,30.08c-1.62,0-2.91-0.52-3.88-1.56c-0.97-1.04-1.46-2.52-1.46-4.42c0-1.88,0.47-3.35,1.41-4.4
			s2.25-1.58,3.93-1.58c0.72,0,1.38,0.05,1.98,0.16c0.21,0.04,0.39,0.15,0.53,0.33s0.21,0.37,0.21,0.6c0,0.19-0.08,0.34-0.23,0.45
			s-0.32,0.14-0.5,0.09c-0.5-0.13-1.11-0.19-1.82-0.19c-1.15,0-2.06,0.4-2.72,1.19c-0.67,0.79-1,1.91-1,3.36s0.34,2.57,1.02,3.36
			s1.58,1.19,2.7,1.19c0.7,0,1.33-0.07,1.9-0.21c0.18-0.05,0.35-0.02,0.5,0.1s0.23,0.27,0.23,0.46c0,0.22-0.07,0.42-0.21,0.6
			s-0.32,0.29-0.54,0.33C75.63,30.03,74.95,30.08,74.21,30.08z"/>
		<path class="st1" d="M80.37,29.66c-0.17,0.17-0.38,0.25-0.62,0.25c-0.25,0-0.45-0.08-0.62-0.25c-0.17-0.17-0.26-0.38-0.26-0.62
			v-9.78c0-0.27,0.08-0.5,0.26-0.69c0.17-0.2,0.39-0.31,0.65-0.33c0.79-0.08,1.55-0.13,2.28-0.13c1.53,0,2.69,0.28,3.46,0.85
			s1.17,1.35,1.17,2.34c0,0.81-0.21,1.5-0.61,2.07c-0.41,0.57-0.97,0.97-1.68,1.19c-0.01,0-0.02,0.01-0.02,0.02
			c0,0.02,0,0.03,0.02,0.03c0.46,0.31,0.88,0.94,1.26,1.88l1.02,2.58c0.08,0.2,0.06,0.39-0.06,0.57c-0.13,0.18-0.3,0.27-0.51,0.27
			c-0.28,0-0.53-0.08-0.75-0.23s-0.38-0.36-0.48-0.61l-1-2.58c-0.22-0.57-0.47-0.94-0.74-1.11s-0.78-0.25-1.54-0.25h-0.81
			c-0.1,0-0.14,0.05-0.14,0.14v3.76C80.63,29.29,80.54,29.49,80.37,29.66z M80.63,19.77v3.84c0,0.1,0.05,0.14,0.14,0.14h0.81
			c2.25,0,3.38-0.77,3.38-2.3c0-0.65-0.24-1.14-0.73-1.46c-0.48-0.32-1.26-0.49-2.34-0.49c-0.4,0-0.79,0.03-1.15,0.1
			C80.67,19.64,80.63,19.69,80.63,19.77z"/>
		<path class="st1" d="M89.66,29.92c-0.25,0-0.46-0.09-0.64-0.27s-0.27-0.39-0.27-0.64v-9.83c0-0.24,0.09-0.46,0.27-0.64
			s0.39-0.27,0.64-0.27h0.1c0.24,0,0.46,0.09,0.64,0.27s0.27,0.39,0.27,0.64v9.83c0,0.25-0.09,0.46-0.27,0.64s-0.39,0.27-0.64,0.27
			H89.66z"/>
		<path class="st1" d="M94.83,29.66c-0.17,0.17-0.38,0.25-0.62,0.25c-0.25,0-0.45-0.08-0.62-0.25c-0.17-0.17-0.26-0.38-0.26-0.62
			v-9.78c0-0.26,0.08-0.48,0.26-0.69c0.17-0.2,0.38-0.31,0.64-0.33c0.9-0.08,1.78-0.13,2.62-0.13c1.47,0,2.58,0.31,3.33,0.93
			s1.13,1.51,1.13,2.66c0,2.61-1.49,3.91-4.47,3.91c-0.63,0-1.17-0.02-1.63-0.06c-0.08,0-0.13,0.04-0.13,0.13v3.37
			C95.08,29.29,95,29.49,94.83,29.66z M95.08,19.77v4.2c0,0.08,0.05,0.14,0.14,0.16c0.54,0.08,1.03,0.11,1.45,0.11
			c0.94,0,1.65-0.21,2.15-0.61c0.5-0.41,0.75-1,0.75-1.76s-0.25-1.35-0.73-1.75c-0.49-0.4-1.21-0.6-2.17-0.6
			c-0.51,0-1,0.03-1.45,0.1C95.13,19.64,95.08,19.69,95.08,19.77z"/>
		<path class="st1" d="M102.86,19.74c-0.2,0-0.37-0.07-0.52-0.22s-0.22-0.32-0.22-0.52s0.07-0.38,0.22-0.52s0.32-0.22,0.52-0.22
			h6.83c0.2,0,0.38,0.07,0.52,0.22s0.21,0.32,0.21,0.52s-0.07,0.38-0.21,0.52s-0.32,0.22-0.52,0.22h-2.39
			c-0.1,0-0.14,0.05-0.14,0.14v9.16c0,0.24-0.09,0.45-0.26,0.62s-0.38,0.25-0.62,0.25c-0.24,0-0.45-0.08-0.62-0.25
			s-0.25-0.38-0.25-0.62v-9.16c0-0.1-0.05-0.14-0.14-0.14H102.86z"/>
		<path class="st1" d="M112.96,29.92c-0.25,0-0.46-0.09-0.64-0.27s-0.27-0.39-0.27-0.64v-9.83c0-0.24,0.09-0.46,0.27-0.64
			s0.39-0.27,0.64-0.27h0.1c0.24,0,0.46,0.09,0.64,0.27s0.27,0.39,0.27,0.64v9.83c0,0.25-0.09,0.46-0.27,0.64s-0.39,0.27-0.64,0.27
			H112.96z"/>
		<path class="st1" d="M124.89,28.5c-0.93,1.05-2.19,1.58-3.79,1.58c-1.59,0-2.86-0.53-3.79-1.58s-1.4-2.52-1.4-4.4
			s0.47-3.35,1.4-4.4s2.19-1.58,3.79-1.58s2.86,0.53,3.79,1.58s1.4,2.52,1.4,4.4C126.28,25.98,125.82,27.45,124.89,28.5z
			 M123.61,20.69c-0.59-0.76-1.43-1.14-2.51-1.14s-1.92,0.38-2.51,1.14c-0.59,0.76-0.88,1.9-0.88,3.41s0.29,2.65,0.88,3.41
			s1.43,1.14,2.51,1.14s1.92-0.38,2.51-1.14c0.59-0.76,0.89-1.9,0.89-3.41S124.2,21.45,123.61,20.69z"/>
		<path class="st1" d="M129.3,29.66c-0.17,0.17-0.37,0.25-0.61,0.25c-0.23,0-0.44-0.08-0.61-0.25s-0.26-0.37-0.26-0.61v-9.92
			c0-0.23,0.08-0.44,0.26-0.61c0.17-0.17,0.37-0.26,0.61-0.26c0.56,0,0.99,0.25,1.29,0.75l4.53,7.93c0,0.01,0.01,0.02,0.03,0.02
			c0.01,0,0.02,0,0.02-0.02v-7.82c0-0.23,0.08-0.44,0.25-0.61s0.37-0.26,0.61-0.26c0.23,0,0.44,0.09,0.61,0.26s0.25,0.37,0.25,0.61
			v9.92c0,0.23-0.08,0.44-0.25,0.61s-0.37,0.25-0.61,0.25c-0.56,0-0.99-0.25-1.29-0.75l-4.55-7.93c0-0.01,0-0.02-0.02-0.02
			s-0.02,0.01-0.02,0.02v7.82C129.55,29.29,129.47,29.49,129.3,29.66z"/>
		<path class="st1" d="M141.58,24.74c-1.21-0.42-2.09-0.91-2.62-1.49c-0.54-0.58-0.81-1.28-0.81-2.1c0-0.94,0.3-1.68,0.89-2.22
			c0.6-0.54,1.41-0.81,2.46-0.81c0.98,0,1.84,0.12,2.58,0.35c0.22,0.07,0.41,0.22,0.55,0.42s0.22,0.44,0.22,0.69
			c0,0.18-0.08,0.32-0.24,0.41c-0.16,0.1-0.33,0.11-0.5,0.03c-0.81-0.34-1.63-0.51-2.46-0.51c-0.57,0-1.02,0.14-1.32,0.43
			s-0.46,0.69-0.46,1.2c0,0.41,0.14,0.79,0.43,1.12c0.29,0.34,0.71,0.6,1.28,0.79c1.4,0.47,2.38,0.99,2.93,1.56
			c0.55,0.57,0.82,1.3,0.82,2.19c0,1.07-0.33,1.89-0.99,2.44s-1.63,0.83-2.92,0.83c-0.84,0-1.6-0.13-2.28-0.38
			c-0.5-0.2-0.75-0.59-0.75-1.18c0-0.18,0.08-0.31,0.24-0.4s0.32-0.08,0.48,0c0.66,0.35,1.38,0.53,2.15,0.53
			c1.54,0,2.31-0.61,2.31-1.83c0-0.47-0.15-0.87-0.46-1.2C142.82,25.28,142.3,24.99,141.58,24.74z"/>
	</g>
</g>
<g id="Calque_7" class="st0">
	<path class="st3" d="M89.93,119.17l63.95-36.8c9.48-5.45,17.16-17.49,17.16-26.9V-65.02c0-9.4-7.68-12.6-17.16-7.15l-63.95,36.8
		c-9.48,5.45-17.16,17.49-17.16,26.9v125.49C72.77,126.42,80.45,124.62,89.93,119.17z"/>
	<path class="st3" d="M55.61,119.17l-63.95-36.8c-9.48-5.45-17.16-17.49-17.16-26.9V-65.02c0-9.4,7.68-12.6,17.16-7.15l63.95,36.8
		c9.48,5.45,17.16,17.49,17.16,26.9v125.49C72.77,126.42,65.09,124.62,55.61,119.17z"/>
</g>
<g id="Calque_5" class="st0">
	<rect x="-54" y="-102.48" class="st3" width="252.26" height="252.26"/>
</g>
<g id="outline" class="st0">
	<path class="st4" d="M36.83,5.71l-12.47,7.18c-1.85,1.06-3.35,3.41-3.35,5.25c0-1.83-1.5-4.18-3.35-5.25L5.19,5.71
		C3.35,4.65,1.85,5.27,1.85,7.1v23.5c0,1.83,1.5,4.18,3.35,5.25l5.32,3.06c0.06,0.07,0.13,0.14,0.19,0.2
		c1.18,1.15,2.63,2.02,4.37,2.6c0.22,0.07,0.44,0.14,0.67,0.21c1.56,0.43,3.31,0.6,5.26,0.6c0.02,0,0.05,0,0.07,0
		c1.98,0,3.74-0.22,5.3-0.66c0.82-0.23,1.58-0.52,2.29-0.88c1.07-0.54,2-1.22,2.79-2.05l5.37-3.09c1.85-1.06,3.35-3.41,3.35-5.25
		V7.1C40.18,5.27,38.68,4.65,36.83,5.71z"/>
</g>
<g id="Big" class="st0">
	<path class="st1" d="M36.83,5.71l-12.47,7.18c-1.85,1.06-3.35,3.41-3.35,5.25v18.41c0.02,0,0.05,0,0.07,0
		c2.23,0,3.93-0.66,5.1-1.97c1.16-1.31,1.74-3.27,1.74-5.87V14.85c0-1.18,0.3-2.07,0.91-2.67c0.6-0.6,1.46-0.91,2.58-0.91
		s1.97,0.3,2.56,0.91c0.59,0.6,0.88,1.49,0.88,2.67v13.81c0,3.05-0.52,5.61-1.56,7.68c-0.5,0.98-1.11,1.85-1.83,2.6l5.37-3.09
		c1.85-1.06,3.35-3.41,3.35-5.25V7.1C40.18,5.27,38.68,4.65,36.83,5.71z"/>
	<path class="st5" d="M7.18,28.67V14.91c0-1.18,0.3-2.07,0.91-2.67c0.6-0.6,1.48-0.91,2.63-0.91c1.12,0,1.98,0.3,2.58,0.91
		c0.6,0.6,0.91,1.49,0.91,2.67v13.8c0,2.6,0.59,4.55,1.77,5.87c1.17,1.3,2.85,1.96,5.05,1.97V18.13c0-1.83-1.5-4.18-3.35-5.25
		L5.19,5.71C3.35,4.65,1.85,5.27,1.85,7.1v23.5c0,1.83,1.5,4.18,3.35,5.25l5.32,3.06c-1.08-1.12-1.9-2.56-2.46-4.2
		C7.47,32.98,7.18,30.96,7.18,28.67z"/>
	<path class="st6" d="M33.97,12.18c-0.59-0.6-1.44-0.91-2.56-0.91s-1.98,0.3-2.58,0.91c-0.6,0.6-0.91,1.49-0.91,2.67v13.86
		c0,2.6-0.58,4.55-1.74,5.87c-1.16,1.31-2.86,1.97-5.1,1.97c-0.02,0-0.05,0-0.07,0v5.98c0.02,0,0.05,0,0.07,0
		c1.98,0,3.74-0.22,5.3-0.66c0.82-0.23,1.58-0.52,2.29-0.88c1.07-0.54,2-1.22,2.79-2.05c0.72-0.75,1.33-1.61,1.83-2.6
		c1.04-2.07,1.56-4.63,1.56-7.68V14.85C34.85,13.68,34.55,12.79,33.97,12.18z"/>
	<path class="st1" d="M15.96,34.58c-1.18-1.31-1.77-3.27-1.77-5.87v-13.8c0-1.18-0.3-2.07-0.91-2.67c-0.6-0.6-1.46-0.91-2.58-0.91
		c-1.15,0-2.02,0.3-2.63,0.91c-0.6,0.6-0.91,1.49-0.91,2.67v13.76c0,2.29,0.29,4.31,0.88,6.05c0.56,1.64,1.38,3.08,2.46,4.2
		c0.06,0.07,0.13,0.14,0.19,0.2c1.18,1.15,2.63,2.02,4.37,2.6c0.22,0.07,0.44,0.14,0.67,0.21c1.56,0.43,3.31,0.6,5.26,0.6v-5.98
		C18.81,36.53,17.13,35.88,15.96,34.58z"/>
	<path class="st1" d="M21.92,33.42H18.5c-0.58,0-1.06-0.47-1.06-1.06v-0.53c0-0.58,0.47-1.06,1.06-1.06h3.42
		c0.58,0,1.06,0.47,1.06,1.06v0.53C22.97,32.94,22.5,33.42,21.92,33.42z"/>
	<path class="st1" d="M21.92,23.77H18.5c-0.58,0-1.06-0.47-1.06-1.06v-0.53c0-0.58,0.47-1.06,1.06-1.06h3.42
		c0.58,0,1.06,0.47,1.06,1.06v0.53C22.97,23.29,22.5,23.77,21.92,23.77z"/>
	<path class="st1" d="M21.92,28.59H18.5c-0.58,0-1.06-0.47-1.06-1.06V27c0-0.58,0.47-1.06,1.06-1.06h3.42
		c0.58,0,1.06,0.47,1.06,1.06v0.53C22.97,28.12,22.5,28.59,21.92,28.59z"/>
</g>
<g id="Smaller">
	<g>
		<path class="st7" d="M34.94,7.09l-11.77,6.77c-1.74,1-3.16,3.22-3.16,4.95c0-1.73-1.41-3.95-3.16-4.95L5.09,7.09
			c-1.74-1-3.16-0.41-3.16,1.32v22.17c0,1.73,1.41,3.95,3.16,4.95l5.02,2.89c0.06,0.06,0.12,0.13,0.18,0.19
			c1.11,1.08,2.49,1.9,4.12,2.46c0.21,0.07,0.42,0.13,0.63,0.19c1.47,0.41,3.13,0.56,4.97,0.57c0.02,0,0.04,0,0.06,0
			c1.87,0,3.53-0.21,5-0.62c0.77-0.22,1.49-0.49,2.16-0.83c1.01-0.51,1.89-1.15,2.64-1.93l5.07-2.92c1.74-1,3.16-3.22,3.16-4.95V8.4
			C38.1,6.67,36.68,6.08,34.94,7.09z"/>
		<path class="st8" d="M34.94,7.09l-11.77,6.77c-1.74,1-3.16,3.22-3.16,4.95v17.37c0.02,0,0.04,0,0.06,0c2.11,0,3.71-0.62,4.81-1.86
			c1.1-1.24,1.65-3.08,1.65-5.53V15.72c0-1.11,0.28-1.95,0.85-2.52s1.38-0.85,2.44-0.85c1.05,0,1.86,0.29,2.41,0.85
			c0.56,0.57,0.83,1.41,0.83,2.52v13.03c0,2.88-0.49,5.29-1.47,7.24c-0.47,0.93-1.04,1.74-1.72,2.45l5.07-2.92
			c1.74-1,3.16-3.22,3.16-4.95V8.4C38.1,6.67,36.68,6.08,34.94,7.09z"/>
		<path class="st9" d="M6.96,28.75V15.77c0-1.11,0.28-1.95,0.85-2.52c0.57-0.57,1.4-0.85,2.48-0.85c1.05,0,1.87,0.29,2.44,0.85
			c0.57,0.57,0.85,1.41,0.85,2.52V28.8c0,2.45,0.56,4.29,1.67,5.53c1.1,1.23,2.69,1.85,4.76,1.86V18.81c0-1.73-1.41-3.95-3.16-4.95
			L5.09,7.09c-1.74-1-3.16-0.41-3.16,1.32v22.17c0,1.73,1.41,3.95,3.16,4.95l5.02,2.89c-1.02-1.06-1.8-2.42-2.32-3.97
			C7.23,32.82,6.96,30.92,6.96,28.75z"/>
		<path class="st9" d="M32.23,13.19c-0.56-0.57-1.36-0.85-2.41-0.85s-1.87,0.29-2.44,0.85c-0.57,0.57-0.85,1.41-0.85,2.52v13.08
			c0,2.45-0.55,4.29-1.65,5.53s-2.7,1.86-4.81,1.86c-0.02,0-0.04,0-0.06,0v5.64c0.02,0,0.04,0,0.06,0c1.87,0,3.53-0.21,5-0.62
			c0.77-0.22,1.49-0.49,2.16-0.83c1.01-0.51,1.89-1.15,2.64-1.93c0.68-0.71,1.26-1.52,1.72-2.45c0.98-1.95,1.47-4.37,1.47-7.24
			V15.72C33.07,14.6,32.79,13.76,32.23,13.19z"/>
		<path class="st2" d="M15.25,34.33c-1.11-1.24-1.67-3.08-1.67-5.53V15.77c0-1.11-0.29-1.95-0.85-2.52
			c-0.57-0.57-1.38-0.85-2.44-0.85c-1.08,0-1.91,0.29-2.48,0.85c-0.57,0.57-0.85,1.41-0.85,2.52v12.98c0,2.17,0.28,4.07,0.83,5.71
			c0.52,1.55,1.3,2.9,2.32,3.96c0.06,0.06,0.12,0.13,0.18,0.19c1.11,1.08,2.49,1.9,4.12,2.46c0.21,0.07,0.42,0.13,0.63,0.19
			c1.47,0.41,3.13,0.56,4.97,0.57v-5.64C17.94,36.17,16.35,35.55,15.25,34.33z"/>
		<path class="st8" d="M20.8,33.23h-3.1c-0.58,0-1.06-0.47-1.06-1.06V31.8c0-0.58,0.47-1.06,1.06-1.06h3.11
			c0.58,0,1.06,0.47,1.06,1.06v0.38C21.86,32.76,21.39,33.23,20.8,33.23z"/>
		<path class="st8" d="M20.8,24.13h-3.1c-0.58,0-1.06-0.47-1.06-1.06v-0.38c0-0.58,0.47-1.06,1.06-1.06h3.11
			c0.58,0,1.06,0.47,1.06,1.06v0.38C21.86,23.65,21.39,24.13,20.8,24.13z"/>
		<path class="st8" d="M20.8,28.68h-3.1c-0.58,0-1.06-0.47-1.06-1.06v-0.38c0-0.58,0.47-1.06,1.06-1.06h3.11
			c0.58,0,1.06,0.47,1.06,1.06v0.38C21.86,28.21,21.39,28.68,20.8,28.68z"/>
	</g>
</g>
<g id="Book" class="st0">
	<g class="st3">
		<path class="st2" d="M48.68,38.95c-0.64-0.08-1.17-0.35-1.58-0.83c-0.41-0.47-0.62-1.03-0.62-1.68V13.1c0-0.64,0.2-1.2,0.62-1.68
			c0.41-0.47,0.94-0.75,1.58-0.83c1.54-0.18,3.25-0.27,5.12-0.27c6.93,0,10.4,2.31,10.4,6.93c0,1.54-0.53,2.9-1.58,4.06
			c-1.05,1.17-2.44,1.92-4.16,2.25c-0.03,0-0.04,0.01-0.04,0.04s0.01,0.04,0.04,0.04c2.16,0.33,3.84,1.13,5.06,2.39
			s1.83,2.83,1.83,4.7c0,5.65-3.72,8.47-11.17,8.47C52.16,39.22,50.32,39.13,48.68,38.95z M50.72,14.34v7.51
			c0,0.23,0.12,0.35,0.35,0.35h1.19c2.82,0,4.86-0.36,6.1-1.08c1.25-0.72,1.87-1.81,1.87-3.27c0-1.41-0.5-2.45-1.5-3.12
			s-2.64-1-4.93-1c-0.98,0-1.9,0.08-2.77,0.23C50.82,14,50.72,14.13,50.72,14.34z M50.72,25.85v9.36c0,0.21,0.1,0.33,0.31,0.39
			c1,0.15,2.05,0.23,3.16,0.23c2.41,0,4.18-0.45,5.31-1.35c1.13-0.9,1.69-2.27,1.69-4.12c0-1.67-0.68-2.89-2.04-3.68
			c-1.36-0.78-3.66-1.17-6.89-1.17h-1.19C50.84,25.5,50.72,25.62,50.72,25.85z"/>
		<path class="st2" d="M89.87,35.4c-2.25,2.54-5.3,3.81-9.15,3.81s-6.9-1.27-9.15-3.81s-3.37-6.09-3.37-10.63
			c0-4.55,1.12-8.09,3.37-10.63s5.3-3.81,9.15-3.81s6.9,1.27,9.15,3.81s3.37,6.09,3.37,10.63C93.24,29.32,92.12,32.86,89.87,35.4z
			 M86.79,16.55c-1.42-1.83-3.45-2.75-6.07-2.75s-4.64,0.92-6.07,2.75c-1.42,1.84-2.14,4.58-2.14,8.22s0.71,6.39,2.14,8.22
			c1.43,1.84,3.45,2.75,6.07,2.75s4.64-0.92,6.07-2.75c1.42-1.84,2.14-4.58,2.14-8.22S88.21,18.39,86.79,16.55z"/>
		<path class="st2" d="M118.91,35.4c-2.25,2.54-5.3,3.81-9.15,3.81s-6.9-1.27-9.15-3.81s-3.37-6.09-3.37-10.63
			c0-4.55,1.12-8.09,3.37-10.63s5.29-3.81,9.15-3.81c3.85,0,6.9,1.27,9.15,3.81s3.37,6.09,3.37,10.63
			C122.28,29.32,121.15,32.86,118.91,35.4z M115.83,16.55c-1.43-1.83-3.45-2.75-6.07-2.75s-4.64,0.92-6.07,2.75
			c-1.42,1.84-2.14,4.58-2.14,8.22s0.71,6.39,2.14,8.22c1.42,1.84,3.45,2.75,6.07,2.75s4.64-0.92,6.07-2.75
			c1.42-1.84,2.14-4.58,2.14-8.22S117.25,18.39,115.83,16.55z"/>
		<path class="st2" d="M130.48,38.21c-0.41,0.41-0.91,0.62-1.5,0.62s-1.09-0.2-1.5-0.62c-0.41-0.41-0.62-0.91-0.62-1.5V12.83
			c0-0.59,0.21-1.09,0.62-1.5s0.91-0.62,1.5-0.62s1.09,0.21,1.5,0.62s0.62,0.91,0.62,1.5V23c0,0.03,0.01,0.04,0.04,0.04l0.08-0.04
			l8.9-10.63c0.95-1.1,2.14-1.66,3.58-1.66h0.62c0.41,0,0.71,0.19,0.91,0.58c0.19,0.39,0.15,0.75-0.14,1.08l-9.9,11.59
			c-0.13,0.18-0.14,0.35-0.04,0.5l10.36,12.67c0.28,0.36,0.33,0.73,0.13,1.12c-0.19,0.39-0.51,0.58-0.94,0.58h-0.62
			c-1.46,0-2.64-0.56-3.54-1.69l-9.32-11.75c-0.03-0.03-0.05-0.04-0.08-0.04s-0.04,0.01-0.04,0.04v11.32
			C131.1,37.3,130.89,37.8,130.48,38.21z"/>
	</g>
</g>
</svg>
