<?xml version="1.0" encoding="utf-8"?>
<!-- Generator: Adobe Illustrator 27.5.0, SVG Export Plug-In . SVG Version: 6.00 Build 0)  -->
<svg version="1.1" xmlns="http://www.w3.org/2000/svg" xmlns:xlink="http://www.w3.org/1999/xlink" x="0px" y="0px"
	 viewBox="0 0 1000 360" style="enable-background:new 0 0 1000 360;" xml:space="preserve">
<style type="text/css">
	.st0{fill:#19A395;}
	.st1{fill:#FFFFFF;}
	.st2{opacity:0.6;}
	.st3{fill:#D11E1A;}
	.st4{fill:#F4971C;}
	.st5{fill:#47A4DC;}
	.st6{fill:#1A2747;}
	.st7{opacity:0.66;}
</style>
<g id="Calque_5">
	<g>
		<path class="st0" d="M249.75,299.84c-0.57,0-1.01-0.16-1.32-0.48c-0.31-0.32-0.47-0.76-0.47-1.33v-15.85
			c0-0.59,0.15-1.03,0.45-1.33c0.3-0.3,0.74-0.45,1.3-0.45s1,0.15,1.31,0.45c0.3,0.3,0.45,0.75,0.45,1.33v14.67h7.97
			c0.49,0,0.87,0.13,1.14,0.39c0.27,0.26,0.4,0.62,0.4,1.1c0,0.48-0.13,0.85-0.4,1.11c-0.27,0.27-0.65,0.4-1.14,0.4H249.75z"/>
		<path class="st0" d="M265.36,300.06c-0.57,0-1-0.16-1.3-0.48c-0.3-0.32-0.45-0.76-0.45-1.33v-16.18c0-0.59,0.15-1.03,0.45-1.35
			c0.3-0.31,0.74-0.47,1.3-0.47c0.57,0,1,0.16,1.31,0.47c0.3,0.31,0.45,0.76,0.45,1.35v16.18c0,0.57-0.15,1.01-0.44,1.33
			C266.38,299.9,265.94,300.06,265.36,300.06z"/>
		<path class="st0" d="M280.85,300.12c-2.14,0-3.95-0.4-5.43-1.21c-1.48-0.81-2.6-1.95-3.37-3.43c-0.77-1.48-1.15-3.24-1.15-5.28
			c0-1.54,0.22-2.92,0.67-4.15c0.45-1.23,1.1-2.28,1.95-3.15c0.85-0.87,1.89-1.54,3.12-2.01c1.23-0.47,2.62-0.7,4.18-0.7
			c1.03,0,2.06,0.12,3.09,0.37c1.03,0.25,2.01,0.66,2.93,1.25c0.31,0.2,0.52,0.45,0.62,0.74s0.11,0.59,0.04,0.89
			c-0.07,0.3-0.21,0.56-0.41,0.78c-0.2,0.22-0.45,0.36-0.76,0.41s-0.64-0.02-1-0.22c-0.7-0.4-1.4-0.7-2.12-0.88
			c-0.71-0.18-1.51-0.27-2.39-0.27c-1.36,0-2.5,0.27-3.43,0.81c-0.93,0.54-1.64,1.32-2.1,2.35c-0.47,1.03-0.7,2.28-0.7,3.76
			c0,2.25,0.54,3.97,1.62,5.14c1.08,1.17,2.68,1.76,4.81,1.76c0.73,0,1.47-0.07,2.23-0.22c0.75-0.15,1.48-0.35,2.2-0.6l-0.69,1.57
			v-5.85h-3.02c-0.46,0-0.81-0.12-1.06-0.36c-0.25-0.24-0.37-0.56-0.37-0.96c0-0.42,0.12-0.74,0.37-0.96
			c0.25-0.22,0.6-0.33,1.06-0.33h4.53c0.46,0,0.81,0.12,1.06,0.37c0.25,0.25,0.37,0.6,0.37,1.06v6.68c0,0.4-0.08,0.74-0.23,1.02
			c-0.16,0.27-0.41,0.48-0.75,0.6c-0.81,0.29-1.73,0.54-2.78,0.73C282.89,300.02,281.86,300.12,280.85,300.12z"/>
		<path class="st0" d="M300.01,300.12c-1.34,0-2.51-0.17-3.53-0.52s-1.87-0.87-2.57-1.55c-0.7-0.69-1.22-1.54-1.57-2.57
			c-0.35-1.03-0.52-2.22-0.52-3.57v-9.86c0-0.6,0.15-1.05,0.45-1.35c0.3-0.29,0.74-0.44,1.31-0.44c0.57,0,1,0.15,1.3,0.44
			c0.3,0.29,0.45,0.74,0.45,1.35v9.84c0,1.74,0.4,3.05,1.2,3.92c0.8,0.87,1.96,1.3,3.48,1.3c1.52,0,2.67-0.43,3.46-1.3
			s1.18-2.18,1.18-3.92v-9.84c0-0.6,0.15-1.05,0.45-1.35c0.3-0.29,0.74-0.44,1.3-0.44c0.55,0,0.98,0.15,1.28,0.44
			c0.3,0.29,0.45,0.74,0.45,1.35v9.86c0,1.79-0.31,3.31-0.92,4.53c-0.61,1.23-1.53,2.15-2.73,2.76
			C303.27,299.81,301.78,300.12,300.01,300.12z"/>
		<path class="st0" d="M314.29,299.84c-0.6,0-1.07-0.16-1.39-0.48c-0.32-0.32-0.48-0.78-0.48-1.39v-15.63c0-0.6,0.16-1.07,0.48-1.39
			c0.32-0.32,0.78-0.48,1.39-0.48h9.81c0.46,0,0.81,0.12,1.06,0.36c0.25,0.24,0.37,0.58,0.37,1.02c0,0.46-0.12,0.81-0.37,1.06
			c-0.25,0.25-0.6,0.37-1.06,0.37h-8.3v5.33h7.69c0.48,0,0.83,0.12,1.07,0.36c0.24,0.24,0.36,0.59,0.36,1.04
			c0,0.46-0.12,0.81-0.36,1.04c-0.24,0.24-0.6,0.36-1.07,0.36h-7.69v5.63h8.3c0.46,0,0.81,0.12,1.06,0.36
			c0.25,0.24,0.37,0.59,0.37,1.04s-0.12,0.81-0.37,1.04c-0.25,0.24-0.6,0.36-1.06,0.36H314.29z"/>
		<path class="st0" d="M335.7,300.12c-0.81,0-1.61-0.06-2.42-0.18c-0.81-0.12-1.57-0.3-2.28-0.55c-0.71-0.25-1.36-0.55-1.92-0.92
			c-0.33-0.22-0.56-0.49-0.69-0.8c-0.13-0.31-0.17-0.62-0.12-0.92c0.05-0.3,0.17-0.57,0.36-0.8c0.19-0.23,0.44-0.37,0.73-0.43
			c0.29-0.06,0.61,0.03,0.96,0.25c0.81,0.48,1.66,0.82,2.56,1.04c0.9,0.22,1.84,0.33,2.83,0.33c1.45,0,2.5-0.24,3.16-0.73
			c0.66-0.49,0.99-1.11,0.99-1.88c0-0.64-0.23-1.14-0.7-1.51c-0.47-0.37-1.27-0.67-2.4-0.91l-3.02-0.63
			c-1.74-0.37-3.04-0.98-3.89-1.85c-0.85-0.87-1.28-2.02-1.28-3.45c0-0.9,0.18-1.71,0.55-2.45c0.37-0.73,0.88-1.36,1.55-1.9
			c0.67-0.53,1.46-0.94,2.39-1.22c0.92-0.28,1.95-0.43,3.06-0.43c1.1,0,2.14,0.14,3.13,0.41c0.99,0.27,1.88,0.68,2.67,1.21
			c0.29,0.2,0.49,0.45,0.59,0.74s0.12,0.58,0.07,0.87c-0.06,0.28-0.18,0.53-0.38,0.73c-0.2,0.2-0.45,0.32-0.76,0.36
			c-0.3,0.04-0.65-0.06-1.03-0.27c-0.68-0.39-1.36-0.66-2.06-0.82c-0.7-0.16-1.45-0.25-2.25-0.25c-0.84,0-1.57,0.12-2.17,0.36
			c-0.6,0.24-1.07,0.57-1.39,1c-0.32,0.43-0.48,0.94-0.48,1.52c0,0.66,0.22,1.19,0.66,1.58c0.44,0.39,1.19,0.7,2.25,0.92l3,0.63
			c1.81,0.38,3.16,0.99,4.05,1.81c0.89,0.82,1.33,1.92,1.33,3.3c0,0.88-0.18,1.68-0.54,2.39c-0.36,0.71-0.87,1.33-1.54,1.84
			c-0.67,0.51-1.47,0.91-2.4,1.18C337.92,299.98,336.87,300.12,335.7,300.12z"/>
		<path class="st0" d="M362.24,300.12c-1.34,0-2.51-0.17-3.53-0.52c-1.02-0.35-1.87-0.87-2.57-1.55c-0.7-0.69-1.22-1.54-1.57-2.57
			c-0.35-1.03-0.52-2.22-0.52-3.57v-9.86c0-0.6,0.15-1.05,0.45-1.35c0.3-0.29,0.74-0.44,1.31-0.44c0.57,0,1,0.15,1.3,0.44
			c0.3,0.29,0.45,0.74,0.45,1.35v9.84c0,1.74,0.4,3.05,1.2,3.92c0.8,0.87,1.96,1.3,3.48,1.3c1.52,0,2.67-0.43,3.46-1.3
			s1.18-2.18,1.18-3.92v-9.84c0-0.6,0.15-1.05,0.45-1.35c0.3-0.29,0.74-0.44,1.3-0.44c0.55,0,0.98,0.15,1.28,0.44
			c0.3,0.29,0.45,0.74,0.45,1.35v9.86c0,1.79-0.31,3.31-0.92,4.53s-1.53,2.15-2.73,2.76C365.51,299.81,364.02,300.12,362.24,300.12z
			"/>
		<path class="st0" d="M376.31,300.06c-0.53,0-0.94-0.15-1.22-0.44c-0.28-0.29-0.43-0.71-0.43-1.26v-16.35c0-0.57,0.14-1,0.43-1.31
			c0.28-0.3,0.65-0.45,1.11-0.45c0.42,0,0.74,0.08,0.95,0.23c0.21,0.16,0.46,0.42,0.76,0.78l10.52,13.66h-0.71v-13
			c0-0.53,0.14-0.94,0.43-1.24c0.28-0.29,0.69-0.44,1.22-0.44c0.53,0,0.93,0.15,1.21,0.44c0.27,0.29,0.41,0.71,0.41,1.24v16.49
			c0,0.51-0.13,0.92-0.39,1.21c-0.26,0.29-0.6,0.44-1.04,0.44c-0.42,0-0.76-0.08-1-0.25c-0.25-0.16-0.52-0.43-0.81-0.8l-10.5-13.66
			h0.69v13c0,0.55-0.14,0.97-0.41,1.26C377.24,299.92,376.84,300.06,376.31,300.06z"/>
		<path class="st0" d="M397.16,300.06c-0.57,0-1-0.16-1.3-0.48c-0.3-0.32-0.45-0.76-0.45-1.33v-16.18c0-0.59,0.15-1.03,0.45-1.35
			c0.3-0.31,0.74-0.47,1.3-0.47c0.57,0,1,0.16,1.31,0.47c0.3,0.31,0.45,0.76,0.45,1.35v16.18c0,0.57-0.15,1.01-0.44,1.33
			C398.19,299.9,397.75,300.06,397.16,300.06z"/>
		<path class="st0" d="M411.04,300.06c-0.49,0-0.9-0.11-1.22-0.34c-0.32-0.23-0.58-0.57-0.78-1.03l-7.17-16.1
			c-0.2-0.46-0.26-0.86-0.16-1.21c0.09-0.35,0.28-0.62,0.58-0.82c0.29-0.2,0.64-0.3,1.04-0.3c0.53,0,0.93,0.11,1.2,0.34
			c0.26,0.23,0.49,0.57,0.67,1.03l6.51,15.08h-1.18L417,281.6c0.2-0.44,0.44-0.77,0.71-1c0.27-0.23,0.66-0.34,1.15-0.34
			c0.4,0,0.74,0.1,1,0.3c0.27,0.2,0.44,0.48,0.51,0.82s0.01,0.75-0.19,1.21l-7.17,16.1c-0.2,0.46-0.45,0.8-0.76,1.03
			C411.96,299.95,411.55,300.06,411.04,300.06z"/>
		<path class="st0" d="M425,299.84c-0.6,0-1.07-0.16-1.39-0.48s-0.48-0.78-0.48-1.39v-15.63c0-0.6,0.16-1.07,0.48-1.39
			c0.32-0.32,0.78-0.48,1.39-0.48h9.81c0.46,0,0.81,0.12,1.06,0.36c0.25,0.24,0.37,0.58,0.37,1.02c0,0.46-0.12,0.81-0.37,1.06
			c-0.25,0.25-0.6,0.37-1.06,0.37h-8.3v5.33h7.69c0.48,0,0.83,0.12,1.07,0.36c0.24,0.24,0.36,0.59,0.36,1.04
			c0,0.46-0.12,0.81-0.36,1.04c-0.24,0.24-0.6,0.36-1.07,0.36h-7.69v5.63h8.3c0.46,0,0.81,0.12,1.06,0.36
			c0.25,0.24,0.37,0.59,0.37,1.04s-0.12,0.81-0.37,1.04c-0.25,0.24-0.6,0.36-1.06,0.36H425z"/>
		<path class="st0" d="M441.48,300.06c-0.57,0-1-0.16-1.3-0.48c-0.3-0.32-0.45-0.76-0.45-1.33v-15.99c0-0.59,0.16-1.03,0.47-1.33
			c0.31-0.3,0.75-0.45,1.32-0.45h6.62c2.12,0,3.76,0.51,4.92,1.53c1.15,1.02,1.73,2.44,1.73,4.27c0,1.19-0.26,2.22-0.78,3.08
			c-0.52,0.86-1.28,1.52-2.27,1.98c-0.99,0.46-2.19,0.69-3.6,0.69l0.25-0.41h0.91c0.75,0,1.41,0.18,1.96,0.55
			c0.56,0.37,1.05,0.94,1.47,1.73l2.06,3.82c0.22,0.38,0.32,0.76,0.3,1.13c-0.02,0.37-0.16,0.66-0.41,0.89
			c-0.26,0.23-0.63,0.34-1.13,0.34c-0.49,0-0.9-0.11-1.21-0.32c-0.31-0.21-0.59-0.54-0.82-0.98l-2.77-5.11
			c-0.33-0.62-0.72-1.04-1.17-1.25c-0.45-0.21-1.02-0.32-1.72-0.32h-2.61v6.15c0,0.57-0.15,1.01-0.44,1.33
			C442.51,299.9,442.07,300.06,441.48,300.06z M443.24,289.49h4.29c1.26,0,2.22-0.26,2.87-0.78c0.65-0.52,0.98-1.31,0.98-2.35
			c0-1.03-0.33-1.8-0.98-2.32c-0.65-0.52-1.61-0.78-2.87-0.78h-4.29V289.49z"/>
		<path class="st0" d="M465.44,300.12c-0.81,0-1.61-0.06-2.42-0.18c-0.81-0.12-1.57-0.3-2.28-0.55c-0.71-0.25-1.36-0.55-1.92-0.92
			c-0.33-0.22-0.56-0.49-0.69-0.8c-0.13-0.31-0.17-0.62-0.12-0.92c0.05-0.3,0.17-0.57,0.36-0.8c0.19-0.23,0.44-0.37,0.73-0.43
			c0.29-0.06,0.61,0.03,0.96,0.25c0.81,0.48,1.66,0.82,2.56,1.04c0.9,0.22,1.84,0.33,2.83,0.33c1.45,0,2.5-0.24,3.16-0.73
			c0.66-0.49,0.99-1.11,0.99-1.88c0-0.64-0.23-1.14-0.7-1.51c-0.47-0.37-1.27-0.67-2.4-0.91l-3.02-0.63
			c-1.74-0.37-3.04-0.98-3.89-1.85c-0.85-0.87-1.28-2.02-1.28-3.45c0-0.9,0.18-1.71,0.55-2.45c0.37-0.73,0.88-1.36,1.55-1.9
			c0.67-0.53,1.46-0.94,2.39-1.22c0.92-0.28,1.95-0.43,3.06-0.43c1.1,0,2.14,0.14,3.13,0.41c0.99,0.27,1.88,0.68,2.67,1.21
			c0.29,0.2,0.49,0.45,0.59,0.74s0.12,0.58,0.07,0.87c-0.06,0.28-0.18,0.53-0.38,0.73c-0.2,0.2-0.45,0.32-0.76,0.36
			c-0.3,0.04-0.65-0.06-1.03-0.27c-0.68-0.39-1.36-0.66-2.06-0.82c-0.7-0.16-1.45-0.25-2.25-0.25c-0.84,0-1.57,0.12-2.17,0.36
			c-0.6,0.24-1.07,0.57-1.39,1c-0.32,0.43-0.48,0.94-0.48,1.52c0,0.66,0.22,1.19,0.66,1.58c0.44,0.39,1.19,0.7,2.25,0.92l3,0.63
			c1.81,0.38,3.16,0.99,4.05,1.81c0.89,0.82,1.33,1.92,1.33,3.3c0,0.88-0.18,1.68-0.54,2.39c-0.36,0.71-0.87,1.33-1.54,1.84
			c-0.67,0.51-1.47,0.91-2.4,1.18C467.67,299.98,466.62,300.12,465.44,300.12z"/>
		<path class="st0" d="M478.17,299.84c-0.6,0-1.07-0.16-1.39-0.48c-0.32-0.32-0.48-0.78-0.48-1.39v-15.63c0-0.6,0.16-1.07,0.48-1.39
			c0.32-0.32,0.78-0.48,1.39-0.48h9.81c0.46,0,0.81,0.12,1.06,0.36c0.25,0.24,0.37,0.58,0.37,1.02c0,0.46-0.12,0.81-0.37,1.06
			c-0.25,0.25-0.6,0.37-1.06,0.37h-8.3v5.33h7.69c0.48,0,0.83,0.12,1.07,0.36c0.24,0.24,0.36,0.59,0.36,1.04
			c0,0.46-0.12,0.81-0.36,1.04c-0.24,0.24-0.6,0.36-1.07,0.36h-7.69v5.63h8.3c0.46,0,0.81,0.12,1.06,0.36
			c0.25,0.24,0.37,0.59,0.37,1.04s-0.12,0.81-0.37,1.04c-0.25,0.24-0.6,0.36-1.06,0.36H478.17z"/>
		<path class="st0" d="M494.68,299.84c-0.57,0-1.01-0.16-1.32-0.48c-0.31-0.32-0.47-0.76-0.47-1.33v-15.85
			c0-0.59,0.15-1.03,0.45-1.33c0.3-0.3,0.74-0.45,1.3-0.45s1,0.15,1.31,0.45c0.3,0.3,0.45,0.75,0.45,1.33v14.67h7.97
			c0.49,0,0.87,0.13,1.14,0.39c0.27,0.26,0.4,0.62,0.4,1.1c0,0.48-0.13,0.85-0.4,1.11c-0.27,0.27-0.65,0.4-1.14,0.4H494.68z"/>
		<path class="st0" d="M510.31,299.84c-0.57,0-1.01-0.16-1.32-0.48c-0.31-0.32-0.47-0.76-0.47-1.33v-15.85
			c0-0.59,0.15-1.03,0.45-1.33c0.3-0.3,0.74-0.45,1.3-0.45c0.57,0,1,0.15,1.31,0.45c0.3,0.3,0.45,0.75,0.45,1.33v14.67h7.97
			c0.49,0,0.87,0.13,1.14,0.39c0.27,0.26,0.4,0.62,0.4,1.1c0,0.48-0.13,0.85-0.4,1.11c-0.27,0.27-0.65,0.4-1.14,0.4H510.31z"/>
		<path class="st0" d="M526.03,299.84c-0.6,0-1.07-0.16-1.39-0.48s-0.48-0.78-0.48-1.39v-15.63c0-0.6,0.16-1.07,0.48-1.39
			c0.32-0.32,0.78-0.48,1.39-0.48h9.81c0.46,0,0.81,0.12,1.06,0.36c0.25,0.24,0.37,0.58,0.37,1.02c0,0.46-0.12,0.81-0.37,1.06
			c-0.25,0.25-0.6,0.37-1.06,0.37h-8.3v5.33h7.69c0.48,0,0.83,0.12,1.07,0.36c0.24,0.24,0.36,0.59,0.36,1.04
			c0,0.46-0.12,0.81-0.36,1.04c-0.24,0.24-0.6,0.36-1.07,0.36h-7.69v5.63h8.3c0.46,0,0.81,0.12,1.06,0.36
			c0.25,0.24,0.37,0.59,0.37,1.04s-0.12,0.81-0.37,1.04c-0.25,0.24-0.6,0.36-1.06,0.36H526.03z"/>
		<path class="st0" d="M547.43,300.12c-0.81,0-1.61-0.06-2.42-0.18c-0.81-0.12-1.57-0.3-2.28-0.55c-0.71-0.25-1.36-0.55-1.92-0.92
			c-0.33-0.22-0.56-0.49-0.69-0.8c-0.13-0.31-0.17-0.62-0.12-0.92c0.05-0.3,0.17-0.57,0.36-0.8c0.19-0.23,0.44-0.37,0.73-0.43
			c0.29-0.06,0.61,0.03,0.96,0.25c0.81,0.48,1.66,0.82,2.56,1.04c0.9,0.22,1.84,0.33,2.83,0.33c1.45,0,2.5-0.24,3.16-0.73
			c0.66-0.49,0.99-1.11,0.99-1.88c0-0.64-0.23-1.14-0.7-1.51c-0.47-0.37-1.27-0.67-2.4-0.91l-3.02-0.63
			c-1.74-0.37-3.04-0.98-3.89-1.85c-0.85-0.87-1.28-2.02-1.28-3.45c0-0.9,0.18-1.71,0.55-2.45c0.37-0.73,0.88-1.36,1.55-1.9
			c0.67-0.53,1.46-0.94,2.39-1.22c0.92-0.28,1.95-0.43,3.06-0.43c1.1,0,2.14,0.14,3.13,0.41c0.99,0.27,1.88,0.68,2.67,1.21
			c0.29,0.2,0.49,0.45,0.59,0.74c0.1,0.29,0.12,0.58,0.07,0.87c-0.06,0.28-0.18,0.53-0.38,0.73c-0.2,0.2-0.45,0.32-0.76,0.36
			c-0.3,0.04-0.65-0.06-1.03-0.27c-0.68-0.39-1.36-0.66-2.06-0.82c-0.7-0.16-1.45-0.25-2.25-0.25c-0.84,0-1.57,0.12-2.17,0.36
			c-0.6,0.24-1.07,0.57-1.39,1s-0.48,0.94-0.48,1.52c0,0.66,0.22,1.19,0.66,1.58c0.44,0.39,1.19,0.7,2.25,0.92l3,0.63
			c1.81,0.38,3.16,0.99,4.05,1.81c0.89,0.82,1.33,1.92,1.33,3.3c0,0.88-0.18,1.68-0.54,2.39c-0.36,0.71-0.87,1.33-1.54,1.84
			c-0.67,0.51-1.47,0.91-2.4,1.18C549.66,299.98,548.61,300.12,547.43,300.12z"/>
		<path class="st0" d="M567.68,300.06c-0.57,0-1-0.16-1.3-0.48c-0.3-0.32-0.45-0.76-0.45-1.33v-15.99c0-0.59,0.16-1.03,0.47-1.33
			c0.31-0.3,0.75-0.45,1.32-0.45h6.62c2.12,0,3.76,0.53,4.92,1.59c1.15,1.06,1.73,2.55,1.73,4.45s-0.58,3.39-1.73,4.46
			c-1.15,1.07-2.79,1.61-4.92,1.61h-4.89v5.66c0,0.57-0.15,1.01-0.44,1.33C568.71,299.9,568.27,300.06,567.68,300.06z
			 M569.44,289.82h4.34c1.25,0,2.19-0.28,2.83-0.84c0.64-0.56,0.96-1.38,0.96-2.46s-0.32-1.9-0.96-2.45
			c-0.64-0.55-1.58-0.82-2.83-0.82h-4.34V289.82z"/>
		<path class="st0" d="M592.72,300.12c-1.87,0-3.5-0.41-4.9-1.24s-2.49-1.98-3.26-3.48c-0.77-1.49-1.15-3.25-1.15-5.26
			c0-1.52,0.22-2.89,0.66-4.11c0.44-1.22,1.07-2.26,1.88-3.13c0.81-0.87,1.79-1.54,2.94-2.01c1.14-0.47,2.42-0.7,3.83-0.7
			c1.89,0,3.53,0.41,4.92,1.22c1.39,0.82,2.47,1.96,3.24,3.45c0.77,1.48,1.15,3.23,1.15,5.25c0,1.52-0.22,2.89-0.66,4.12
			c-0.44,1.23-1.07,2.28-1.88,3.16s-1.79,1.55-2.94,2.02S594.13,300.12,592.72,300.12z M592.72,297.1c1.19,0,2.2-0.27,3.04-0.82
			c0.83-0.55,1.47-1.35,1.92-2.39c0.45-1.04,0.67-2.29,0.67-3.74c0-2.2-0.49-3.9-1.47-5.11c-0.98-1.21-2.37-1.81-4.16-1.81
			c-1.17,0-2.18,0.27-3.02,0.81c-0.84,0.54-1.49,1.33-1.94,2.36c-0.45,1.03-0.67,2.29-0.67,3.75c0,2.18,0.49,3.88,1.48,5.11
			S590.94,297.1,592.72,297.1z"/>
		<path class="st0" d="M613.85,300.12c-1.34,0-2.51-0.17-3.53-0.52c-1.02-0.35-1.87-0.87-2.57-1.55c-0.7-0.69-1.22-1.54-1.57-2.57
			c-0.35-1.03-0.52-2.22-0.52-3.57v-9.86c0-0.6,0.15-1.05,0.45-1.35c0.3-0.29,0.74-0.44,1.31-0.44c0.57,0,1,0.15,1.3,0.44
			c0.3,0.29,0.45,0.74,0.45,1.35v9.84c0,1.74,0.4,3.05,1.2,3.92c0.8,0.87,1.96,1.3,3.48,1.3c1.52,0,2.67-0.43,3.46-1.3
			s1.18-2.18,1.18-3.92v-9.84c0-0.6,0.15-1.05,0.45-1.35c0.3-0.29,0.74-0.44,1.3-0.44c0.55,0,0.98,0.15,1.28,0.44
			c0.3,0.29,0.45,0.74,0.45,1.35v9.86c0,1.79-0.31,3.31-0.92,4.53c-0.61,1.23-1.53,2.15-2.73,2.76
			C617.12,299.81,615.62,300.12,613.85,300.12z"/>
		<path class="st0" d="M628.02,300.06c-0.57,0-1-0.16-1.3-0.48c-0.3-0.32-0.45-0.76-0.45-1.33v-15.99c0-0.59,0.16-1.03,0.47-1.33
			c0.31-0.3,0.75-0.45,1.32-0.45h6.62c2.12,0,3.76,0.51,4.92,1.53c1.15,1.02,1.73,2.44,1.73,4.27c0,1.19-0.26,2.22-0.78,3.08
			c-0.52,0.86-1.28,1.52-2.27,1.98c-0.99,0.46-2.19,0.69-3.6,0.69l0.25-0.41h0.91c0.75,0,1.41,0.18,1.96,0.55
			c0.56,0.37,1.05,0.94,1.47,1.73l2.06,3.82c0.22,0.38,0.32,0.76,0.3,1.13c-0.02,0.37-0.16,0.66-0.41,0.89
			c-0.26,0.23-0.63,0.34-1.13,0.34c-0.49,0-0.9-0.11-1.21-0.32c-0.31-0.21-0.59-0.54-0.82-0.98l-2.77-5.11
			c-0.33-0.62-0.72-1.04-1.17-1.25c-0.45-0.21-1.02-0.32-1.72-0.32h-2.61v6.15c0,0.57-0.15,1.01-0.44,1.33
			C629.05,299.9,628.61,300.06,628.02,300.06z M629.78,289.49h4.29c1.26,0,2.22-0.26,2.87-0.78c0.65-0.52,0.98-1.31,0.98-2.35
			c0-1.03-0.33-1.8-0.98-2.32c-0.65-0.52-1.61-0.78-2.87-0.78h-4.29V289.49z"/>
		<path class="st0" d="M661,300.12c-1.34,0-2.51-0.17-3.53-0.52c-1.02-0.35-1.87-0.87-2.57-1.55c-0.7-0.69-1.22-1.54-1.57-2.57
			c-0.35-1.03-0.52-2.22-0.52-3.57v-9.86c0-0.6,0.15-1.05,0.45-1.35c0.3-0.29,0.74-0.44,1.31-0.44c0.57,0,1,0.15,1.3,0.44
			c0.3,0.29,0.45,0.74,0.45,1.35v9.84c0,1.74,0.4,3.05,1.2,3.92c0.8,0.87,1.96,1.3,3.48,1.3c1.52,0,2.67-0.43,3.46-1.3
			s1.18-2.18,1.18-3.92v-9.84c0-0.6,0.15-1.05,0.45-1.35c0.3-0.29,0.74-0.44,1.3-0.44c0.55,0,0.98,0.15,1.28,0.44
			c0.3,0.29,0.45,0.74,0.45,1.35v9.86c0,1.79-0.31,3.31-0.92,4.53s-1.53,2.15-2.73,2.76C664.27,299.81,662.77,300.12,661,300.12z"/>
		<path class="st0" d="M675.06,300.06c-0.53,0-0.94-0.15-1.22-0.44c-0.28-0.29-0.43-0.71-0.43-1.26v-16.35c0-0.57,0.14-1,0.43-1.31
			c0.28-0.3,0.65-0.45,1.11-0.45c0.42,0,0.74,0.08,0.95,0.23c0.21,0.16,0.46,0.42,0.76,0.78l10.52,13.66h-0.71v-13
			c0-0.53,0.14-0.94,0.43-1.24c0.28-0.29,0.69-0.44,1.22-0.44c0.53,0,0.93,0.15,1.21,0.44c0.27,0.29,0.41,0.71,0.41,1.24v16.49
			c0,0.51-0.13,0.92-0.39,1.21s-0.6,0.44-1.04,0.44c-0.42,0-0.76-0.08-1-0.25c-0.25-0.16-0.52-0.43-0.81-0.8L676,285.36h0.69v13
			c0,0.55-0.14,0.97-0.41,1.26C676,299.92,675.6,300.06,675.06,300.06z"/>
		<path class="st0" d="M696.03,299.84c-0.6,0-1.07-0.16-1.39-0.48s-0.48-0.78-0.48-1.39v-15.63c0-0.6,0.16-1.07,0.48-1.39
			c0.32-0.32,0.78-0.48,1.39-0.48h9.81c0.46,0,0.81,0.12,1.06,0.36c0.25,0.24,0.37,0.58,0.37,1.02c0,0.46-0.12,0.81-0.37,1.06
			c-0.25,0.25-0.6,0.37-1.06,0.37h-8.3v5.33h7.69c0.48,0,0.83,0.12,1.07,0.36c0.24,0.24,0.36,0.59,0.36,1.04
			c0,0.46-0.12,0.81-0.36,1.04c-0.24,0.24-0.6,0.36-1.07,0.36h-7.69v5.63h8.3c0.46,0,0.81,0.12,1.06,0.36
			c0.25,0.24,0.37,0.59,0.37,1.04s-0.12,0.81-0.37,1.04c-0.25,0.24-0.6,0.36-1.06,0.36H696.03z"/>
		<path class="st0" d="M726.09,300.06c-0.49,0-0.9-0.11-1.22-0.34c-0.32-0.23-0.58-0.57-0.78-1.03l-7.17-16.1
			c-0.2-0.46-0.26-0.86-0.16-1.21c0.09-0.35,0.28-0.62,0.58-0.82c0.29-0.2,0.64-0.3,1.04-0.3c0.53,0,0.93,0.11,1.2,0.34
			c0.26,0.23,0.49,0.57,0.67,1.03l6.51,15.08h-1.18l6.48-15.11c0.2-0.44,0.44-0.77,0.71-1c0.27-0.23,0.66-0.34,1.15-0.34
			c0.4,0,0.74,0.1,1,0.3c0.27,0.2,0.44,0.48,0.51,0.82s0.01,0.75-0.19,1.21l-7.17,16.1c-0.2,0.46-0.45,0.8-0.76,1.03
			C727.01,299.95,726.6,300.06,726.09,300.06z"/>
		<path class="st0" d="M739.94,300.06c-0.57,0-1-0.16-1.3-0.48c-0.3-0.32-0.45-0.76-0.45-1.33v-15.99c0-0.59,0.16-1.03,0.47-1.33
			c0.31-0.3,0.75-0.45,1.32-0.45h6.62c2.12,0,3.76,0.51,4.92,1.53c1.15,1.02,1.73,2.44,1.73,4.27c0,1.19-0.26,2.22-0.78,3.08
			c-0.52,0.86-1.28,1.52-2.27,1.98c-0.99,0.46-2.19,0.69-3.6,0.69l0.25-0.41h0.91c0.75,0,1.41,0.18,1.96,0.55
			c0.56,0.37,1.05,0.94,1.47,1.73l2.06,3.82c0.22,0.38,0.32,0.76,0.3,1.13c-0.02,0.37-0.16,0.66-0.41,0.89
			c-0.26,0.23-0.63,0.34-1.13,0.34c-0.49,0-0.9-0.11-1.21-0.32c-0.31-0.21-0.59-0.54-0.82-0.98l-2.77-5.11
			c-0.33-0.62-0.72-1.04-1.17-1.25c-0.45-0.21-1.02-0.32-1.72-0.32h-2.61v6.15c0,0.57-0.15,1.01-0.44,1.33
			C740.96,299.9,740.52,300.06,739.94,300.06z M741.7,289.49h4.29c1.26,0,2.22-0.26,2.87-0.78c0.65-0.52,0.98-1.31,0.98-2.35
			c0-1.03-0.33-1.8-0.98-2.32c-0.65-0.52-1.61-0.78-2.87-0.78h-4.29V289.49z"/>
		<path class="st0" d="M756.86,300.06c-0.44,0-0.79-0.1-1.06-0.3c-0.27-0.2-0.43-0.47-0.48-0.81s0.01-0.72,0.19-1.14l7.25-16.07
			c0.24-0.53,0.53-0.91,0.87-1.14c0.34-0.23,0.73-0.34,1.17-0.34c0.42,0,0.8,0.11,1.14,0.34c0.34,0.23,0.63,0.61,0.87,1.14
			l7.28,16.07c0.2,0.42,0.27,0.81,0.22,1.15c-0.05,0.35-0.21,0.62-0.47,0.81c-0.26,0.19-0.6,0.29-1.02,0.29
			c-0.51,0-0.91-0.12-1.2-0.37c-0.28-0.25-0.54-0.63-0.76-1.14l-1.79-4.15l1.48,0.96h-11.6l1.48-0.96l-1.76,4.15
			c-0.24,0.53-0.49,0.92-0.74,1.15S757.34,300.06,756.86,300.06z M764.75,284.29l-3.85,9.15l-0.71-0.88h9.18l-0.69,0.88l-3.87-9.15
			H764.75z"/>
		<path class="st0" d="M779.07,300.06c-0.57,0-1-0.16-1.3-0.48c-0.3-0.32-0.45-0.76-0.45-1.33v-16.18c0-0.59,0.15-1.03,0.45-1.35
			c0.3-0.31,0.74-0.47,1.3-0.47c0.57,0,1,0.16,1.31,0.47c0.3,0.31,0.45,0.76,0.45,1.35v16.18c0,0.57-0.15,1.01-0.44,1.33
			C780.09,299.9,779.65,300.06,779.07,300.06z"/>
		<path class="st0" d="M787.12,299.84c-0.6,0-1.07-0.16-1.39-0.48s-0.48-0.78-0.48-1.39v-15.63c0-0.6,0.16-1.07,0.48-1.39
			c0.32-0.32,0.78-0.48,1.39-0.48h9.81c0.46,0,0.81,0.12,1.06,0.36c0.25,0.24,0.37,0.58,0.37,1.02c0,0.46-0.12,0.81-0.37,1.06
			c-0.25,0.25-0.6,0.37-1.06,0.37h-8.3v5.33h7.69c0.48,0,0.83,0.12,1.07,0.36c0.24,0.24,0.36,0.59,0.36,1.04
			c0,0.46-0.12,0.81-0.36,1.04c-0.24,0.24-0.6,0.36-1.07,0.36h-7.69v5.63h8.3c0.46,0,0.81,0.12,1.06,0.36
			c0.25,0.24,0.37,0.59,0.37,1.04s-0.12,0.81-0.37,1.04c-0.25,0.24-0.6,0.36-1.06,0.36H787.12z"/>
		<path class="st0" d="M811.35,299.84c-0.6,0-1.07-0.16-1.39-0.48c-0.32-0.32-0.48-0.78-0.48-1.39v-15.63c0-0.6,0.16-1.07,0.48-1.39
			c0.32-0.32,0.78-0.48,1.39-0.48h5.33c3.24,0,5.75,0.83,7.51,2.5c1.77,1.67,2.65,4.06,2.65,7.17c0,1.56-0.22,2.94-0.67,4.14
			s-1.11,2.21-1.98,3.04c-0.87,0.82-1.93,1.45-3.19,1.88c-1.25,0.43-2.7,0.65-4.33,0.65H811.35z M813,296.93h3.46
			c1.14,0,2.12-0.14,2.95-0.43c0.83-0.28,1.53-0.7,2.09-1.26c0.56-0.56,0.98-1.26,1.25-2.12c0.27-0.85,0.41-1.85,0.41-2.98
			c0-2.27-0.56-3.97-1.68-5.08c-1.12-1.12-2.79-1.68-5.03-1.68H813V296.93z"/>
		<path class="st0" d="M832.48,299.84c-0.6,0-1.07-0.16-1.39-0.48s-0.48-0.78-0.48-1.39v-15.63c0-0.6,0.16-1.07,0.48-1.39
			c0.32-0.32,0.78-0.48,1.39-0.48h9.81c0.46,0,0.81,0.12,1.06,0.36c0.25,0.24,0.37,0.58,0.37,1.02c0,0.46-0.12,0.81-0.37,1.06
			c-0.25,0.25-0.6,0.37-1.06,0.37h-8.3v5.33h7.69c0.48,0,0.83,0.12,1.07,0.36c0.24,0.24,0.36,0.59,0.36,1.04
			c0,0.46-0.12,0.81-0.36,1.04c-0.24,0.24-0.6,0.36-1.07,0.36h-7.69v5.63h8.3c0.46,0,0.81,0.12,1.06,0.36
			c0.25,0.24,0.37,0.59,0.37,1.04s-0.12,0.81-0.37,1.04c-0.25,0.24-0.6,0.36-1.06,0.36H832.48z M838.91,278.66
			c-0.22,0.24-0.46,0.36-0.73,0.37c-0.27,0.01-0.5-0.06-0.72-0.22c-0.21-0.16-0.35-0.35-0.41-0.59c-0.06-0.24-0.01-0.49,0.15-0.74
			l2.14-3.16c0.2-0.31,0.44-0.5,0.73-0.56c0.28-0.06,0.56-0.05,0.84,0.05c0.27,0.1,0.5,0.26,0.67,0.47
			c0.17,0.21,0.27,0.45,0.29,0.72c0.02,0.27-0.09,0.53-0.33,0.78L838.91,278.66z"/>
		<path class="st0" d="M848.86,300.06c-0.51,0-0.91-0.15-1.18-0.44c-0.27-0.29-0.41-0.7-0.41-1.21V281.9c0-0.53,0.15-0.94,0.44-1.22
			c0.29-0.28,0.7-0.43,1.21-0.43c0.46,0,0.82,0.09,1.09,0.26c0.27,0.17,0.51,0.47,0.73,0.89l6.79,12.56h-0.88l6.79-12.56
			c0.22-0.42,0.46-0.72,0.71-0.89c0.26-0.17,0.61-0.26,1.07-0.26c0.51,0,0.91,0.14,1.18,0.43c0.27,0.28,0.41,0.69,0.41,1.22v16.51
			c0,0.51-0.13,0.92-0.4,1.21c-0.27,0.29-0.66,0.44-1.2,0.44c-0.51,0-0.91-0.15-1.18-0.44s-0.41-0.7-0.41-1.21v-12.72h0.6
			l-5.77,10.52c-0.18,0.31-0.38,0.54-0.58,0.69c-0.2,0.15-0.48,0.22-0.82,0.22s-0.63-0.08-0.85-0.23c-0.22-0.16-0.41-0.38-0.58-0.67
			l-5.83-10.55h0.66v12.75c0,0.51-0.13,0.92-0.4,1.21C849.79,299.92,849.39,300.06,848.86,300.06z"/>
		<path class="st0" d="M879.93,300.12c-1.87,0-3.5-0.41-4.9-1.24s-2.49-1.98-3.26-3.48c-0.77-1.49-1.15-3.25-1.15-5.26
			c0-1.52,0.22-2.89,0.66-4.11c0.44-1.22,1.07-2.26,1.88-3.13c0.81-0.87,1.79-1.54,2.94-2.01c1.14-0.47,2.42-0.7,3.83-0.7
			c1.89,0,3.53,0.41,4.92,1.22c1.39,0.82,2.47,1.96,3.24,3.45c0.77,1.48,1.15,3.23,1.15,5.25c0,1.52-0.22,2.89-0.66,4.12
			c-0.44,1.23-1.07,2.28-1.88,3.16c-0.82,0.88-1.79,1.55-2.94,2.02S881.34,300.12,879.93,300.12z M879.93,297.1
			c1.19,0,2.2-0.27,3.04-0.82c0.83-0.55,1.47-1.35,1.92-2.39c0.45-1.04,0.67-2.29,0.67-3.74c0-2.2-0.49-3.9-1.47-5.11
			c-0.98-1.21-2.37-1.81-4.16-1.81c-1.17,0-2.18,0.27-3.02,0.81c-0.84,0.54-1.49,1.33-1.94,2.36c-0.45,1.03-0.67,2.29-0.67,3.75
			c0,2.18,0.49,3.88,1.48,5.11S878.16,297.1,879.93,297.1z"/>
		<path class="st0" d="M902.02,300.12c-2.02,0-3.74-0.41-5.18-1.22c-1.44-0.82-2.54-1.97-3.31-3.46c-0.77-1.49-1.15-3.26-1.15-5.29
			c0-1.52,0.22-2.89,0.66-4.11c0.44-1.22,1.07-2.26,1.9-3.13c0.82-0.87,1.84-1.54,3.04-2.01c1.2-0.47,2.55-0.7,4.05-0.7
			c1.01,0,2,0.13,2.97,0.39c0.97,0.26,1.82,0.62,2.55,1.1c0.39,0.24,0.64,0.53,0.77,0.87c0.13,0.34,0.16,0.67,0.08,0.99
			c-0.07,0.32-0.22,0.59-0.45,0.81c-0.23,0.22-0.51,0.34-0.85,0.37c-0.34,0.03-0.71-0.09-1.11-0.34c-0.57-0.37-1.18-0.63-1.84-0.8
			c-0.66-0.17-1.33-0.25-2.01-0.25c-1.3,0-2.4,0.27-3.3,0.8c-0.9,0.53-1.58,1.3-2.03,2.31c-0.46,1.01-0.69,2.24-0.69,3.71
			c0,1.45,0.23,2.68,0.69,3.71c0.46,1.03,1.14,1.81,2.03,2.34c0.9,0.53,2,0.8,3.3,0.8c0.7,0,1.38-0.09,2.06-0.26
			c0.68-0.17,1.32-0.44,1.92-0.81c0.4-0.24,0.76-0.34,1.09-0.32c0.32,0.03,0.59,0.14,0.81,0.34c0.22,0.2,0.37,0.45,0.44,0.76
			c0.07,0.3,0.06,0.61-0.05,0.93c-0.11,0.32-0.33,0.6-0.66,0.84c-0.73,0.53-1.61,0.94-2.62,1.22
			C904.1,299.98,903.07,300.12,902.02,300.12z"/>
		<path class="st0" d="M913.65,300.06c-0.57,0-1-0.16-1.3-0.48c-0.3-0.32-0.45-0.76-0.45-1.33v-15.99c0-0.59,0.16-1.03,0.47-1.33
			c0.31-0.3,0.75-0.45,1.32-0.45h6.62c2.12,0,3.76,0.51,4.92,1.53c1.15,1.02,1.73,2.44,1.73,4.27c0,1.19-0.26,2.22-0.78,3.08
			c-0.52,0.86-1.28,1.52-2.27,1.98c-0.99,0.46-2.19,0.69-3.6,0.69l0.25-0.41h0.91c0.75,0,1.41,0.18,1.96,0.55
			c0.56,0.37,1.05,0.94,1.47,1.73l2.06,3.82c0.22,0.38,0.32,0.76,0.3,1.13c-0.02,0.37-0.16,0.66-0.41,0.89
			c-0.26,0.23-0.63,0.34-1.13,0.34c-0.49,0-0.9-0.11-1.21-0.32c-0.31-0.21-0.59-0.54-0.82-0.98l-2.77-5.11
			c-0.33-0.62-0.72-1.04-1.17-1.25c-0.45-0.21-1.02-0.32-1.72-0.32h-2.61v6.15c0,0.57-0.15,1.01-0.44,1.33
			C914.67,299.9,914.23,300.06,913.65,300.06z M915.41,289.49h4.29c1.26,0,2.22-0.26,2.87-0.78c0.65-0.52,0.98-1.31,0.98-2.35
			c0-1.03-0.33-1.8-0.98-2.32c-0.65-0.52-1.61-0.78-2.87-0.78h-4.29V289.49z"/>
		<path class="st0" d="M931.12,300.06c-0.44,0-0.79-0.1-1.06-0.3c-0.27-0.2-0.43-0.47-0.48-0.81s0.01-0.72,0.19-1.14l7.25-16.07
			c0.24-0.53,0.53-0.91,0.87-1.14c0.34-0.23,0.73-0.34,1.17-0.34c0.42,0,0.8,0.11,1.14,0.34c0.34,0.23,0.63,0.61,0.87,1.14
			l7.28,16.07c0.2,0.42,0.27,0.81,0.22,1.15c-0.05,0.35-0.21,0.62-0.47,0.81c-0.26,0.19-0.6,0.29-1.02,0.29
			c-0.51,0-0.91-0.12-1.2-0.37c-0.28-0.25-0.54-0.63-0.76-1.14l-1.79-4.15l1.48,0.96h-11.6l1.48-0.96l-1.76,4.15
			c-0.24,0.53-0.49,0.92-0.74,1.15S931.6,300.06,931.12,300.06z M939.01,284.29l-3.85,9.15l-0.71-0.88h9.18l-0.69,0.88l-3.87-9.15
			H939.01z"/>
		<path class="st0" d="M956.35,300.06c-0.57,0-1-0.16-1.31-0.48c-0.3-0.32-0.45-0.76-0.45-1.33v-14.84h-5.36
			c-0.48,0-0.85-0.13-1.11-0.4c-0.27-0.27-0.4-0.63-0.4-1.09c0-0.48,0.13-0.84,0.4-1.08c0.27-0.25,0.64-0.37,1.11-0.37h14.23
			c0.48,0,0.85,0.12,1.11,0.37c0.26,0.25,0.4,0.61,0.4,1.08c0,0.46-0.13,0.82-0.4,1.09c-0.27,0.27-0.64,0.4-1.11,0.4h-5.36v14.84
			c0,0.57-0.15,1.01-0.44,1.33C957.37,299.9,956.93,300.06,956.35,300.06z"/>
		<path class="st0" d="M968.93,300.06c-0.57,0-1-0.16-1.3-0.48c-0.3-0.32-0.45-0.76-0.45-1.33v-16.18c0-0.59,0.15-1.03,0.45-1.35
			c0.3-0.31,0.74-0.47,1.3-0.47s1,0.16,1.31,0.47c0.3,0.31,0.45,0.76,0.45,1.35v16.18c0,0.57-0.15,1.01-0.44,1.33
			C969.96,299.9,969.52,300.06,968.93,300.06z"/>
		<path class="st0" d="M976.98,299.84c-0.6,0-1.07-0.16-1.39-0.48s-0.48-0.78-0.48-1.39v-15.63c0-0.6,0.16-1.07,0.48-1.39
			c0.32-0.32,0.78-0.48,1.39-0.48h9.81c0.46,0,0.81,0.12,1.06,0.36c0.25,0.24,0.37,0.58,0.37,1.02c0,0.46-0.12,0.81-0.37,1.06
			c-0.25,0.25-0.6,0.37-1.06,0.37h-8.3v5.33h7.69c0.48,0,0.83,0.12,1.07,0.36c0.24,0.24,0.36,0.59,0.36,1.04
			c0,0.46-0.12,0.81-0.36,1.04c-0.24,0.24-0.6,0.36-1.07,0.36h-7.69v5.63h8.3c0.46,0,0.81,0.12,1.06,0.36
			c0.25,0.24,0.37,0.59,0.37,1.04s-0.12,0.81-0.37,1.04c-0.25,0.24-0.6,0.36-1.06,0.36H976.98z"/>
	</g>
</g>
<g id="Calque_2">
	<g>
		<g>
			<polygon class="st1" points="146.49,142.09 108.39,79.29 70.3,142.09 108.39,142.09 			"/>
			<polygon class="st1" points="70.3,193.29 108.39,256.09 146.49,193.29 108.39,193.29 			"/>
		</g>
		<g class="st2">
			<g>
				<polygon class="st0" points="108.39,193.29 108.39,256.09 146.49,193.29 				"/>
			</g>
			<g>
				<polygon class="st3" points="108.39,193.29 108.39,256.09 70.3,193.29 				"/>
			</g>
		</g>
		<g class="st2">
			<g>
				<g>
					<polygon class="st4" points="108.39,142.09 108.39,79.29 146.49,142.09 					"/>
				</g>
			</g>
			<g>
				<polygon class="st5" points="108.39,142.09 108.39,79.29 70.3,142.09 				"/>
			</g>
		</g>
		<g>
			<g>
				<g>
					<path class="st6" d="M210.13,51.29c1.54,1.54,2.4,3.62,2.4,5.79v59.6c0,31.08-14.23,55.32-40.08,68.23
						c-11.63,5.74-24.37,8.87-37.33,9.17H82.08c-28.78,0-46.31-11.76-55.94-21.61c-21.3-21.8-21.94-51.36-21.88-56.38v-59
						c0-4.52,3.66-8.18,8.18-8.18h35.59c2.17,0,4.25,0.86,5.79,2.4c1.53,1.54,2.4,3.62,2.39,5.79v59.64
						c0.22,5.22,1.54,10.34,3.89,15.01c2.78,5.14,7.57,10.39,21.97,10.39h52.82c5.33-0.32,10.53-1.75,15.27-4.19
						c5.14-2.83,10.39-7.57,10.39-21.25v-59.6c0-4.52,3.66-8.18,8.18-8.18h35.59C206.51,48.9,208.59,49.76,210.13,51.29z"/>
				</g>
				<g>
					<path class="st6" d="M212.67,184.59v114.06c0,4.37-3.54,7.92-7.92,7.92h-36.13c-4.37,0-7.91-3.55-7.91-7.92v-13.76
						c0-1.84-1.22-3.45-2.99-3.95c-1.77-0.49-3.65,0.26-4.6,1.83l-37.51,62.29c-1.43,2.37-4,3.83-6.77,3.83
						c-2.77,0.01-5.34-1.44-6.78-3.8l-38.4-63.18c-0.95-1.57-2.83-2.31-4.6-1.81s-2.99,2.1-2.99,3.93v14.61
						c0,4.37-3.54,7.92-7.91,7.92H12.03c-4.37,0-7.91-3.54-7.91-7.92V184.58c0-4.37,3.54-7.92,7.91-7.92h44.02
						c2.76,0,5.33,1.44,6.77,3.8l42.33,69.65c0.74,1.22,2.07,1.97,3.5,1.97c1.43,0,2.76-0.75,3.5-1.97l41.92-69.61
						c1.43-2.38,4-3.83,6.78-3.83h43.92C209.13,176.68,212.67,180.22,212.67,184.59z"/>
				</g>
				<g>
					<path class="st6" d="M80.67,125.17l27.72-45.99l27.72,45.99c5.42-15.8,8.7-36.27,8.7-58.65c0-0.2-0.01-0.4-0.01-0.6
						L114.27,15.2c-1.16-1.93-3.25-3.12-5.51-3.12c-2.26,0-4.35,1.17-5.52,3.1L71.97,66.62C71.98,88.96,75.26,109.4,80.67,125.17z"
						/>
				</g>
			</g>
		</g>
		<g>
			<g>
				<g>
					<polygon class="st0" points="108.39,168.02 108.39,131.09 72.37,168.02 					"/>
				</g>
				<g>
					<polygon class="st3" points="108.39,168.02 108.39,131.09 144.41,168.02 					"/>
				</g>
			</g>
			<g>
				<g>
					<g>
						<polygon class="st4" points="108.39,168.02 108.39,204.94 72.37,168.02 						"/>
					</g>
				</g>
				<g>
					<polygon class="st5" points="108.39,168.02 108.39,204.94 144.41,168.02 					"/>
				</g>
			</g>
		</g>
	</g>
	<g>
		<path class="st6" d="M295.38,192.24c-31.61,0-47.42-16.11-47.42-48.33V67.5c0-2.79,1-5.2,3.01-7.2s4.41-3.01,7.2-3.01
			c2.79,0,5.2,1,7.2,3.01c2.01,2.01,3.01,4.41,3.01,7.2v77.32c0,10.7,2.22,18.48,6.66,23.34c4.44,4.86,11.34,7.3,20.7,7.3
			c9.36,0,16.26-2.43,20.7-7.3c4.44-4.86,6.66-12.64,6.66-23.34V67.13c0-2.67,0.97-4.98,2.92-6.93c1.94-1.94,4.25-2.92,6.93-2.92
			c2.67,0,4.98,0.97,6.93,2.92c1.94,1.95,2.92,4.26,2.92,6.93v76.78C342.79,176.13,326.99,192.24,295.38,192.24z"/>
		<path class="st6" d="M383.37,187.59c-1.89,1.89-4.17,2.83-6.84,2.83c-2.68,0-4.96-0.94-6.84-2.83c-1.89-1.88-2.83-4.16-2.83-6.84
			V66.95c0-2.67,0.94-4.95,2.83-6.84c1.88-1.88,4.16-2.83,6.84-2.83c6.44,0,11.12,2.86,14.04,8.57l35.93,69.66
			c0,0.12,0.06,0.18,0.18,0.18c0.12,0,0.18-0.06,0.18-0.18l35.74-69.3c3.04-5.96,7.9-8.94,14.59-8.94c2.79,0,5.17,0.97,7.11,2.92
			c1.94,1.95,2.92,4.32,2.92,7.11v113.07c0,2.8-0.97,5.17-2.92,7.11c-1.95,1.94-4.32,2.92-7.11,2.92c-2.8,0-5.17-0.97-7.11-2.92
			c-1.95-1.94-2.92-4.31-2.92-7.11V92.12c0-0.12-0.06-0.18-0.18-0.18c-0.12,0-0.18,0.06-0.18,0.18l-26.99,53.62
			c-2.8,5.47-7.18,8.21-13.13,8.21c-5.96,0-10.33-2.74-13.13-8.21l-26.99-53.62c0-0.12-0.06-0.18-0.18-0.18
			c-0.12,0-0.18,0.06-0.18,0.18v88.63C386.19,183.43,385.25,185.71,383.37,187.59z"/>
		<path class="st6" d="M532.89,192.24c-8.27,0-15.04-2.67-20.33-8.02c-5.29-5.35-7.93-12.4-7.93-21.16
			c0-10.7,4.07-18.99,12.22-24.89c8.14-5.89,20.49-8.84,37.02-8.84h8.39c1.1,0,1.64-0.55,1.64-1.64v-2.01
			c0-6.44-1.52-10.94-4.56-13.5c-3.04-2.55-8.51-3.83-16.41-3.83c-7.05,0-15.44,1.46-25.17,4.38c-1.82,0.61-3.55,0.34-5.2-0.82
			c-1.64-1.15-2.46-2.7-2.46-4.65c0-2.43,0.73-4.62,2.19-6.57c1.46-1.94,3.34-3.16,5.65-3.65c8.75-2.19,17.08-3.28,24.98-3.28
			c15.32,0,25.83,2.73,31.55,8.21c5.72,5.47,8.57,15.5,8.57,30.09v49.42c0,2.43-0.88,4.53-2.64,6.29c-1.76,1.76-3.86,2.64-6.29,2.64
			s-4.53-0.88-6.29-2.64c-1.76-1.76-2.71-3.86-2.82-6.29l-0.18-4.56c0-0.12-0.07-0.18-0.19-0.18c-0.25,0-0.37,0.06-0.37,0.18
			C557.2,187.13,546.75,192.24,532.89,192.24z M553.87,142.63c-9.97,0-17.48,1.67-22.52,5.01c-5.05,3.35-7.57,7.87-7.57,13.59
			c0,4.5,1.34,8.21,4.01,11.13c2.67,2.92,5.9,4.38,9.67,4.38c8.02,0,14.43-2.52,19.24-7.57c4.8-5.04,7.2-11.95,7.2-20.7v-4.38
			c0-0.97-0.55-1.46-1.64-1.46H553.87z"/>
		<path class="st6" d="M620.79,187.68c-1.82,1.82-4.07,2.73-6.75,2.73c-2.68,0-4.96-0.91-6.84-2.73c-1.89-1.82-2.83-4.07-2.83-6.75
			v-76.41c0-2.43,0.88-4.53,2.64-6.29c1.76-1.76,3.86-2.64,6.29-2.64c2.43,0,4.53,0.88,6.29,2.64c1.76,1.76,2.7,3.86,2.83,6.29
			l0.18,2.74c0,0.12,0.06,0.18,0.18,0.18s0.24-0.06,0.37-0.18c8.63-9,18.48-13.5,29.54-13.5c11.06,0,19.15,3.13,24.26,9.39
			c5.11,6.26,7.66,16.5,7.66,30.73v47.23c0,2.55-0.91,4.74-2.73,6.57c-1.82,1.82-4.01,2.73-6.56,2.73c-2.55,0-4.77-0.91-6.66-2.73
			c-1.89-1.82-2.83-4.01-2.83-6.57v-44.5c0-10.94-1.34-18.39-4.01-22.34c-2.68-3.95-7.54-5.93-14.59-5.93
			c-5.72,0-11.09,2.52-16.14,7.57c-5.05,5.05-7.57,10.43-7.57,16.14v48.88C623.53,183.61,622.62,185.86,620.79,187.68z"/>
		<path class="st0" d="M738.42,190.42c-2.55,0-4.59-1.03-6.11-3.1c-1.52-2.07-1.85-4.31-1-6.75l39.03-113.43
			c0.97-2.92,2.74-5.29,5.29-7.11c2.55-1.82,5.35-2.74,8.39-2.74h1.1c3.16,0,5.99,0.91,8.48,2.74c2.49,1.82,4.22,4.19,5.2,7.11
			l39.03,113.43c0.85,2.43,0.51,4.68-1,6.75c-1.52,2.07-3.56,3.1-6.11,3.1h-0.73c-3.04,0-5.81-0.91-8.3-2.73
			c-2.5-1.82-4.23-4.2-5.2-7.11l-7.3-24.07c-0.12-0.97-0.79-1.46-2-1.46h-45.96c-1.1,0-1.76,0.49-2.01,1.46l-7.3,24.07
			c-0.85,2.92-2.52,5.29-5.02,7.11C744.4,189.5,741.58,190.42,738.42,190.42z M784.01,75.71l-19.15,62.19
			c-0.12,0.36-0.06,0.7,0.18,1c0.24,0.3,0.55,0.46,0.91,0.46h36.47c0.37,0,0.67-0.15,0.91-0.46c0.24-0.3,0.3-0.64,0.18-1
			l-19.15-62.19c0-0.12-0.06-0.18-0.18-0.18C784.07,75.52,784.01,75.59,784.01,75.71z"/>
		<path class="st0" d="M869.9,187.5c-1.94,1.94-4.32,2.92-7.11,2.92c-2.8,0-5.17-0.97-7.11-2.92c-1.95-1.94-2.92-4.31-2.92-7.11
			V68.59c0-2.92,0.97-5.53,2.92-7.84c1.94-2.31,4.38-3.58,7.29-3.83c10.33-0.97,20.3-1.46,29.91-1.46
			c16.78,0,29.48,3.56,38.11,10.67c8.63,7.11,12.95,17.23,12.95,30.36c0,29.79-17.02,44.68-51.06,44.68
			c-7.18,0-13.38-0.24-18.6-0.73c-0.97,0-1.46,0.49-1.46,1.46v38.48C872.82,183.18,871.85,185.55,869.9,187.5z M872.82,74.43v47.96
			c0,0.97,0.55,1.58,1.64,1.82c6.2,0.85,11.73,1.28,16.6,1.28c10.7,0,18.9-2.34,24.62-7.02c5.71-4.68,8.57-11.4,8.57-20.15
			s-2.8-15.41-8.39-19.97c-5.59-4.56-13.86-6.84-24.8-6.84c-5.84,0-11.37,0.36-16.6,1.09C873.37,72.85,872.82,73.46,872.82,74.43z"
			/>
		<path class="st0" d="M971.49,190.42c-2.61,0-4.88-1.03-6.81-3.1c-1.93-2.07-2.89-4.5-2.89-7.3V67.68c0-2.79,0.96-5.23,2.89-7.29
			c1.93-2.07,4.2-3.1,6.81-3.1h1.02c2.61,0,4.88,1.04,6.81,3.1c1.93,2.07,2.89,4.5,2.89,7.29v112.34c0,2.8-0.97,5.23-2.89,7.3
			c-1.93,2.07-4.2,3.1-6.81,3.1H971.49z"/>
	</g>
	<g class="st7">
		<g>
			<path class="st6" d="M252.2,268.44c-1.17,0-2.06-0.34-2.68-1.01c-0.61-0.67-0.92-1.59-0.92-2.77v-55.61
				c0-1.23,0.31-2.17,0.92-2.81c0.62-0.64,1.51-0.97,2.68-0.97c1.17,0,2.06,0.32,2.68,0.97c0.61,0.65,0.92,1.58,0.92,2.81v55.61
				c0,1.17-0.29,2.09-0.88,2.77C254.34,268.1,253.43,268.44,252.2,268.44z"/>
			<path class="st6" d="M279.7,268.44c-1.11,0-1.96-0.31-2.55-0.92c-0.59-0.62-0.88-1.51-0.88-2.68v-55.87
				c0-1.17,0.29-2.08,0.88-2.72c0.58-0.64,1.35-0.97,2.28-0.97c0.94,0,1.63,0.16,2.06,0.48c0.44,0.32,0.95,0.89,1.54,1.71
				l38.3,51.04h-2.11v-49.72c0-1.11,0.29-1.98,0.88-2.59c0.58-0.61,1.43-0.92,2.55-0.92c1.05,0,1.86,0.31,2.42,0.92
				c0.56,0.62,0.83,1.48,0.83,2.59v56.14c0,1.11-0.25,1.98-0.75,2.59c-0.5,0.62-1.22,0.92-2.15,0.92c-0.88,0-1.58-0.18-2.11-0.53
				c-0.53-0.35-1.08-0.91-1.67-1.67l-38.22-51.04h2.02v49.64c0,1.17-0.29,2.06-0.88,2.68C281.57,268.13,280.75,268.44,279.7,268.44z
				"/>
			<path class="st6" d="M365.18,268.44c-1.11,0-1.99-0.34-2.64-1.01c-0.65-0.67-0.97-1.59-0.97-2.77v-52.54h-19.77
				c-1.05,0-1.88-0.29-2.46-0.88c-0.59-0.58-0.88-1.35-0.88-2.28c0-1,0.29-1.76,0.88-2.28c0.58-0.53,1.41-0.79,2.46-0.79h46.83
				c1.05,0,1.87,0.26,2.46,0.79c0.58,0.53,0.88,1.29,0.88,2.28c0,1-0.29,1.77-0.88,2.33c-0.59,0.56-1.41,0.83-2.46,0.83h-19.77
				v52.54c0,1.17-0.31,2.09-0.92,2.77S366.41,268.44,365.18,268.44z"/>
			<path class="st6" d="M408.31,267.83c-1.29,0-2.27-0.34-2.94-1.01c-0.67-0.67-1.01-1.65-1.01-2.94v-54.03
				c0-1.29,0.34-2.27,1.01-2.94c0.67-0.67,1.65-1.01,2.94-1.01h32.68c1,0,1.76,0.26,2.28,0.79c0.53,0.53,0.79,1.26,0.79,2.2
				c0,1-0.26,1.76-0.79,2.28c-0.53,0.53-1.29,0.79-2.28,0.79h-29.61v21.44h27.76c1,0,1.76,0.25,2.28,0.75
				c0.53,0.5,0.79,1.25,0.79,2.24c0,1-0.26,1.76-0.79,2.28c-0.53,0.53-1.29,0.79-2.28,0.79h-27.76v22.31h29.61
				c1,0,1.76,0.26,2.28,0.79c0.53,0.53,0.79,1.26,0.79,2.2c0,1-0.26,1.76-0.79,2.28c-0.53,0.53-1.29,0.79-2.28,0.79H408.31z"/>
			<path class="st6" d="M467.79,268.44c-1.17,0-2.06-0.34-2.68-1.01c-0.61-0.67-0.92-1.59-0.92-2.77v-55.08
				c0-1.23,0.32-2.15,0.97-2.77c0.64-0.62,1.55-0.92,2.72-0.92h20.82c6.62,0,11.71,1.55,15.29,4.66c3.57,3.1,5.36,7.53,5.36,13.27
				c0,3.63-0.8,6.78-2.41,9.44c-1.61,2.67-3.97,4.69-7.07,6.06c-3.1,1.38-6.82,2.06-11.16,2.06l0.88-1.14h1.76
				c2.28,0,4.27,0.59,5.97,1.76c1.7,1.17,3.25,3.05,4.66,5.62l8.43,15.73c0.47,0.82,0.69,1.62,0.66,2.42
				c-0.03,0.79-0.31,1.44-0.84,1.93s-1.29,0.75-2.28,0.75c-1,0-1.82-0.24-2.46-0.7s-1.2-1.14-1.67-2.02l-9.58-17.75
				c-1.35-2.52-2.9-4.2-4.66-5.05c-1.76-0.85-4.07-1.27-6.94-1.27h-11.25v23.02c0,1.17-0.29,2.09-0.88,2.77
				C469.93,268.1,469.02,268.44,467.79,268.44z M471.39,235.94h16.25c4.8,0,8.43-1.01,10.89-3.03c2.46-2.02,3.69-5.05,3.69-9.09
				c0-3.92-1.23-6.9-3.69-8.92c-2.46-2.02-6.09-3.03-10.89-3.03h-16.25V235.94z"/>
			<path class="st6" d="M531.48,268.44c-1.11,0-1.96-0.31-2.55-0.92c-0.59-0.62-0.88-1.51-0.88-2.68v-55.87
				c0-1.17,0.29-2.08,0.88-2.72c0.58-0.64,1.35-0.97,2.28-0.97c0.94,0,1.62,0.16,2.06,0.48c0.44,0.32,0.95,0.89,1.54,1.71
				l38.3,51.04h-2.11v-49.72c0-1.11,0.29-1.98,0.88-2.59c0.58-0.61,1.43-0.92,2.55-0.92c1.05,0,1.86,0.31,2.42,0.92
				c0.56,0.62,0.83,1.48,0.83,2.59v56.14c0,1.11-0.25,1.98-0.75,2.59c-0.5,0.62-1.22,0.92-2.15,0.92c-0.88,0-1.58-0.18-2.11-0.53
				c-0.53-0.35-1.08-0.91-1.67-1.67L532.8,215.2h2.02v49.64c0,1.17-0.29,2.06-0.88,2.68C533.35,268.13,532.54,268.44,531.48,268.44z
				"/>
			<path class="st6" d="M595.08,268.44c-0.94,0-1.68-0.22-2.24-0.66c-0.56-0.44-0.88-1.02-0.97-1.76c-0.09-0.73,0.07-1.57,0.48-2.5
				l24.16-55c0.53-1.17,1.16-2,1.89-2.5c0.73-0.5,1.54-0.75,2.42-0.75c0.88,0,1.68,0.25,2.42,0.75c0.73,0.5,1.33,1.33,1.8,2.5
				l24.25,55c0.47,0.94,0.66,1.79,0.57,2.55c-0.09,0.76-0.4,1.35-0.92,1.76s-1.26,0.62-2.2,0.62c-1.05,0-1.9-0.28-2.55-0.83
				s-1.17-1.36-1.58-2.42l-6.5-15.02l3.51,1.84h-37.78l3.6-1.84l-6.41,15.02c-0.53,1.11-1.08,1.93-1.67,2.46
				C596.78,268.18,596.02,268.44,595.08,268.44z M620.74,214.32l-14.14,33.3l-2.11-1.67h32.51l-1.93,1.67l-14.14-33.3H620.74z"/>
			<path class="st6" d="M672.39,268.44c-1.11,0-1.99-0.34-2.64-1.01s-0.97-1.59-0.97-2.77v-52.54h-19.77
				c-1.05,0-1.88-0.29-2.46-0.88c-0.59-0.58-0.88-1.35-0.88-2.28c0-1,0.29-1.76,0.88-2.28c0.58-0.53,1.41-0.79,2.46-0.79h46.83
				c1.05,0,1.87,0.26,2.46,0.79c0.58,0.53,0.88,1.29,0.88,2.28c0,1-0.29,1.77-0.88,2.33c-0.59,0.56-1.41,0.83-2.46,0.83h-19.77
				v52.54c0,1.17-0.31,2.09-0.92,2.77S673.62,268.44,672.39,268.44z"/>
			<path class="st6" d="M715.18,268.44c-1.17,0-2.06-0.34-2.68-1.01s-0.92-1.59-0.92-2.77v-55.61c0-1.23,0.31-2.17,0.92-2.81
				c0.62-0.64,1.51-0.97,2.68-0.97c1.17,0,2.06,0.32,2.68,0.97c0.62,0.65,0.92,1.58,0.92,2.81v55.61c0,1.17-0.29,2.09-0.88,2.77
				C717.31,268.1,716.41,268.44,715.18,268.44z"/>
			<path class="st6" d="M765.25,268.62c-5.74,0-10.73-1.3-14.98-3.91c-4.25-2.61-7.53-6.28-9.84-11.03
				c-2.31-4.74-3.47-10.37-3.47-16.87c0-4.92,0.66-9.33,1.98-13.22c1.32-3.89,3.21-7.2,5.67-9.93s5.43-4.83,8.92-6.33
				c3.48-1.49,7.39-2.24,11.73-2.24c5.86,0,10.91,1.29,15.15,3.87c4.25,2.58,7.53,6.22,9.84,10.94c2.31,4.72,3.47,10.32,3.47,16.82
				c0,4.92-0.67,9.34-2.02,13.27c-1.35,3.92-3.25,7.26-5.71,10.01c-2.46,2.75-5.43,4.88-8.92,6.37
				C773.58,267.87,769.64,268.62,765.25,268.62z M765.25,262.2c4.45,0,8.21-1,11.29-2.99c3.08-1.99,5.43-4.89,7.07-8.7
				c1.64-3.81,2.46-8.38,2.46-13.71c0-8.02-1.8-14.25-5.4-18.67c-3.6-4.42-8.74-6.63-15.42-6.63c-4.33,0-8.04,1-11.11,2.99
				c-3.08,1.99-5.43,4.88-7.07,8.65c-1.64,3.78-2.46,8.33-2.46,13.66c0,7.97,1.81,14.19,5.45,18.67
				C753.68,259.96,758.75,262.2,765.25,262.2z"/>
			<path class="st6" d="M815.15,268.44c-1.11,0-1.96-0.31-2.55-0.92c-0.59-0.62-0.88-1.51-0.88-2.68v-55.87
				c0-1.17,0.29-2.08,0.88-2.72c0.58-0.64,1.35-0.97,2.28-0.97c0.94,0,1.62,0.16,2.06,0.48c0.44,0.32,0.95,0.89,1.54,1.71
				l38.3,51.04h-2.11v-49.72c0-1.11,0.29-1.98,0.88-2.59c0.58-0.61,1.43-0.92,2.55-0.92c1.05,0,1.86,0.31,2.42,0.92
				c0.56,0.62,0.83,1.48,0.83,2.59v56.14c0,1.11-0.25,1.98-0.75,2.59c-0.5,0.62-1.22,0.92-2.15,0.92c-0.88,0-1.58-0.18-2.11-0.53
				c-0.53-0.35-1.08-0.91-1.67-1.67l-38.22-51.04h2.02v49.64c0,1.17-0.29,2.06-0.88,2.68C817.03,268.13,816.21,268.44,815.15,268.44
				z"/>
			<path class="st6" d="M878.76,268.44c-0.94,0-1.68-0.22-2.24-0.66c-0.56-0.44-0.88-1.02-0.97-1.76c-0.09-0.73,0.07-1.57,0.48-2.5
				l24.16-55c0.53-1.17,1.16-2,1.89-2.5c0.73-0.5,1.54-0.75,2.42-0.75c0.88,0,1.68,0.25,2.42,0.75c0.73,0.5,1.33,1.33,1.8,2.5
				l24.25,55c0.47,0.94,0.66,1.79,0.57,2.55c-0.09,0.76-0.4,1.35-0.92,1.76s-1.26,0.62-2.2,0.62c-1.05,0-1.9-0.28-2.55-0.83
				s-1.17-1.36-1.58-2.42l-6.5-15.02l3.51,1.84h-37.78l3.6-1.84l-6.41,15.02c-0.53,1.11-1.08,1.93-1.67,2.46
				C880.45,268.18,879.69,268.44,878.76,268.44z M904.41,214.32l-14.14,33.3l-2.11-1.67h32.51l-1.93,1.67l-14.14-33.3H904.41z"/>
			<path class="st6" d="M951.15,267.83c-1.17,0-2.08-0.34-2.72-1.01c-0.64-0.67-0.97-1.59-0.97-2.77v-54.82
				c0-1.23,0.31-2.17,0.92-2.81c0.62-0.64,1.51-0.97,2.68-0.97c1.17,0,2.06,0.32,2.68,0.97c0.62,0.65,0.92,1.58,0.92,2.81v52.27
				h28.82c1.05,0,1.87,0.28,2.46,0.83c0.58,0.56,0.88,1.33,0.88,2.33c0,1-0.29,1.77-0.88,2.33c-0.59,0.56-1.41,0.83-2.46,0.83
				H951.15z"/>
		</g>
	</g>
</g>
</svg>
