<?xml version="1.0" encoding="UTF-8"?>
<!DOCTYPE svg PUBLIC "-//W3C//DTD SVG 1.1//EN" "http://www.w3.org/Graphics/SVG/1.1/DTD/svg11.dtd">
<!-- Creator: CorelDRAW -->
<svg xmlns="http://www.w3.org/2000/svg" xml:space="preserve" width="2.66666in" height="2.66666in" version="1.1" style="shape-rendering:geometricPrecision; text-rendering:geometricPrecision; image-rendering:optimizeQuality; fill-rule:evenodd; clip-rule:evenodd"
viewBox="0 0 2667 2667"
 xmlns:xlink="http://www.w3.org/1999/xlink">
 <defs>
  <style type="text/css">
   <![CDATA[
    .fil1 {fill:black}
    .fil3 {fill:#2882B0}
    .fil0 {fill:#D0C2B9}
    .fil2 {fill:#F6C09C}
   ]]>
  </style>
 </defs>
 <g id="Layer_x0020_1">
  <metadata id="CorelCorpID_0Corel-Layer"/>
  <circle class="fil0" cx="1333" cy="1333" r="1333"/>
  <path class="fil1" d="M1453 1291c-16,-6 -30,-15 -41,-28 -17,27 -47,45 -81,45 -39,0 -73,-24 -87,-58 -16,13 -37,21 -59,21 -38,0 -70,-22 -85,-54 -17,15 -39,24 -63,24 -23,0 -43,-8 -59,-20 -7,168 -5,316 152,486 8,10 6,66 5,102l388 0c-1,-33 -3,-85 5,-93 83,-93 103,-166 103,-167 63,-195 108,-443 -32,-524 -26,-15 -42,-10 -71,-10 -40,1 -89,2 -121,4l0 0 0 0 0 0 0 0 0 0c-20,0 -34,1 -34,1 -68,2 -68,94 124,160 66,23 105,9 109,35 2,9 -2,18 -10,22 -161,86 -253,255 -254,256 -13,24 -48,5 -35,-18 3,-6 53,-99 146,-184zm-358 518l0 -80c-118,-131 -140,-248 -148,-286 -19,-99 -9,-200 -6,-299l0 -130c0,-53 43,-96 96,-96 21,0 40,7 56,18 4,-47 44,-83 92,-83 21,0 41,7 57,20 12,-38 48,-65 89,-65 21,0 40,7 55,18l0 -244c0,-56 46,-102 101,-102 56,0 101,46 101,102l0 396c10,2 20,6 31,13 130,74 147,271 50,569 0,2 -20,79 -106,177l0 72 23 0c11,0 20,9 20,20l0 337c0,11 -9,20 -20,20l-519 -149c-9,-2 -14,-10 -14,-19l0 -189c0,-11 8,-20 20,-20l22 0zm-2 194l473 137 0 -291 -473 0 0 154zm455 -1028l0 -393c0,-81 -122,-81 -122,0l0 320 0 1 0 76 118 -4 4 0zm-162 5l0 -78c-1,-71 -109,-71 -109,1l0 310c0,72 109,72 109,0 0,-13 -1,-27 -1,-38 -32,-19 -59,-42 -75,-66 -33,-51 -24,-124 62,-129l14 0zm41 216l-1 5c3,34 34,59 67,56 12,-10 24,-19 37,-27 -31,-6 -68,-18 -103,-34zm-334 -51l0 -131c-1,-31 -26,-56 -56,-56 -31,0 -56,25 -56,56l0 131c0,74 111,74 112,0zm40 -132l0 1 0 131 0 1 0 33c0,69 104,69 104,0l0 -234c0,-29 -24,-52 -52,-52 -29,0 -52,23 -52,52l0 68z"/>
  <path class="fil2" d="M1426 979l118 -4 4 0 0 -393c0,-81 -122,-81 -122,0l0 320 0 1 0 76z"/>
  <path class="fil2" d="M1528 1015c-40,1 -89,2 -121,4l0 0 0 0 0 0 0 0 0 0c-20,0 -34,1 -34,1 -68,2 -68,94 124,160 66,23 105,9 109,35 2,9 -2,18 -10,22 -161,86 -253,255 -254,256 -13,24 -48,5 -35,-18 3,-6 53,-99 146,-184 -16,-6 -30,-15 -41,-28 -17,27 -47,45 -81,45 -39,0 -73,-24 -87,-58 -16,13 -37,21 -59,21 -38,0 -70,-22 -85,-54 -17,15 -39,24 -63,24 -23,0 -43,-8 -59,-20 -7,168 -5,316 152,486 8,10 6,66 5,102l388 0c-1,-33 -3,-85 5,-93 83,-93 103,-166 103,-167 63,-195 108,-443 -32,-524 -26,-15 -42,-10 -71,-10z"/>
  <path class="fil2" d="M1385 1175c-32,-19 -59,-42 -75,-66 -33,-51 -24,-124 62,-129l14 0 0 -78c-1,-71 -109,-71 -109,1l0 310c0,72 109,72 109,0 0,-13 -1,-27 -1,-38z"/>
  <path class="fil2" d="M1530 1230c-31,-6 -68,-18 -103,-34l-1 5c3,34 34,59 67,56 12,-10 24,-19 37,-27z"/>
  <path class="fil2" d="M1237 1179l0 -234c0,-29 -24,-52 -52,-52 -29,0 -52,23 -52,52l0 68 0 1 0 131 0 1 0 33c0,69 104,69 104,0z"/>
  <path class="fil2" d="M1093 1145l0 -131c-1,-31 -26,-56 -56,-56 -31,0 -56,25 -56,56l0 131c0,74 111,74 112,0z"/>
  <polygon class="fil3" points="1566,1849 1093,1849 1093,2003 1566,2140 "/>
 </g>
</svg>
